<mxfile host="app.diagrams.net" modified="2022-10-10T00:51:04.343Z" agent="5.0 (Macintosh; Intel Mac OS X 10_15_7) AppleWebKit/537.36 (KHTML, like Gecko) Chrome/105.0.0.0 Safari/537.36" etag="S_S42AlajPCsuICj2qLv" version="20.4.0" type="github" pages="17">
  <diagram id="ixPEuoIDqIsue7XByXnb" name="quiz1">
    <mxGraphModel dx="1055" dy="542" grid="1" gridSize="10" guides="1" tooltips="1" connect="1" arrows="1" fold="1" page="1" pageScale="1" pageWidth="850" pageHeight="1100" math="0" shadow="0">
      <root>
        <mxCell id="0" />
        <mxCell id="1" parent="0" />
        <mxCell id="F3-XCCk3jJO-Y-EAtxu9-5" style="edgeStyle=orthogonalEdgeStyle;rounded=0;orthogonalLoop=1;jettySize=auto;html=1;exitX=0.5;exitY=1;exitDx=0;exitDy=0;entryX=0.5;entryY=0;entryDx=0;entryDy=0;" parent="1" source="z0ne2X-inpyafFEtwiGd-1" target="z0ne2X-inpyafFEtwiGd-3" edge="1">
          <mxGeometry relative="1" as="geometry" />
        </mxCell>
        <mxCell id="z0ne2X-inpyafFEtwiGd-1" value="Start" style="ellipse;whiteSpace=wrap;html=1;" parent="1" vertex="1">
          <mxGeometry x="90" y="60" width="80" height="40" as="geometry" />
        </mxCell>
        <mxCell id="F3-XCCk3jJO-Y-EAtxu9-6" style="edgeStyle=orthogonalEdgeStyle;rounded=0;orthogonalLoop=1;jettySize=auto;html=1;exitX=0.5;exitY=1;exitDx=0;exitDy=0;entryX=0.5;entryY=0;entryDx=0;entryDy=0;" parent="1" source="z0ne2X-inpyafFEtwiGd-3" target="z0ne2X-inpyafFEtwiGd-4" edge="1">
          <mxGeometry relative="1" as="geometry" />
        </mxCell>
        <mxCell id="z0ne2X-inpyafFEtwiGd-3" value="a = str(input(&quot;Enter input: &quot;))" style="shape=parallelogram;perimeter=parallelogramPerimeter;whiteSpace=wrap;html=1;fixedSize=1;" parent="1" vertex="1">
          <mxGeometry x="40" y="120" width="180" height="60" as="geometry" />
        </mxCell>
        <mxCell id="F3-XCCk3jJO-Y-EAtxu9-7" style="edgeStyle=orthogonalEdgeStyle;rounded=0;orthogonalLoop=1;jettySize=auto;html=1;exitX=0.5;exitY=1;exitDx=0;exitDy=0;entryX=0.5;entryY=0;entryDx=0;entryDy=0;" parent="1" source="z0ne2X-inpyafFEtwiGd-4" target="r3HeBNrmxHNrwdV9-epc-1" edge="1">
          <mxGeometry relative="1" as="geometry" />
        </mxCell>
        <mxCell id="z0ne2X-inpyafFEtwiGd-4" value="a = a.split()" style="rounded=0;whiteSpace=wrap;html=1;" parent="1" vertex="1">
          <mxGeometry x="80" y="200" width="100" height="40" as="geometry" />
        </mxCell>
        <mxCell id="F3-XCCk3jJO-Y-EAtxu9-8" style="edgeStyle=orthogonalEdgeStyle;rounded=0;orthogonalLoop=1;jettySize=auto;html=1;exitX=0.5;exitY=1;exitDx=0;exitDy=0;entryX=0.5;entryY=0;entryDx=0;entryDy=0;" parent="1" source="r3HeBNrmxHNrwdV9-epc-1" target="F3-XCCk3jJO-Y-EAtxu9-1" edge="1">
          <mxGeometry relative="1" as="geometry" />
        </mxCell>
        <mxCell id="F3-XCCk3jJO-Y-EAtxu9-18" style="edgeStyle=orthogonalEdgeStyle;rounded=0;orthogonalLoop=1;jettySize=auto;html=1;exitX=0;exitY=0.5;exitDx=0;exitDy=0;entryX=0;entryY=0.5;entryDx=0;entryDy=0;" parent="1" source="r3HeBNrmxHNrwdV9-epc-1" target="F3-XCCk3jJO-Y-EAtxu9-4" edge="1">
          <mxGeometry relative="1" as="geometry">
            <Array as="points">
              <mxPoint x="30" y="285" />
              <mxPoint x="30" y="530" />
            </Array>
          </mxGeometry>
        </mxCell>
        <mxCell id="r3HeBNrmxHNrwdV9-epc-1" value="for i in a" style="shape=hexagon;perimeter=hexagonPerimeter2;whiteSpace=wrap;html=1;fixedSize=1;fontSize=15;" parent="1" vertex="1">
          <mxGeometry x="85" y="260" width="90" height="50" as="geometry" />
        </mxCell>
        <mxCell id="F3-XCCk3jJO-Y-EAtxu9-9" style="edgeStyle=orthogonalEdgeStyle;rounded=0;orthogonalLoop=1;jettySize=auto;html=1;exitX=0.5;exitY=1;exitDx=0;exitDy=0;entryX=0.5;entryY=0;entryDx=0;entryDy=0;" parent="1" source="F3-XCCk3jJO-Y-EAtxu9-1" target="F3-XCCk3jJO-Y-EAtxu9-2" edge="1">
          <mxGeometry relative="1" as="geometry" />
        </mxCell>
        <mxCell id="F3-XCCk3jJO-Y-EAtxu9-12" style="edgeStyle=orthogonalEdgeStyle;rounded=0;orthogonalLoop=1;jettySize=auto;html=1;exitX=1;exitY=0.5;exitDx=0;exitDy=0;entryX=0.5;entryY=0;entryDx=0;entryDy=0;" parent="1" source="F3-XCCk3jJO-Y-EAtxu9-1" target="F3-XCCk3jJO-Y-EAtxu9-3" edge="1">
          <mxGeometry relative="1" as="geometry" />
        </mxCell>
        <mxCell id="F3-XCCk3jJO-Y-EAtxu9-1" value="if len(i) &amp;lt;= 2" style="rhombus;whiteSpace=wrap;html=1;" parent="1" vertex="1">
          <mxGeometry x="90" y="330" width="80" height="80" as="geometry" />
        </mxCell>
        <mxCell id="F3-XCCk3jJO-Y-EAtxu9-13" style="edgeStyle=orthogonalEdgeStyle;rounded=0;orthogonalLoop=1;jettySize=auto;html=1;exitX=0.5;exitY=1;exitDx=0;exitDy=0;entryX=0.5;entryY=0;entryDx=0;entryDy=0;" parent="1" source="F3-XCCk3jJO-Y-EAtxu9-2" target="F3-XCCk3jJO-Y-EAtxu9-4" edge="1">
          <mxGeometry relative="1" as="geometry" />
        </mxCell>
        <mxCell id="F3-XCCk3jJO-Y-EAtxu9-2" value="print(i, end=&#39; &#39;)" style="shape=parallelogram;perimeter=parallelogramPerimeter;whiteSpace=wrap;html=1;fixedSize=1;" parent="1" vertex="1">
          <mxGeometry x="55" y="430" width="150" height="40" as="geometry" />
        </mxCell>
        <mxCell id="F3-XCCk3jJO-Y-EAtxu9-14" style="edgeStyle=orthogonalEdgeStyle;rounded=0;orthogonalLoop=1;jettySize=auto;html=1;exitX=0.5;exitY=1;exitDx=0;exitDy=0;entryX=1;entryY=0.5;entryDx=0;entryDy=0;" parent="1" source="F3-XCCk3jJO-Y-EAtxu9-3" target="F3-XCCk3jJO-Y-EAtxu9-4" edge="1">
          <mxGeometry relative="1" as="geometry" />
        </mxCell>
        <mxCell id="F3-XCCk3jJO-Y-EAtxu9-3" value="print(i[0] + str(len(i) - 2) + i[-1], end=&quot; &quot;)" style="shape=parallelogram;perimeter=parallelogramPerimeter;whiteSpace=wrap;html=1;fixedSize=1;" parent="1" vertex="1">
          <mxGeometry x="210" y="410" width="250" height="70" as="geometry" />
        </mxCell>
        <mxCell id="F3-XCCk3jJO-Y-EAtxu9-4" value="End" style="ellipse;whiteSpace=wrap;html=1;" parent="1" vertex="1">
          <mxGeometry x="90" y="510" width="80" height="40" as="geometry" />
        </mxCell>
        <mxCell id="F3-XCCk3jJO-Y-EAtxu9-15" value="yes" style="text;html=1;align=center;verticalAlign=middle;resizable=0;points=[];autosize=1;strokeColor=none;fillColor=none;" parent="1" vertex="1">
          <mxGeometry x="85" y="310" width="40" height="30" as="geometry" />
        </mxCell>
        <mxCell id="F3-XCCk3jJO-Y-EAtxu9-16" value="yes" style="text;html=1;align=center;verticalAlign=middle;resizable=0;points=[];autosize=1;strokeColor=none;fillColor=none;" parent="1" vertex="1">
          <mxGeometry x="90" y="410" width="40" height="30" as="geometry" />
        </mxCell>
        <mxCell id="F3-XCCk3jJO-Y-EAtxu9-17" value="no" style="text;html=1;align=center;verticalAlign=middle;resizable=0;points=[];autosize=1;strokeColor=none;fillColor=none;" parent="1" vertex="1">
          <mxGeometry x="220" y="335" width="40" height="30" as="geometry" />
        </mxCell>
        <mxCell id="F3-XCCk3jJO-Y-EAtxu9-19" value="no" style="text;html=1;align=center;verticalAlign=middle;resizable=0;points=[];autosize=1;strokeColor=none;fillColor=none;" parent="1" vertex="1">
          <mxGeometry x="20" y="355" width="40" height="30" as="geometry" />
        </mxCell>
      </root>
    </mxGraphModel>
  </diagram>
  <diagram name="quiz2" id="74e2e168-ea6b-b213-b513-2b3c1d86103e">
    <mxGraphModel dx="336" dy="702" grid="1" gridSize="10" guides="1" tooltips="1" connect="1" arrows="1" fold="1" page="1" pageScale="1" pageWidth="1100" pageHeight="850" background="none" math="0" shadow="0">
      <root>
        <mxCell id="0" />
        <mxCell id="1" parent="0" />
        <mxCell id="z9ulSsU820yO5NToJ0LA-10" style="edgeStyle=orthogonalEdgeStyle;rounded=0;orthogonalLoop=1;jettySize=auto;html=1;exitX=0.5;exitY=0.5;exitDx=0;exitDy=15;exitPerimeter=0;entryX=0.5;entryY=0;entryDx=0;entryDy=0;" parent="1" source="z9ulSsU820yO5NToJ0LA-2" target="z9ulSsU820yO5NToJ0LA-4" edge="1">
          <mxGeometry relative="1" as="geometry" />
        </mxCell>
        <mxCell id="z9ulSsU820yO5NToJ0LA-2" value="Start" style="html=1;dashed=0;whitespace=wrap;shape=mxgraph.dfd.start" parent="1" vertex="1">
          <mxGeometry x="135" y="60" width="80" height="30" as="geometry" />
        </mxCell>
        <mxCell id="z9ulSsU820yO5NToJ0LA-3" value="End" style="html=1;dashed=0;whitespace=wrap;shape=mxgraph.dfd.start" parent="1" vertex="1">
          <mxGeometry x="130" y="730" width="80" height="30" as="geometry" />
        </mxCell>
        <mxCell id="z9ulSsU820yO5NToJ0LA-11" style="edgeStyle=orthogonalEdgeStyle;rounded=0;orthogonalLoop=1;jettySize=auto;html=1;exitX=0.5;exitY=1;exitDx=0;exitDy=0;entryX=0.5;entryY=0;entryDx=0;entryDy=0;" parent="1" source="z9ulSsU820yO5NToJ0LA-4" target="z9ulSsU820yO5NToJ0LA-5" edge="1">
          <mxGeometry relative="1" as="geometry" />
        </mxCell>
        <mxCell id="z9ulSsU820yO5NToJ0LA-4" value="Input&lt;br&gt;list1 &amp;amp; list2 -&amp;nbsp; lists of integers" style="shape=parallelogram;perimeter=parallelogramPerimeter;whiteSpace=wrap;html=1;fixedSize=1;" parent="1" vertex="1">
          <mxGeometry x="100" y="120" width="150" height="60" as="geometry" />
        </mxCell>
        <mxCell id="z9ulSsU820yO5NToJ0LA-12" style="edgeStyle=orthogonalEdgeStyle;rounded=0;orthogonalLoop=1;jettySize=auto;html=1;exitX=0.5;exitY=1;exitDx=0;exitDy=0;" parent="1" source="z9ulSsU820yO5NToJ0LA-5" target="z9ulSsU820yO5NToJ0LA-6" edge="1">
          <mxGeometry relative="1" as="geometry" />
        </mxCell>
        <mxCell id="z9ulSsU820yO5NToJ0LA-5" value="i = 0&lt;br&gt;c = 0" style="rounded=0;whiteSpace=wrap;html=1;" parent="1" vertex="1">
          <mxGeometry x="135" y="200" width="80" height="50" as="geometry" />
        </mxCell>
        <mxCell id="z9ulSsU820yO5NToJ0LA-13" style="edgeStyle=orthogonalEdgeStyle;rounded=0;orthogonalLoop=1;jettySize=auto;html=1;exitX=0.5;exitY=1;exitDx=0;exitDy=0;exitPerimeter=0;entryX=0.5;entryY=0;entryDx=0;entryDy=0;entryPerimeter=0;" parent="1" source="z9ulSsU820yO5NToJ0LA-6" target="z9ulSsU820yO5NToJ0LA-7" edge="1">
          <mxGeometry relative="1" as="geometry" />
        </mxCell>
        <mxCell id="z9ulSsU820yO5NToJ0LA-22" style="edgeStyle=orthogonalEdgeStyle;rounded=0;orthogonalLoop=1;jettySize=auto;html=1;exitX=0;exitY=0.5;exitDx=0;exitDy=0;exitPerimeter=0;entryX=0;entryY=0.5;entryDx=0;entryDy=0;" parent="1" source="z9ulSsU820yO5NToJ0LA-6" target="z9ulSsU820yO5NToJ0LA-26" edge="1">
          <mxGeometry relative="1" as="geometry">
            <mxPoint x="45" y="700" as="targetPoint" />
            <Array as="points">
              <mxPoint x="70" y="335" />
              <mxPoint x="70" y="680" />
            </Array>
          </mxGeometry>
        </mxCell>
        <mxCell id="z9ulSsU820yO5NToJ0LA-6" value="while i &amp;lt; number of &lt;br&gt;elements in list1" style="strokeWidth=2;html=1;shape=mxgraph.flowchart.decision;whiteSpace=wrap;" parent="1" vertex="1">
          <mxGeometry x="90" y="270" width="170" height="130" as="geometry" />
        </mxCell>
        <mxCell id="z9ulSsU820yO5NToJ0LA-14" style="edgeStyle=orthogonalEdgeStyle;rounded=0;orthogonalLoop=1;jettySize=auto;html=1;exitX=0.5;exitY=1;exitDx=0;exitDy=0;exitPerimeter=0;" parent="1" source="z9ulSsU820yO5NToJ0LA-7" target="z9ulSsU820yO5NToJ0LA-8" edge="1">
          <mxGeometry relative="1" as="geometry" />
        </mxCell>
        <mxCell id="z9ulSsU820yO5NToJ0LA-18" style="edgeStyle=orthogonalEdgeStyle;rounded=0;orthogonalLoop=1;jettySize=auto;html=1;exitX=1;exitY=0.5;exitDx=0;exitDy=0;exitPerimeter=0;entryX=0;entryY=0.5;entryDx=0;entryDy=0;entryPerimeter=0;" parent="1" source="z9ulSsU820yO5NToJ0LA-7" target="z9ulSsU820yO5NToJ0LA-17" edge="1">
          <mxGeometry relative="1" as="geometry" />
        </mxCell>
        <mxCell id="z9ulSsU820yO5NToJ0LA-7" value="if the &lt;b&gt;i&lt;/b&gt;&lt;sup style=&quot;font-weight: bold;&quot;&gt;th&lt;/sup&gt;&amp;nbsp;element of &lt;br&gt;list1 and list2 added ==20" style="strokeWidth=2;html=1;shape=mxgraph.flowchart.decision;whiteSpace=wrap;" parent="1" vertex="1">
          <mxGeometry x="90" y="415" width="170" height="130" as="geometry" />
        </mxCell>
        <mxCell id="z9ulSsU820yO5NToJ0LA-21" style="edgeStyle=orthogonalEdgeStyle;rounded=0;orthogonalLoop=1;jettySize=auto;html=1;exitX=0.5;exitY=1;exitDx=0;exitDy=0;entryX=0.5;entryY=0;entryDx=0;entryDy=0;" parent="1" source="z9ulSsU820yO5NToJ0LA-8" target="z9ulSsU820yO5NToJ0LA-20" edge="1">
          <mxGeometry relative="1" as="geometry" />
        </mxCell>
        <mxCell id="z9ulSsU820yO5NToJ0LA-8" value="c+=1" style="rounded=0;whiteSpace=wrap;html=1;" parent="1" vertex="1">
          <mxGeometry x="150" y="560" width="50" height="30" as="geometry" />
        </mxCell>
        <mxCell id="z9ulSsU820yO5NToJ0LA-15" value="yes" style="text;html=1;strokeColor=none;fillColor=none;align=center;verticalAlign=middle;whiteSpace=wrap;rounded=0;" parent="1" vertex="1">
          <mxGeometry x="115" y="530" width="60" height="30" as="geometry" />
        </mxCell>
        <mxCell id="z9ulSsU820yO5NToJ0LA-16" value="no;&lt;br&gt;else" style="text;html=1;strokeColor=none;fillColor=none;align=center;verticalAlign=middle;whiteSpace=wrap;rounded=0;" parent="1" vertex="1">
          <mxGeometry x="245" y="450" width="60" height="30" as="geometry" />
        </mxCell>
        <mxCell id="z9ulSsU820yO5NToJ0LA-19" style="edgeStyle=orthogonalEdgeStyle;rounded=0;orthogonalLoop=1;jettySize=auto;html=1;exitX=0.5;exitY=1;exitDx=0;exitDy=0;exitPerimeter=0;entryX=1;entryY=0.5;entryDx=0;entryDy=0;" parent="1" source="z9ulSsU820yO5NToJ0LA-17" target="z9ulSsU820yO5NToJ0LA-8" edge="1">
          <mxGeometry relative="1" as="geometry" />
        </mxCell>
        <mxCell id="z9ulSsU820yO5NToJ0LA-17" value="if the &lt;b&gt;i&lt;/b&gt;&lt;sup style=&quot;font-weight: bold;&quot;&gt;th&lt;/sup&gt;&amp;nbsp;element of &lt;br&gt;list1 OR list2 ==20" style="strokeWidth=2;html=1;shape=mxgraph.flowchart.decision;whiteSpace=wrap;" parent="1" vertex="1">
          <mxGeometry x="295" y="415" width="170" height="130" as="geometry" />
        </mxCell>
        <mxCell id="z9ulSsU820yO5NToJ0LA-29" style="edgeStyle=orthogonalEdgeStyle;rounded=0;orthogonalLoop=1;jettySize=auto;html=1;exitX=0.5;exitY=1;exitDx=0;exitDy=0;" parent="1" source="z9ulSsU820yO5NToJ0LA-20" target="z9ulSsU820yO5NToJ0LA-26" edge="1">
          <mxGeometry relative="1" as="geometry" />
        </mxCell>
        <mxCell id="z9ulSsU820yO5NToJ0LA-20" value="i+=1" style="rounded=0;whiteSpace=wrap;html=1;" parent="1" vertex="1">
          <mxGeometry x="150" y="600" width="50" height="30" as="geometry" />
        </mxCell>
        <mxCell id="z9ulSsU820yO5NToJ0LA-23" value="yes" style="text;html=1;align=center;verticalAlign=middle;resizable=0;points=[];autosize=1;strokeColor=none;fillColor=none;" parent="1" vertex="1">
          <mxGeometry x="175" y="395" width="40" height="30" as="geometry" />
        </mxCell>
        <mxCell id="z9ulSsU820yO5NToJ0LA-24" value="no" style="text;html=1;align=center;verticalAlign=middle;resizable=0;points=[];autosize=1;strokeColor=none;fillColor=none;" parent="1" vertex="1">
          <mxGeometry x="50" y="310" width="40" height="30" as="geometry" />
        </mxCell>
        <mxCell id="z9ulSsU820yO5NToJ0LA-27" style="edgeStyle=orthogonalEdgeStyle;rounded=0;orthogonalLoop=1;jettySize=auto;html=1;exitX=0.5;exitY=1;exitDx=0;exitDy=0;entryX=0.5;entryY=0.5;entryDx=0;entryDy=-15;entryPerimeter=0;" parent="1" source="z9ulSsU820yO5NToJ0LA-26" edge="1">
          <mxGeometry relative="1" as="geometry">
            <mxPoint x="170" y="730" as="targetPoint" />
          </mxGeometry>
        </mxCell>
        <mxCell id="z9ulSsU820yO5NToJ0LA-26" value="Output&lt;br&gt;bool(c)" style="shape=parallelogram;perimeter=parallelogramPerimeter;whiteSpace=wrap;html=1;fixedSize=1;" parent="1" vertex="1">
          <mxGeometry x="130" y="650" width="90" height="60" as="geometry" />
        </mxCell>
        <mxCell id="z9ulSsU820yO5NToJ0LA-28" value="yes" style="text;html=1;strokeColor=none;fillColor=none;align=center;verticalAlign=middle;whiteSpace=wrap;rounded=0;" parent="1" vertex="1">
          <mxGeometry x="315" y="545" width="60" height="30" as="geometry" />
        </mxCell>
      </root>
    </mxGraphModel>
  </diagram>
  <diagram id="Uz2TAcOHugVUe4UUZQzR" name="quiz3">
    <mxGraphModel dx="336" dy="702" grid="1" gridSize="10" guides="1" tooltips="1" connect="1" arrows="1" fold="1" page="1" pageScale="1" pageWidth="850" pageHeight="1100" math="0" shadow="0">
      <root>
        <mxCell id="0" />
        <mxCell id="1" parent="0" />
        <mxCell id="KKivKz-oS2kav16i3tik-14" style="edgeStyle=orthogonalEdgeStyle;rounded=0;orthogonalLoop=1;jettySize=auto;html=1;exitX=0.5;exitY=0.5;exitDx=0;exitDy=20;exitPerimeter=0;entryX=0.5;entryY=0;entryDx=0;entryDy=0;fontSize=15;" parent="1" source="NlzBJyHx4U9flQ2UjjHl-1" target="NlzBJyHx4U9flQ2UjjHl-3" edge="1">
          <mxGeometry relative="1" as="geometry" />
        </mxCell>
        <mxCell id="NlzBJyHx4U9flQ2UjjHl-1" value="&lt;font style=&quot;font-size: 15px;&quot;&gt;Start&lt;/font&gt;" style="html=1;dashed=0;whitespace=wrap;shape=mxgraph.dfd.start;fontSize=15;" parent="1" vertex="1">
          <mxGeometry x="135" y="60" width="85" height="40" as="geometry" />
        </mxCell>
        <mxCell id="NlzBJyHx4U9flQ2UjjHl-2" value="&lt;font style=&quot;font-size: 15px;&quot;&gt;End&lt;/font&gt;" style="html=1;dashed=0;whitespace=wrap;shape=mxgraph.dfd.start;fontSize=15;" parent="1" vertex="1">
          <mxGeometry x="140" y="990" width="85" height="40" as="geometry" />
        </mxCell>
        <mxCell id="KKivKz-oS2kav16i3tik-15" style="edgeStyle=orthogonalEdgeStyle;rounded=0;orthogonalLoop=1;jettySize=auto;html=1;exitX=0.5;exitY=1;exitDx=0;exitDy=0;entryX=0.5;entryY=0;entryDx=0;entryDy=0;fontSize=15;" parent="1" source="NlzBJyHx4U9flQ2UjjHl-3" target="KKivKz-oS2kav16i3tik-1" edge="1">
          <mxGeometry relative="1" as="geometry" />
        </mxCell>
        <mxCell id="NlzBJyHx4U9flQ2UjjHl-3" value="array of dna bases&amp;nbsp;&lt;br&gt;dna = [&#39;&#39;,&#39;A&#39;, &#39;C&#39;, &#39;G&#39;. &#39;T&#39; ]" style="rounded=0;whiteSpace=wrap;html=1;fontSize=15;" parent="1" vertex="1">
          <mxGeometry x="87.5" y="130" width="180" height="50" as="geometry" />
        </mxCell>
        <mxCell id="KKivKz-oS2kav16i3tik-16" style="edgeStyle=orthogonalEdgeStyle;rounded=0;orthogonalLoop=1;jettySize=auto;html=1;exitX=0.5;exitY=1;exitDx=0;exitDy=0;fontSize=15;" parent="1" source="KKivKz-oS2kav16i3tik-1" target="KKivKz-oS2kav16i3tik-2" edge="1">
          <mxGeometry relative="1" as="geometry" />
        </mxCell>
        <mxCell id="KKivKz-oS2kav16i3tik-1" value="Input&amp;nbsp;&lt;br&gt;string in variable a" style="shape=parallelogram;perimeter=parallelogramPerimeter;whiteSpace=wrap;html=1;fixedSize=1;fontSize=15;" parent="1" vertex="1">
          <mxGeometry x="97.5" y="200" width="160" height="60" as="geometry" />
        </mxCell>
        <mxCell id="KKivKz-oS2kav16i3tik-17" style="edgeStyle=orthogonalEdgeStyle;rounded=0;orthogonalLoop=1;jettySize=auto;html=1;exitX=0.5;exitY=1;exitDx=0;exitDy=0;entryX=0.5;entryY=0;entryDx=0;entryDy=0;fontSize=15;" parent="1" source="KKivKz-oS2kav16i3tik-2" target="KKivKz-oS2kav16i3tik-5" edge="1">
          <mxGeometry relative="1" as="geometry" />
        </mxCell>
        <mxCell id="KKivKz-oS2kav16i3tik-2" value="i,j,output = &#39; &#39;, 0, &#39; &#39;" style="rounded=0;whiteSpace=wrap;html=1;fontSize=15;" parent="1" vertex="1">
          <mxGeometry x="87.5" y="280" width="180" height="50" as="geometry" />
        </mxCell>
        <mxCell id="KKivKz-oS2kav16i3tik-18" style="edgeStyle=orthogonalEdgeStyle;rounded=0;orthogonalLoop=1;jettySize=auto;html=1;exitX=0.5;exitY=1;exitDx=0;exitDy=0;fontSize=15;" parent="1" source="KKivKz-oS2kav16i3tik-5" target="KKivKz-oS2kav16i3tik-6" edge="1">
          <mxGeometry relative="1" as="geometry" />
        </mxCell>
        <mxCell id="o0WytpANQqHlX8jKxd_G-2" style="edgeStyle=orthogonalEdgeStyle;rounded=0;orthogonalLoop=1;jettySize=auto;html=1;exitX=1;exitY=0.5;exitDx=0;exitDy=0;entryX=1;entryY=0.5;entryDx=0;entryDy=0;" parent="1" source="KKivKz-oS2kav16i3tik-5" target="KKivKz-oS2kav16i3tik-8" edge="1">
          <mxGeometry relative="1" as="geometry">
            <mxPoint x="370" y="930" as="targetPoint" />
            <Array as="points">
              <mxPoint x="340" y="375" />
              <mxPoint x="340" y="930" />
            </Array>
          </mxGeometry>
        </mxCell>
        <mxCell id="KKivKz-oS2kav16i3tik-5" value="for i in a" style="shape=hexagon;perimeter=hexagonPerimeter2;whiteSpace=wrap;html=1;fixedSize=1;fontSize=15;" parent="1" vertex="1">
          <mxGeometry x="132.5" y="350" width="90" height="50" as="geometry" />
        </mxCell>
        <mxCell id="KKivKz-oS2kav16i3tik-19" style="edgeStyle=orthogonalEdgeStyle;rounded=0;orthogonalLoop=1;jettySize=auto;html=1;exitX=0.5;exitY=1;exitDx=0;exitDy=0;entryX=0.5;entryY=0;entryDx=0;entryDy=0;fontSize=15;" parent="1" source="KKivKz-oS2kav16i3tik-6" target="KKivKz-oS2kav16i3tik-7" edge="1">
          <mxGeometry relative="1" as="geometry" />
        </mxCell>
        <mxCell id="KKivKz-oS2kav16i3tik-31" style="edgeStyle=orthogonalEdgeStyle;rounded=0;orthogonalLoop=1;jettySize=auto;html=1;exitX=0;exitY=0;exitDx=0;exitDy=0;entryX=0;entryY=0.5;entryDx=0;entryDy=0;fontSize=15;" parent="1" source="KKivKz-oS2kav16i3tik-6" target="KKivKz-oS2kav16i3tik-21" edge="1">
          <mxGeometry relative="1" as="geometry">
            <Array as="points">
              <mxPoint x="60" y="440" />
              <mxPoint x="60" y="840" />
            </Array>
          </mxGeometry>
        </mxCell>
        <mxCell id="KKivKz-oS2kav16i3tik-6" value="while j&amp;lt;5" style="rhombus;whiteSpace=wrap;html=1;fontSize=15;" parent="1" vertex="1">
          <mxGeometry x="137.5" y="420" width="80" height="80" as="geometry" />
        </mxCell>
        <mxCell id="KKivKz-oS2kav16i3tik-23" style="edgeStyle=orthogonalEdgeStyle;rounded=0;orthogonalLoop=1;jettySize=auto;html=1;exitX=0.5;exitY=1;exitDx=0;exitDy=0;fontSize=15;" parent="1" source="KKivKz-oS2kav16i3tik-7" target="KKivKz-oS2kav16i3tik-12" edge="1">
          <mxGeometry relative="1" as="geometry" />
        </mxCell>
        <mxCell id="KKivKz-oS2kav16i3tik-26" style="edgeStyle=orthogonalEdgeStyle;rounded=0;orthogonalLoop=1;jettySize=auto;html=1;exitX=1;exitY=0.5;exitDx=0;exitDy=0;entryX=1;entryY=0.5;entryDx=0;entryDy=0;fontSize=15;" parent="1" source="KKivKz-oS2kav16i3tik-7" target="KKivKz-oS2kav16i3tik-24" edge="1">
          <mxGeometry relative="1" as="geometry" />
        </mxCell>
        <mxCell id="KKivKz-oS2kav16i3tik-7" value="&lt;pre style=&quot;box-sizing: border-box; font-family: ui-monospace, SFMono-Regular, &amp;quot;SF Mono&amp;quot;, Menlo, Consolas, &amp;quot;Liberation Mono&amp;quot;, monospace; font-size: 13.6px; margin-top: 0px; margin-bottom: 16px; overflow-wrap: normal; padding: 16px; overflow: auto; line-height: 1.45; background-color: var(--color-canvas-subtle); border-radius: 6px; color: rgb(36, 41, 47); text-align: start;&quot; class=&quot;notranslate&quot;&gt;&lt;code style=&quot;box-sizing: border-box; font-family: ui-monospace, SFMono-Regular, &amp;quot;SF Mono&amp;quot;, Menlo, Consolas, &amp;quot;Liberation Mono&amp;quot;, monospace; padding: 0px; margin: 0px; background: transparent; border-radius: 6px; word-break: normal; border: 0px; display: inline; overflow: visible; line-height: inherit; overflow-wrap: normal;&quot;&gt;i == dna[j]&lt;/code&gt;&lt;/pre&gt;" style="rhombus;whiteSpace=wrap;html=1;fontSize=15;" parent="1" vertex="1">
          <mxGeometry x="91.25" y="510" width="172.5" height="120" as="geometry" />
        </mxCell>
        <mxCell id="KKivKz-oS2kav16i3tik-34" style="edgeStyle=orthogonalEdgeStyle;rounded=0;orthogonalLoop=1;jettySize=auto;html=1;exitX=0.5;exitY=1;exitDx=0;exitDy=0;entryX=0.5;entryY=0.5;entryDx=0;entryDy=-20;entryPerimeter=0;fontSize=15;" parent="1" source="KKivKz-oS2kav16i3tik-8" target="NlzBJyHx4U9flQ2UjjHl-2" edge="1">
          <mxGeometry relative="1" as="geometry" />
        </mxCell>
        <mxCell id="KKivKz-oS2kav16i3tik-8" value="Output&amp;nbsp;&lt;br&gt;output" style="shape=parallelogram;perimeter=parallelogramPerimeter;whiteSpace=wrap;html=1;fixedSize=1;fontSize=15;" parent="1" vertex="1">
          <mxGeometry x="102.5" y="900" width="160" height="60" as="geometry" />
        </mxCell>
        <mxCell id="KKivKz-oS2kav16i3tik-10" style="edgeStyle=orthogonalEdgeStyle;rounded=0;orthogonalLoop=1;jettySize=auto;html=1;exitX=0.5;exitY=1;exitDx=0;exitDy=0;fontSize=15;" parent="1" source="KKivKz-oS2kav16i3tik-8" target="KKivKz-oS2kav16i3tik-8" edge="1">
          <mxGeometry relative="1" as="geometry" />
        </mxCell>
        <mxCell id="KKivKz-oS2kav16i3tik-29" style="edgeStyle=orthogonalEdgeStyle;rounded=0;orthogonalLoop=1;jettySize=auto;html=1;exitX=0.5;exitY=1;exitDx=0;exitDy=0;entryX=0.5;entryY=0;entryDx=0;entryDy=0;fontSize=15;" parent="1" source="KKivKz-oS2kav16i3tik-12" target="KKivKz-oS2kav16i3tik-24" edge="1">
          <mxGeometry relative="1" as="geometry" />
        </mxCell>
        <mxCell id="KKivKz-oS2kav16i3tik-12" value="&lt;pre style=&quot;box-sizing: border-box; font-family: ui-monospace, SFMono-Regular, &amp;quot;SF Mono&amp;quot;, Menlo, Consolas, &amp;quot;Liberation Mono&amp;quot;, monospace; font-size: 13.6px; margin-top: 0px; margin-bottom: 16px; overflow-wrap: normal; padding: 16px; overflow: auto; line-height: 1.45; background-color: var(--color-canvas-subtle); border-radius: 6px; color: rgb(36, 41, 47); text-align: start;&quot; class=&quot;notranslate&quot;&gt;output+=dna[j*-1]&lt;/pre&gt;" style="rounded=0;whiteSpace=wrap;html=1;fontSize=15;" parent="1" vertex="1">
          <mxGeometry x="106.25" y="650" width="142.5" height="60" as="geometry" />
        </mxCell>
        <mxCell id="KKivKz-oS2kav16i3tik-33" style="edgeStyle=orthogonalEdgeStyle;rounded=0;orthogonalLoop=1;jettySize=auto;html=1;exitX=0.5;exitY=1;exitDx=0;exitDy=0;entryX=0.5;entryY=0;entryDx=0;entryDy=0;fontSize=15;" parent="1" source="KKivKz-oS2kav16i3tik-21" target="KKivKz-oS2kav16i3tik-8" edge="1">
          <mxGeometry relative="1" as="geometry" />
        </mxCell>
        <mxCell id="KKivKz-oS2kav16i3tik-21" value="&lt;span style=&quot;color: rgb(0, 0, 0); font-family: Helvetica; font-size: 15px; font-style: normal; font-variant-ligatures: normal; font-variant-caps: normal; font-weight: 400; letter-spacing: normal; orphans: 2; text-align: center; text-indent: 0px; text-transform: none; widows: 2; word-spacing: 0px; -webkit-text-stroke-width: 0px; background-color: rgb(248, 249, 250); text-decoration-thickness: initial; text-decoration-style: initial; text-decoration-color: initial; float: none; display: inline !important;&quot;&gt;j=0&lt;/span&gt;" style="rounded=0;whiteSpace=wrap;html=1;fontSize=15;" parent="1" vertex="1">
          <mxGeometry x="137.5" y="810" width="90" height="60" as="geometry" />
        </mxCell>
        <mxCell id="KKivKz-oS2kav16i3tik-40" style="edgeStyle=orthogonalEdgeStyle;rounded=0;orthogonalLoop=1;jettySize=auto;html=1;exitX=0;exitY=0.5;exitDx=0;exitDy=0;entryX=0;entryY=0.5;entryDx=0;entryDy=0;fontSize=15;" parent="1" source="KKivKz-oS2kav16i3tik-24" target="KKivKz-oS2kav16i3tik-6" edge="1">
          <mxGeometry relative="1" as="geometry">
            <Array as="points">
              <mxPoint x="80" y="760" />
              <mxPoint x="80" y="460" />
            </Array>
          </mxGeometry>
        </mxCell>
        <mxCell id="KKivKz-oS2kav16i3tik-24" value="j+=1" style="rounded=0;whiteSpace=wrap;html=1;fontSize=15;" parent="1" vertex="1">
          <mxGeometry x="141.25" y="730" width="72.5" height="60" as="geometry" />
        </mxCell>
        <mxCell id="KKivKz-oS2kav16i3tik-35" value="yes" style="text;html=1;align=center;verticalAlign=middle;resizable=0;points=[];autosize=1;strokeColor=none;fillColor=none;fontSize=15;" parent="1" vertex="1">
          <mxGeometry x="177.5" y="490" width="50" height="30" as="geometry" />
        </mxCell>
        <mxCell id="KKivKz-oS2kav16i3tik-36" value="no" style="text;html=1;align=center;verticalAlign=middle;resizable=0;points=[];autosize=1;strokeColor=none;fillColor=none;fontSize=15;" parent="1" vertex="1">
          <mxGeometry x="87.5" y="420" width="40" height="30" as="geometry" />
        </mxCell>
        <mxCell id="KKivKz-oS2kav16i3tik-37" value="yes" style="text;html=1;align=center;verticalAlign=middle;resizable=0;points=[];autosize=1;strokeColor=none;fillColor=none;fontSize=15;" parent="1" vertex="1">
          <mxGeometry x="175" y="620" width="50" height="30" as="geometry" />
        </mxCell>
        <mxCell id="KKivKz-oS2kav16i3tik-38" value="no" style="text;html=1;align=center;verticalAlign=middle;resizable=0;points=[];autosize=1;strokeColor=none;fillColor=none;fontSize=15;" parent="1" vertex="1">
          <mxGeometry x="280" y="655" width="40" height="30" as="geometry" />
        </mxCell>
        <mxCell id="o0WytpANQqHlX8jKxd_G-1" value="yes" style="text;html=1;align=center;verticalAlign=middle;resizable=0;points=[];autosize=1;strokeColor=none;fillColor=none;" parent="1" vertex="1">
          <mxGeometry x="177.5" y="400" width="40" height="30" as="geometry" />
        </mxCell>
        <mxCell id="o0WytpANQqHlX8jKxd_G-3" value="no" style="text;html=1;align=center;verticalAlign=middle;resizable=0;points=[];autosize=1;strokeColor=none;fillColor=none;" parent="1" vertex="1">
          <mxGeometry x="300" y="350" width="40" height="30" as="geometry" />
        </mxCell>
      </root>
    </mxGraphModel>
  </diagram>
  <diagram id="zPKNNTsfgnSdbKBt7uHm" name="quiz 4">
    <mxGraphModel dx="1186" dy="702" grid="1" gridSize="10" guides="1" tooltips="1" connect="1" arrows="1" fold="1" page="1" pageScale="1" pageWidth="850" pageHeight="1100" math="0" shadow="0">
      <root>
        <mxCell id="0" />
        <mxCell id="1" parent="0" />
        <mxCell id="tkQp0EBulGrF1BbszhXo-1" value="&lt;meta charset=&quot;utf-8&quot;&gt;&lt;b id=&quot;docs-internal-guid-ebeff4c0-7fff-47d6-838d-a17aa064cc8b&quot; style=&quot;font-weight:normal;&quot;&gt;&lt;img src=&quot;https://lh6.googleusercontent.com/gPZBK8HbER9YaFGZQJkgkpr_jSptn0KLdvHW2RVOZZnIXvhCxBp4zkkmeLBRuIIXGNG0blQR2sjmry-PqATjn6BRIpvE59yshSqThmsAHuODhxYHHyqVVvprVYMYtFVLu2Mz0mDK2e5_DsyLIy9LUuk4TDO-7gbhVDWBfM0cwBOd21VcsKaACGez_8kb&quot; height=&quot;472px;&quot; width=&quot;348px;&quot;&gt;&lt;/b&gt;" style="text;whiteSpace=wrap;html=1;" parent="1" vertex="1">
          <mxGeometry x="-10" y="60" width="470" height="560" as="geometry" />
        </mxCell>
        <mxCell id="tkQp0EBulGrF1BbszhXo-13" style="edgeStyle=orthogonalEdgeStyle;rounded=0;orthogonalLoop=1;jettySize=auto;html=1;exitX=0.5;exitY=1;exitDx=0;exitDy=0;entryX=0.5;entryY=0;entryDx=0;entryDy=0;" parent="1" source="tkQp0EBulGrF1BbszhXo-3" edge="1">
          <mxGeometry relative="1" as="geometry">
            <mxPoint x="640" y="110" as="targetPoint" />
          </mxGeometry>
        </mxCell>
        <mxCell id="tkQp0EBulGrF1BbszhXo-3" value="Start" style="ellipse;whiteSpace=wrap;html=1;" parent="1" vertex="1">
          <mxGeometry x="600" y="60" width="80" height="30" as="geometry" />
        </mxCell>
        <mxCell id="tkQp0EBulGrF1BbszhXo-16" style="edgeStyle=orthogonalEdgeStyle;rounded=0;orthogonalLoop=1;jettySize=auto;html=1;exitX=0.5;exitY=1;exitDx=0;exitDy=0;entryX=0.5;entryY=0;entryDx=0;entryDy=0;" parent="1" target="tkQp0EBulGrF1BbszhXo-5" edge="1">
          <mxGeometry relative="1" as="geometry">
            <mxPoint x="640" y="140" as="sourcePoint" />
          </mxGeometry>
        </mxCell>
        <mxCell id="tkQp0EBulGrF1BbszhXo-17" style="edgeStyle=orthogonalEdgeStyle;rounded=0;orthogonalLoop=1;jettySize=auto;html=1;exitX=0.5;exitY=1;exitDx=0;exitDy=0;entryX=0.5;entryY=0;entryDx=0;entryDy=0;" parent="1" source="tkQp0EBulGrF1BbszhXo-5" target="tkQp0EBulGrF1BbszhXo-7" edge="1">
          <mxGeometry relative="1" as="geometry" />
        </mxCell>
        <mxCell id="tkQp0EBulGrF1BbszhXo-5" value="d_1 = num_1%10&lt;br&gt;num_2 = int(num_1/10)&lt;br&gt;d_2 = num_2 % 10" style="rounded=0;whiteSpace=wrap;html=1;" parent="1" vertex="1">
          <mxGeometry x="570" y="160" width="140" height="70" as="geometry" />
        </mxCell>
        <mxCell id="tkQp0EBulGrF1BbszhXo-20" style="edgeStyle=orthogonalEdgeStyle;rounded=0;orthogonalLoop=1;jettySize=auto;html=1;exitX=0;exitY=0.5;exitDx=0;exitDy=0;entryX=0.432;entryY=0.013;entryDx=0;entryDy=0;entryPerimeter=0;" parent="1" source="tkQp0EBulGrF1BbszhXo-7" target="tkQp0EBulGrF1BbszhXo-9" edge="1">
          <mxGeometry relative="1" as="geometry" />
        </mxCell>
        <mxCell id="tkQp0EBulGrF1BbszhXo-21" style="edgeStyle=orthogonalEdgeStyle;rounded=0;orthogonalLoop=1;jettySize=auto;html=1;exitX=1;exitY=0.5;exitDx=0;exitDy=0;entryX=0.654;entryY=-0.027;entryDx=0;entryDy=0;entryPerimeter=0;" parent="1" source="tkQp0EBulGrF1BbszhXo-7" target="tkQp0EBulGrF1BbszhXo-11" edge="1">
          <mxGeometry relative="1" as="geometry" />
        </mxCell>
        <mxCell id="tkQp0EBulGrF1BbszhXo-7" value="if&lt;br&gt;num_1 != d_1 + d_2" style="rhombus;whiteSpace=wrap;html=1;" parent="1" vertex="1">
          <mxGeometry x="570" y="250" width="140" height="110" as="geometry" />
        </mxCell>
        <mxCell id="tkQp0EBulGrF1BbszhXo-8" value="End" style="ellipse;whiteSpace=wrap;html=1;" parent="1" vertex="1">
          <mxGeometry x="600" y="480" width="80" height="30" as="geometry" />
        </mxCell>
        <mxCell id="tkQp0EBulGrF1BbszhXo-18" style="edgeStyle=orthogonalEdgeStyle;rounded=0;orthogonalLoop=1;jettySize=auto;html=1;exitX=0.5;exitY=1;exitDx=0;exitDy=0;entryX=0.5;entryY=0;entryDx=0;entryDy=0;" parent="1" source="tkQp0EBulGrF1BbszhXo-9" target="tkQp0EBulGrF1BbszhXo-8" edge="1">
          <mxGeometry relative="1" as="geometry" />
        </mxCell>
        <mxCell id="tkQp0EBulGrF1BbszhXo-9" value="print(&quot;No Perfect&quot;)" style="shape=parallelogram;perimeter=parallelogramPerimeter;whiteSpace=wrap;html=1;fixedSize=1;" parent="1" vertex="1">
          <mxGeometry x="490" y="370" width="130" height="60" as="geometry" />
        </mxCell>
        <mxCell id="tkQp0EBulGrF1BbszhXo-19" style="edgeStyle=orthogonalEdgeStyle;rounded=0;orthogonalLoop=1;jettySize=auto;html=1;exitX=0.5;exitY=1;exitDx=0;exitDy=0;" parent="1" source="tkQp0EBulGrF1BbszhXo-11" edge="1">
          <mxGeometry relative="1" as="geometry">
            <mxPoint x="640" y="480" as="targetPoint" />
          </mxGeometry>
        </mxCell>
        <mxCell id="tkQp0EBulGrF1BbszhXo-11" value="print(&quot;Perfect&quot;)" style="shape=parallelogram;perimeter=parallelogramPerimeter;whiteSpace=wrap;html=1;fixedSize=1;" parent="1" vertex="1">
          <mxGeometry x="650" y="370" width="130" height="60" as="geometry" />
        </mxCell>
        <mxCell id="tkQp0EBulGrF1BbszhXo-22" value="no" style="text;html=1;align=center;verticalAlign=middle;resizable=0;points=[];autosize=1;strokeColor=none;fillColor=none;" parent="1" vertex="1">
          <mxGeometry x="720" y="280" width="40" height="30" as="geometry" />
        </mxCell>
        <mxCell id="tkQp0EBulGrF1BbszhXo-23" value="yes" style="text;html=1;align=center;verticalAlign=middle;resizable=0;points=[];autosize=1;strokeColor=none;fillColor=none;" parent="1" vertex="1">
          <mxGeometry x="535" y="280" width="40" height="30" as="geometry" />
        </mxCell>
        <mxCell id="tkQp0EBulGrF1BbszhXo-24" value="num_1 = int(input())" style="shape=parallelogram;perimeter=parallelogramPerimeter;whiteSpace=wrap;html=1;fixedSize=1;" parent="1" vertex="1">
          <mxGeometry x="567.5" y="110" width="145" height="30" as="geometry" />
        </mxCell>
      </root>
    </mxGraphModel>
  </diagram>
  <diagram id="V1CNh4_boSd-cwt5FxKp" name="quiz 5">
    <mxGraphModel dx="299" dy="702" grid="1" gridSize="10" guides="1" tooltips="1" connect="1" arrows="1" fold="1" page="1" pageScale="1" pageWidth="850" pageHeight="1100" math="0" shadow="0">
      <root>
        <mxCell id="0" />
        <mxCell id="1" parent="0" />
        <mxCell id="HM0CQUt8WCUSATUrnHNi-6" style="edgeStyle=orthogonalEdgeStyle;rounded=0;orthogonalLoop=1;jettySize=auto;html=1;exitX=0.5;exitY=1;exitDx=0;exitDy=0;entryX=0.5;entryY=0;entryDx=0;entryDy=0;" parent="1" source="cQqgmzZvAu02s7xNLcFr-1" target="cQqgmzZvAu02s7xNLcFr-4" edge="1">
          <mxGeometry relative="1" as="geometry" />
        </mxCell>
        <mxCell id="cQqgmzZvAu02s7xNLcFr-1" value="Start" style="ellipse;whiteSpace=wrap;html=1;" parent="1" vertex="1">
          <mxGeometry x="210" y="50" width="60" height="30" as="geometry" />
        </mxCell>
        <mxCell id="cQqgmzZvAu02s7xNLcFr-2" value="End" style="ellipse;whiteSpace=wrap;html=1;" parent="1" vertex="1">
          <mxGeometry x="210" y="780" width="60" height="30" as="geometry" />
        </mxCell>
        <mxCell id="HM0CQUt8WCUSATUrnHNi-9" style="edgeStyle=orthogonalEdgeStyle;rounded=0;orthogonalLoop=1;jettySize=auto;html=1;exitX=0.5;exitY=1;exitDx=0;exitDy=0;entryX=0.5;entryY=0;entryDx=0;entryDy=0;" parent="1" source="cQqgmzZvAu02s7xNLcFr-3" target="cQqgmzZvAu02s7xNLcFr-7" edge="1">
          <mxGeometry relative="1" as="geometry" />
        </mxCell>
        <mxCell id="cQqgmzZvAu02s7xNLcFr-3" value="Input (int)&lt;br&gt;a" style="shape=parallelogram;perimeter=parallelogramPerimeter;whiteSpace=wrap;html=1;fixedSize=1;" parent="1" vertex="1">
          <mxGeometry x="190" y="160" width="100" height="50" as="geometry" />
        </mxCell>
        <mxCell id="HM0CQUt8WCUSATUrnHNi-7" style="edgeStyle=orthogonalEdgeStyle;rounded=0;orthogonalLoop=1;jettySize=auto;html=1;exitX=0.5;exitY=1;exitDx=0;exitDy=0;entryX=0.5;entryY=0;entryDx=0;entryDy=0;" parent="1" source="cQqgmzZvAu02s7xNLcFr-4" target="cQqgmzZvAu02s7xNLcFr-3" edge="1">
          <mxGeometry relative="1" as="geometry" />
        </mxCell>
        <mxCell id="cQqgmzZvAu02s7xNLcFr-4" value="print(&quot;Enter a number: &quot;, end=&#39;&#39;)" style="shape=parallelogram;perimeter=parallelogramPerimeter;whiteSpace=wrap;html=1;fixedSize=1;" parent="1" vertex="1">
          <mxGeometry x="140" y="90" width="200" height="50" as="geometry" />
        </mxCell>
        <mxCell id="HM0CQUt8WCUSATUrnHNi-10" style="edgeStyle=orthogonalEdgeStyle;rounded=0;orthogonalLoop=1;jettySize=auto;html=1;exitX=0.5;exitY=1;exitDx=0;exitDy=0;entryX=0.5;entryY=0;entryDx=0;entryDy=0;" parent="1" source="cQqgmzZvAu02s7xNLcFr-7" edge="1">
          <mxGeometry relative="1" as="geometry">
            <mxPoint x="240" y="300" as="targetPoint" />
          </mxGeometry>
        </mxCell>
        <mxCell id="cQqgmzZvAu02s7xNLcFr-7" value="sum=0" style="whiteSpace=wrap;html=1;aspect=fixed;" parent="1" vertex="1">
          <mxGeometry x="210" y="230" width="50" height="50" as="geometry" />
        </mxCell>
        <mxCell id="HM0CQUt8WCUSATUrnHNi-11" style="edgeStyle=orthogonalEdgeStyle;rounded=0;orthogonalLoop=1;jettySize=auto;html=1;exitX=0.5;exitY=1;exitDx=0;exitDy=0;entryX=0.5;entryY=0;entryDx=0;entryDy=0;" parent="1" target="HM0CQUt8WCUSATUrnHNi-3" edge="1">
          <mxGeometry relative="1" as="geometry">
            <mxPoint x="240" y="340" as="sourcePoint" />
          </mxGeometry>
        </mxCell>
        <mxCell id="HM0CQUt8WCUSATUrnHNi-12" style="edgeStyle=orthogonalEdgeStyle;rounded=0;orthogonalLoop=1;jettySize=auto;html=1;exitX=0.5;exitY=1;exitDx=0;exitDy=0;entryX=0.5;entryY=0;entryDx=0;entryDy=0;" parent="1" source="HM0CQUt8WCUSATUrnHNi-3" target="HM0CQUt8WCUSATUrnHNi-4" edge="1">
          <mxGeometry relative="1" as="geometry" />
        </mxCell>
        <mxCell id="HM0CQUt8WCUSATUrnHNi-26" style="edgeStyle=orthogonalEdgeStyle;rounded=0;orthogonalLoop=1;jettySize=auto;html=1;exitX=1;exitY=0.5;exitDx=0;exitDy=0;entryX=1;entryY=0.5;entryDx=0;entryDy=0;" parent="1" source="HM0CQUt8WCUSATUrnHNi-3" target="5pUvS0Q_4MI4ZZtTZqTq-1" edge="1">
          <mxGeometry relative="1" as="geometry">
            <mxPoint x="320" y="320" as="targetPoint" />
            <Array as="points">
              <mxPoint x="380" y="400" />
              <mxPoint x="380" y="320" />
            </Array>
          </mxGeometry>
        </mxCell>
        <mxCell id="HM0CQUt8WCUSATUrnHNi-3" value="if a%1 ==0" style="rhombus;whiteSpace=wrap;html=1;" parent="1" vertex="1">
          <mxGeometry x="200" y="360" width="80" height="80" as="geometry" />
        </mxCell>
        <mxCell id="HM0CQUt8WCUSATUrnHNi-13" style="edgeStyle=orthogonalEdgeStyle;rounded=0;orthogonalLoop=1;jettySize=auto;html=1;exitX=0.5;exitY=1;exitDx=0;exitDy=0;entryX=0.5;entryY=0;entryDx=0;entryDy=0;" parent="1" source="HM0CQUt8WCUSATUrnHNi-4" target="HM0CQUt8WCUSATUrnHNi-5" edge="1">
          <mxGeometry relative="1" as="geometry" />
        </mxCell>
        <mxCell id="HM0CQUt8WCUSATUrnHNi-4" value="print(i, &#39; &#39;, end=&#39;&#39;)" style="shape=parallelogram;perimeter=parallelogramPerimeter;whiteSpace=wrap;html=1;fixedSize=1;" parent="1" vertex="1">
          <mxGeometry x="170" y="460" width="140" height="50" as="geometry" />
        </mxCell>
        <mxCell id="HM0CQUt8WCUSATUrnHNi-16" style="edgeStyle=orthogonalEdgeStyle;rounded=0;orthogonalLoop=1;jettySize=auto;html=1;exitX=0;exitY=0.5;exitDx=0;exitDy=0;entryX=0;entryY=0.5;entryDx=0;entryDy=0;" parent="1" source="HM0CQUt8WCUSATUrnHNi-5" edge="1">
          <mxGeometry relative="1" as="geometry">
            <mxPoint x="185" y="320" as="targetPoint" />
            <Array as="points">
              <mxPoint x="150" y="550" />
              <mxPoint x="150" y="320" />
            </Array>
          </mxGeometry>
        </mxCell>
        <mxCell id="HM0CQUt8WCUSATUrnHNi-17" style="edgeStyle=orthogonalEdgeStyle;rounded=0;orthogonalLoop=1;jettySize=auto;html=1;exitX=0.5;exitY=1;exitDx=0;exitDy=0;entryX=0.5;entryY=0;entryDx=0;entryDy=0;" parent="1" source="HM0CQUt8WCUSATUrnHNi-5" target="HM0CQUt8WCUSATUrnHNi-15" edge="1">
          <mxGeometry relative="1" as="geometry" />
        </mxCell>
        <mxCell id="HM0CQUt8WCUSATUrnHNi-5" value="sum+=1" style="rounded=0;whiteSpace=wrap;html=1;" parent="1" vertex="1">
          <mxGeometry x="185" y="530" width="110" height="40" as="geometry" />
        </mxCell>
        <mxCell id="HM0CQUt8WCUSATUrnHNi-14" value="yes" style="text;html=1;align=center;verticalAlign=middle;resizable=0;points=[];autosize=1;strokeColor=none;fillColor=none;" parent="1" vertex="1">
          <mxGeometry x="200" y="430" width="40" height="30" as="geometry" />
        </mxCell>
        <mxCell id="HM0CQUt8WCUSATUrnHNi-19" style="edgeStyle=orthogonalEdgeStyle;rounded=0;orthogonalLoop=1;jettySize=auto;html=1;exitX=0.5;exitY=1;exitDx=0;exitDy=0;" parent="1" source="HM0CQUt8WCUSATUrnHNi-15" target="HM0CQUt8WCUSATUrnHNi-18" edge="1">
          <mxGeometry relative="1" as="geometry" />
        </mxCell>
        <mxCell id="HM0CQUt8WCUSATUrnHNi-23" style="edgeStyle=orthogonalEdgeStyle;rounded=0;orthogonalLoop=1;jettySize=auto;html=1;exitX=1;exitY=0.5;exitDx=0;exitDy=0;entryX=1;entryY=0.5;entryDx=0;entryDy=0;" parent="1" source="HM0CQUt8WCUSATUrnHNi-15" target="cQqgmzZvAu02s7xNLcFr-2" edge="1">
          <mxGeometry relative="1" as="geometry">
            <Array as="points">
              <mxPoint x="330" y="640" />
              <mxPoint x="330" y="795" />
            </Array>
          </mxGeometry>
        </mxCell>
        <mxCell id="HM0CQUt8WCUSATUrnHNi-15" value="if sum==a" style="rhombus;whiteSpace=wrap;html=1;" parent="1" vertex="1">
          <mxGeometry x="200" y="600" width="80" height="80" as="geometry" />
        </mxCell>
        <mxCell id="HM0CQUt8WCUSATUrnHNi-20" style="edgeStyle=orthogonalEdgeStyle;rounded=0;orthogonalLoop=1;jettySize=auto;html=1;exitX=0.5;exitY=1;exitDx=0;exitDy=0;entryX=0.5;entryY=0;entryDx=0;entryDy=0;" parent="1" source="HM0CQUt8WCUSATUrnHNi-18" target="cQqgmzZvAu02s7xNLcFr-2" edge="1">
          <mxGeometry relative="1" as="geometry" />
        </mxCell>
        <mxCell id="HM0CQUt8WCUSATUrnHNi-18" value="print(True)" style="shape=parallelogram;perimeter=parallelogramPerimeter;whiteSpace=wrap;html=1;fixedSize=1;" parent="1" vertex="1">
          <mxGeometry x="185" y="700" width="110" height="50" as="geometry" />
        </mxCell>
        <mxCell id="HM0CQUt8WCUSATUrnHNi-22" value="yes" style="text;html=1;align=center;verticalAlign=middle;resizable=0;points=[];autosize=1;strokeColor=none;fillColor=none;" parent="1" vertex="1">
          <mxGeometry x="200" y="670" width="40" height="30" as="geometry" />
        </mxCell>
        <mxCell id="HM0CQUt8WCUSATUrnHNi-24" value="no" style="text;html=1;align=center;verticalAlign=middle;resizable=0;points=[];autosize=1;strokeColor=none;fillColor=none;" parent="1" vertex="1">
          <mxGeometry x="320" y="695" width="40" height="30" as="geometry" />
        </mxCell>
        <mxCell id="HM0CQUt8WCUSATUrnHNi-27" value="yes" style="text;html=1;align=center;verticalAlign=middle;resizable=0;points=[];autosize=1;strokeColor=none;fillColor=none;" parent="1" vertex="1">
          <mxGeometry x="200" y="340" width="40" height="30" as="geometry" />
        </mxCell>
        <mxCell id="HM0CQUt8WCUSATUrnHNi-28" value="no" style="text;html=1;align=center;verticalAlign=middle;resizable=0;points=[];autosize=1;strokeColor=none;fillColor=none;" parent="1" vertex="1">
          <mxGeometry x="370" y="350" width="40" height="30" as="geometry" />
        </mxCell>
        <mxCell id="5pUvS0Q_4MI4ZZtTZqTq-2" style="edgeStyle=orthogonalEdgeStyle;rounded=0;orthogonalLoop=1;jettySize=auto;html=1;exitX=1;exitY=0.75;exitDx=0;exitDy=0;entryX=0;entryY=0.5;entryDx=0;entryDy=0;" parent="1" source="5pUvS0Q_4MI4ZZtTZqTq-1" target="HM0CQUt8WCUSATUrnHNi-15" edge="1">
          <mxGeometry relative="1" as="geometry">
            <Array as="points">
              <mxPoint x="80" y="329" />
              <mxPoint x="80" y="640" />
            </Array>
          </mxGeometry>
        </mxCell>
        <mxCell id="5pUvS0Q_4MI4ZZtTZqTq-1" value="for i in range(1,a)" style="shape=hexagon;perimeter=hexagonPerimeter2;whiteSpace=wrap;html=1;fixedSize=1;fontSize=15;" parent="1" vertex="1">
          <mxGeometry x="185" y="300" width="130" height="40" as="geometry" />
        </mxCell>
        <mxCell id="5pUvS0Q_4MI4ZZtTZqTq-3" value="no" style="text;html=1;align=center;verticalAlign=middle;resizable=0;points=[];autosize=1;strokeColor=none;fillColor=none;" parent="1" vertex="1">
          <mxGeometry x="70" y="470" width="40" height="30" as="geometry" />
        </mxCell>
      </root>
    </mxGraphModel>
  </diagram>
  <diagram id="CpJ0ZsUjZsQ_823nP0Y5" name="quiz6">
    <mxGraphModel dx="420" dy="878" grid="1" gridSize="10" guides="1" tooltips="1" connect="1" arrows="1" fold="1" page="1" pageScale="1" pageWidth="850" pageHeight="1100" math="0" shadow="0">
      <root>
        <mxCell id="0" />
        <mxCell id="1" parent="0" />
        <mxCell id="xfHrjXjRuwDyR-FPawFy-4" style="edgeStyle=orthogonalEdgeStyle;rounded=0;orthogonalLoop=1;jettySize=auto;html=1;exitX=0.5;exitY=1;exitDx=0;exitDy=0;entryX=0.5;entryY=0;entryDx=0;entryDy=0;" edge="1" parent="1" source="TcGZViQA6s564alMKpAp-2" target="TcGZViQA6s564alMKpAp-4">
          <mxGeometry relative="1" as="geometry" />
        </mxCell>
        <mxCell id="TcGZViQA6s564alMKpAp-2" value="Start" style="ellipse;whiteSpace=wrap;html=1;" vertex="1" parent="1">
          <mxGeometry x="270" y="60" width="80" height="40" as="geometry" />
        </mxCell>
        <mxCell id="xfHrjXjRuwDyR-FPawFy-5" style="edgeStyle=orthogonalEdgeStyle;rounded=0;orthogonalLoop=1;jettySize=auto;html=1;exitX=0.5;exitY=1;exitDx=0;exitDy=0;entryX=0.5;entryY=0;entryDx=0;entryDy=0;" edge="1" parent="1" source="TcGZViQA6s564alMKpAp-4" target="TcGZViQA6s564alMKpAp-5">
          <mxGeometry relative="1" as="geometry" />
        </mxCell>
        <mxCell id="TcGZViQA6s564alMKpAp-4" value="string1 = str(input(&#39;Input your string: &#39;))&amp;nbsp;" style="shape=parallelogram;perimeter=parallelogramPerimeter;whiteSpace=wrap;html=1;fixedSize=1;" vertex="1" parent="1">
          <mxGeometry x="180" y="120" width="260" height="50" as="geometry" />
        </mxCell>
        <mxCell id="xfHrjXjRuwDyR-FPawFy-6" style="edgeStyle=orthogonalEdgeStyle;rounded=0;orthogonalLoop=1;jettySize=auto;html=1;exitX=0.5;exitY=1;exitDx=0;exitDy=0;entryX=0.5;entryY=0;entryDx=0;entryDy=0;" edge="1" parent="1" source="TcGZViQA6s564alMKpAp-5" target="xfHrjXjRuwDyR-FPawFy-1">
          <mxGeometry relative="1" as="geometry" />
        </mxCell>
        <mxCell id="TcGZViQA6s564alMKpAp-5" value="sum = 0" style="rounded=0;whiteSpace=wrap;html=1;" vertex="1" parent="1">
          <mxGeometry x="270" y="200" width="80" height="40" as="geometry" />
        </mxCell>
        <mxCell id="xfHrjXjRuwDyR-FPawFy-9" style="edgeStyle=orthogonalEdgeStyle;rounded=0;orthogonalLoop=1;jettySize=auto;html=1;exitX=0.5;exitY=1;exitDx=0;exitDy=0;entryX=0.5;entryY=0;entryDx=0;entryDy=0;" edge="1" parent="1" source="xfHrjXjRuwDyR-FPawFy-1" target="xfHrjXjRuwDyR-FPawFy-2">
          <mxGeometry relative="1" as="geometry" />
        </mxCell>
        <mxCell id="xfHrjXjRuwDyR-FPawFy-1" value="for letter in string1" style="shape=hexagon;perimeter=hexagonPerimeter2;whiteSpace=wrap;html=1;fixedSize=1;fontSize=15;" vertex="1" parent="1">
          <mxGeometry x="227.5" y="270" width="165" height="50" as="geometry" />
        </mxCell>
        <mxCell id="xfHrjXjRuwDyR-FPawFy-10" style="edgeStyle=orthogonalEdgeStyle;rounded=0;orthogonalLoop=1;jettySize=auto;html=1;exitX=0.5;exitY=1;exitDx=0;exitDy=0;entryX=0.5;entryY=0;entryDx=0;entryDy=0;" edge="1" parent="1" source="xfHrjXjRuwDyR-FPawFy-2" target="xfHrjXjRuwDyR-FPawFy-3">
          <mxGeometry relative="1" as="geometry" />
        </mxCell>
        <mxCell id="xfHrjXjRuwDyR-FPawFy-13" style="edgeStyle=orthogonalEdgeStyle;rounded=0;orthogonalLoop=1;jettySize=auto;html=1;exitX=1;exitY=0.5;exitDx=0;exitDy=0;entryX=1;entryY=0.5;entryDx=0;entryDy=0;" edge="1" parent="1" source="xfHrjXjRuwDyR-FPawFy-2" target="xfHrjXjRuwDyR-FPawFy-1">
          <mxGeometry relative="1" as="geometry">
            <Array as="points">
              <mxPoint x="420" y="360" />
              <mxPoint x="420" y="295" />
            </Array>
          </mxGeometry>
        </mxCell>
        <mxCell id="xfHrjXjRuwDyR-FPawFy-2" value="sum += ord(letter)" style="rounded=0;whiteSpace=wrap;html=1;" vertex="1" parent="1">
          <mxGeometry x="245" y="340" width="130" height="40" as="geometry" />
        </mxCell>
        <mxCell id="xfHrjXjRuwDyR-FPawFy-11" style="edgeStyle=orthogonalEdgeStyle;rounded=0;orthogonalLoop=1;jettySize=auto;html=1;exitX=0.5;exitY=1;exitDx=0;exitDy=0;entryX=0.5;entryY=0;entryDx=0;entryDy=0;" edge="1" parent="1" source="xfHrjXjRuwDyR-FPawFy-3" target="xfHrjXjRuwDyR-FPawFy-8">
          <mxGeometry relative="1" as="geometry" />
        </mxCell>
        <mxCell id="xfHrjXjRuwDyR-FPawFy-3" value="print(f&#39;The sum of the ASCII code in your string is {sum}&#39;)" style="rounded=0;whiteSpace=wrap;html=1;" vertex="1" parent="1">
          <mxGeometry x="140" y="410" width="340" height="50" as="geometry" />
        </mxCell>
        <mxCell id="xfHrjXjRuwDyR-FPawFy-8" value="End" style="ellipse;whiteSpace=wrap;html=1;" vertex="1" parent="1">
          <mxGeometry x="270" y="490" width="80" height="40" as="geometry" />
        </mxCell>
        <mxCell id="xfHrjXjRuwDyR-FPawFy-14" value="yes" style="text;html=1;align=center;verticalAlign=middle;resizable=0;points=[];autosize=1;strokeColor=none;fillColor=none;" vertex="1" parent="1">
          <mxGeometry x="420" y="265" width="40" height="30" as="geometry" />
        </mxCell>
      </root>
    </mxGraphModel>
  </diagram>
  <diagram id="gFiT_GFGZQPDsdCMzemH" name="quiz7">
    <mxGraphModel dx="1843" dy="1063" grid="1" gridSize="10" guides="1" tooltips="1" connect="1" arrows="1" fold="1" page="1" pageScale="1" pageWidth="850" pageHeight="1100" math="0" shadow="0">
      <root>
        <mxCell id="0" />
        <mxCell id="1" parent="0" />
        <mxCell id="mew3WomcY4HrhHtXKuyL-6" style="edgeStyle=orthogonalEdgeStyle;rounded=0;orthogonalLoop=1;jettySize=auto;html=1;exitX=0.5;exitY=1;exitDx=0;exitDy=0;entryX=0.5;entryY=0;entryDx=0;entryDy=0;" edge="1" parent="1" source="mew3WomcY4HrhHtXKuyL-1" target="mew3WomcY4HrhHtXKuyL-4">
          <mxGeometry relative="1" as="geometry" />
        </mxCell>
        <mxCell id="mew3WomcY4HrhHtXKuyL-1" value="Start" style="ellipse;whiteSpace=wrap;html=1;" vertex="1" parent="1">
          <mxGeometry x="330" y="40" width="60" height="30" as="geometry" />
        </mxCell>
        <mxCell id="mew3WomcY4HrhHtXKuyL-3" value="End" style="ellipse;whiteSpace=wrap;html=1;" vertex="1" parent="1">
          <mxGeometry x="330" y="800" width="60" height="30" as="geometry" />
        </mxCell>
        <mxCell id="mew3WomcY4HrhHtXKuyL-8" style="edgeStyle=orthogonalEdgeStyle;rounded=0;orthogonalLoop=1;jettySize=auto;html=1;exitX=0.5;exitY=1;exitDx=0;exitDy=0;entryX=0.5;entryY=0;entryDx=0;entryDy=0;" edge="1" parent="1" source="mew3WomcY4HrhHtXKuyL-4" target="mew3WomcY4HrhHtXKuyL-5">
          <mxGeometry relative="1" as="geometry" />
        </mxCell>
        <mxCell id="mew3WomcY4HrhHtXKuyL-4" value="import random&lt;br&gt;import string" style="rounded=0;whiteSpace=wrap;html=1;" vertex="1" parent="1">
          <mxGeometry x="310" y="90" width="100" height="50" as="geometry" />
        </mxCell>
        <mxCell id="mew3WomcY4HrhHtXKuyL-10" style="edgeStyle=orthogonalEdgeStyle;rounded=0;orthogonalLoop=1;jettySize=auto;html=1;exitX=0.5;exitY=1;exitDx=0;exitDy=0;entryX=0.5;entryY=0;entryDx=0;entryDy=0;" edge="1" parent="1" source="mew3WomcY4HrhHtXKuyL-5">
          <mxGeometry relative="1" as="geometry">
            <mxPoint x="360" y="250" as="targetPoint" />
          </mxGeometry>
        </mxCell>
        <mxCell id="mew3WomcY4HrhHtXKuyL-5" value="&lt;div&gt;&lt;span style=&quot;font-size: 12px;&quot;&gt;a = int(input(&quot;Enter desired password length: &quot;))&lt;/span&gt;&lt;/div&gt;&lt;div&gt;&lt;span style=&quot;font-size: 12px;&quot;&gt;&lt;br&gt;&lt;/span&gt;&lt;/div&gt;&lt;div&gt;&lt;span style=&quot;font-size: 12px;&quot;&gt;b = str(input(&quot;Should symbols be included? [True/False]: &quot;))&lt;/span&gt;&lt;/div&gt;" style="shape=parallelogram;perimeter=parallelogramPerimeter;whiteSpace=wrap;html=1;fixedSize=1;" vertex="1" parent="1">
          <mxGeometry x="170" y="160" width="380" height="70" as="geometry" />
        </mxCell>
        <mxCell id="mew3WomcY4HrhHtXKuyL-14" style="edgeStyle=orthogonalEdgeStyle;rounded=0;orthogonalLoop=1;jettySize=auto;html=1;exitX=0.5;exitY=1;exitDx=0;exitDy=0;" edge="1" parent="1" source="mew3WomcY4HrhHtXKuyL-11" target="mew3WomcY4HrhHtXKuyL-13">
          <mxGeometry relative="1" as="geometry" />
        </mxCell>
        <mxCell id="mew3WomcY4HrhHtXKuyL-11" value="characters = string.ascii_letters + string.digits" style="rounded=0;whiteSpace=wrap;html=1;" vertex="1" parent="1">
          <mxGeometry x="220" y="250" width="280" height="60" as="geometry" />
        </mxCell>
        <mxCell id="mew3WomcY4HrhHtXKuyL-16" style="edgeStyle=orthogonalEdgeStyle;rounded=0;orthogonalLoop=1;jettySize=auto;html=1;exitX=0.5;exitY=1;exitDx=0;exitDy=0;entryX=0.5;entryY=0;entryDx=0;entryDy=0;" edge="1" parent="1" source="mew3WomcY4HrhHtXKuyL-13" target="mew3WomcY4HrhHtXKuyL-15">
          <mxGeometry relative="1" as="geometry" />
        </mxCell>
        <mxCell id="mew3WomcY4HrhHtXKuyL-20" style="edgeStyle=orthogonalEdgeStyle;rounded=0;orthogonalLoop=1;jettySize=auto;html=1;exitX=0;exitY=0.5;exitDx=0;exitDy=0;entryX=0;entryY=0.5;entryDx=0;entryDy=0;" edge="1" parent="1" source="mew3WomcY4HrhHtXKuyL-13" target="mew3WomcY4HrhHtXKuyL-18">
          <mxGeometry relative="1" as="geometry">
            <Array as="points">
              <mxPoint x="240" y="370" />
              <mxPoint x="240" y="480" />
            </Array>
          </mxGeometry>
        </mxCell>
        <mxCell id="mew3WomcY4HrhHtXKuyL-13" value="b.capitalize == &#39;True&#39;" style="rhombus;whiteSpace=wrap;html=1;" vertex="1" parent="1">
          <mxGeometry x="280" y="330" width="160" height="80" as="geometry" />
        </mxCell>
        <mxCell id="mew3WomcY4HrhHtXKuyL-19" style="edgeStyle=orthogonalEdgeStyle;rounded=0;orthogonalLoop=1;jettySize=auto;html=1;exitX=0.5;exitY=1;exitDx=0;exitDy=0;entryX=0.5;entryY=0;entryDx=0;entryDy=0;" edge="1" parent="1" source="mew3WomcY4HrhHtXKuyL-15" target="mew3WomcY4HrhHtXKuyL-18">
          <mxGeometry relative="1" as="geometry" />
        </mxCell>
        <mxCell id="mew3WomcY4HrhHtXKuyL-15" value="characters += string.punctuation" style="rounded=0;whiteSpace=wrap;html=1;" vertex="1" parent="1">
          <mxGeometry x="260" y="430" width="200" height="30" as="geometry" />
        </mxCell>
        <mxCell id="mew3WomcY4HrhHtXKuyL-17" value="yes" style="text;html=1;align=center;verticalAlign=middle;resizable=0;points=[];autosize=1;strokeColor=none;fillColor=none;" vertex="1" parent="1">
          <mxGeometry x="360" y="400" width="40" height="30" as="geometry" />
        </mxCell>
        <mxCell id="mew3WomcY4HrhHtXKuyL-22" style="edgeStyle=orthogonalEdgeStyle;rounded=0;orthogonalLoop=1;jettySize=auto;html=1;exitX=0.5;exitY=1;exitDx=0;exitDy=0;entryX=0.5;entryY=0;entryDx=0;entryDy=0;" edge="1" parent="1" source="mew3WomcY4HrhHtXKuyL-18" target="mew3WomcY4HrhHtXKuyL-21">
          <mxGeometry relative="1" as="geometry" />
        </mxCell>
        <mxCell id="mew3WomcY4HrhHtXKuyL-18" value="i=0" style="whiteSpace=wrap;html=1;" vertex="1" parent="1">
          <mxGeometry x="335" y="470" width="50" height="20" as="geometry" />
        </mxCell>
        <mxCell id="mew3WomcY4HrhHtXKuyL-24" style="edgeStyle=orthogonalEdgeStyle;rounded=0;orthogonalLoop=1;jettySize=auto;html=1;exitX=0.5;exitY=1;exitDx=0;exitDy=0;entryX=0.5;entryY=0;entryDx=0;entryDy=0;" edge="1" parent="1" source="mew3WomcY4HrhHtXKuyL-21" target="mew3WomcY4HrhHtXKuyL-23">
          <mxGeometry relative="1" as="geometry" />
        </mxCell>
        <mxCell id="mew3WomcY4HrhHtXKuyL-34" style="edgeStyle=orthogonalEdgeStyle;rounded=0;orthogonalLoop=1;jettySize=auto;html=1;exitX=0;exitY=0.5;exitDx=0;exitDy=0;entryX=0;entryY=0.5;entryDx=0;entryDy=0;" edge="1" parent="1" source="mew3WomcY4HrhHtXKuyL-21" target="mew3WomcY4HrhHtXKuyL-3">
          <mxGeometry relative="1" as="geometry">
            <Array as="points">
              <mxPoint x="160" y="535" />
              <mxPoint x="160" y="815" />
            </Array>
          </mxGeometry>
        </mxCell>
        <mxCell id="mew3WomcY4HrhHtXKuyL-21" value="while i&amp;lt;=10" style="rhombus;whiteSpace=wrap;html=1;" vertex="1" parent="1">
          <mxGeometry x="315" y="510" width="90" height="50" as="geometry" />
        </mxCell>
        <mxCell id="mew3WomcY4HrhHtXKuyL-26" style="edgeStyle=orthogonalEdgeStyle;rounded=0;orthogonalLoop=1;jettySize=auto;html=1;exitX=0.5;exitY=1;exitDx=0;exitDy=0;entryX=0.5;entryY=0;entryDx=0;entryDy=0;" edge="1" parent="1" source="mew3WomcY4HrhHtXKuyL-23" target="mew3WomcY4HrhHtXKuyL-25">
          <mxGeometry relative="1" as="geometry" />
        </mxCell>
        <mxCell id="mew3WomcY4HrhHtXKuyL-23" value="&lt;span style=&quot;font-size: 12px;&quot;&gt;password = &#39;&#39;.join(random.choice(characters) for i in range(a))&lt;/span&gt;" style="rounded=0;whiteSpace=wrap;html=1;" vertex="1" parent="1">
          <mxGeometry x="195" y="570" width="330" height="60" as="geometry" />
        </mxCell>
        <mxCell id="mew3WomcY4HrhHtXKuyL-28" style="edgeStyle=orthogonalEdgeStyle;rounded=0;orthogonalLoop=1;jettySize=auto;html=1;exitX=0.5;exitY=1;exitDx=0;exitDy=0;entryX=0.5;entryY=0;entryDx=0;entryDy=0;" edge="1" parent="1" source="mew3WomcY4HrhHtXKuyL-25" target="mew3WomcY4HrhHtXKuyL-27">
          <mxGeometry relative="1" as="geometry" />
        </mxCell>
        <mxCell id="mew3WomcY4HrhHtXKuyL-25" value="print(&quot;\33[0;31m&quot;, password)" style="shape=parallelogram;perimeter=parallelogramPerimeter;whiteSpace=wrap;html=1;fixedSize=1;" vertex="1" parent="1">
          <mxGeometry x="260" y="650" width="200" height="40" as="geometry" />
        </mxCell>
        <mxCell id="mew3WomcY4HrhHtXKuyL-29" style="edgeStyle=orthogonalEdgeStyle;rounded=0;orthogonalLoop=1;jettySize=auto;html=1;exitX=1;exitY=0.5;exitDx=0;exitDy=0;entryX=1;entryY=0.5;entryDx=0;entryDy=0;" edge="1" parent="1" source="mew3WomcY4HrhHtXKuyL-27" target="mew3WomcY4HrhHtXKuyL-21">
          <mxGeometry relative="1" as="geometry">
            <Array as="points">
              <mxPoint x="550" y="725" />
              <mxPoint x="550" y="535" />
            </Array>
          </mxGeometry>
        </mxCell>
        <mxCell id="mew3WomcY4HrhHtXKuyL-27" value="i+=1" style="rounded=0;whiteSpace=wrap;html=1;" vertex="1" parent="1">
          <mxGeometry x="330" y="710" width="60" height="30" as="geometry" />
        </mxCell>
        <mxCell id="mew3WomcY4HrhHtXKuyL-33" value="yes" style="text;html=1;align=center;verticalAlign=middle;resizable=0;points=[];autosize=1;strokeColor=none;fillColor=none;" vertex="1" parent="1">
          <mxGeometry x="360" y="550" width="40" height="30" as="geometry" />
        </mxCell>
        <mxCell id="mew3WomcY4HrhHtXKuyL-35" value="no" style="text;html=1;align=center;verticalAlign=middle;resizable=0;points=[];autosize=1;strokeColor=none;fillColor=none;" vertex="1" parent="1">
          <mxGeometry x="155" y="510" width="40" height="30" as="geometry" />
        </mxCell>
      </root>
    </mxGraphModel>
  </diagram>
  <diagram id="jFZ6Z9t312gmcUVC2c7G" name="quiz8">
    <mxGraphModel dx="420" dy="798" grid="1" gridSize="10" guides="1" tooltips="1" connect="1" arrows="1" fold="1" page="1" pageScale="1" pageWidth="850" pageHeight="1100" math="0" shadow="0">
      <root>
        <mxCell id="0" />
        <mxCell id="1" parent="0" />
        <mxCell id="YgVMdeKc9Zs3NBj2xVUg-7" style="edgeStyle=orthogonalEdgeStyle;rounded=0;orthogonalLoop=1;jettySize=auto;html=1;exitX=0.5;exitY=1;exitDx=0;exitDy=0;entryX=0.5;entryY=0;entryDx=0;entryDy=0;" edge="1" parent="1" source="YgVMdeKc9Zs3NBj2xVUg-1" target="YgVMdeKc9Zs3NBj2xVUg-3">
          <mxGeometry relative="1" as="geometry" />
        </mxCell>
        <mxCell id="YgVMdeKc9Zs3NBj2xVUg-1" value="Start" style="ellipse;whiteSpace=wrap;html=1;" vertex="1" parent="1">
          <mxGeometry x="160" y="50" width="70" height="30" as="geometry" />
        </mxCell>
        <mxCell id="YgVMdeKc9Zs3NBj2xVUg-2" value="End" style="ellipse;whiteSpace=wrap;html=1;" vertex="1" parent="1">
          <mxGeometry x="160" y="720" width="70" height="30" as="geometry" />
        </mxCell>
        <mxCell id="YgVMdeKc9Zs3NBj2xVUg-8" style="edgeStyle=orthogonalEdgeStyle;rounded=0;orthogonalLoop=1;jettySize=auto;html=1;exitX=0.5;exitY=1;exitDx=0;exitDy=0;entryX=0.5;entryY=0;entryDx=0;entryDy=0;" edge="1" parent="1" source="YgVMdeKc9Zs3NBj2xVUg-3" target="YgVMdeKc9Zs3NBj2xVUg-4">
          <mxGeometry relative="1" as="geometry" />
        </mxCell>
        <mxCell id="YgVMdeKc9Zs3NBj2xVUg-3" value="i, f, r = 1, 1, 1" style="rounded=0;whiteSpace=wrap;html=1;" vertex="1" parent="1">
          <mxGeometry x="145" y="100" width="100" height="40" as="geometry" />
        </mxCell>
        <mxCell id="YgVMdeKc9Zs3NBj2xVUg-9" style="edgeStyle=orthogonalEdgeStyle;rounded=0;orthogonalLoop=1;jettySize=auto;html=1;exitX=0.5;exitY=1;exitDx=0;exitDy=0;entryX=0.5;entryY=0;entryDx=0;entryDy=0;" edge="1" parent="1" source="YgVMdeKc9Zs3NBj2xVUg-4" target="YgVMdeKc9Zs3NBj2xVUg-5">
          <mxGeometry relative="1" as="geometry" />
        </mxCell>
        <mxCell id="YgVMdeKc9Zs3NBj2xVUg-4" value="&lt;span style=&quot;font-size: 12px;&quot;&gt;a = int(input(&#39;Enter a room number: &#39;))&lt;/span&gt;" style="shape=parallelogram;perimeter=parallelogramPerimeter;whiteSpace=wrap;html=1;fixedSize=1;" vertex="1" parent="1">
          <mxGeometry x="65" y="160" width="260" height="60" as="geometry" />
        </mxCell>
        <mxCell id="YgVMdeKc9Zs3NBj2xVUg-10" style="edgeStyle=orthogonalEdgeStyle;rounded=0;orthogonalLoop=1;jettySize=auto;html=1;exitX=0;exitY=0.5;exitDx=0;exitDy=0;entryX=0;entryY=0.5;entryDx=0;entryDy=0;" edge="1" parent="1" source="YgVMdeKc9Zs3NBj2xVUg-5" target="YgVMdeKc9Zs3NBj2xVUg-2">
          <mxGeometry relative="1" as="geometry">
            <Array as="points">
              <mxPoint x="70" y="280" />
              <mxPoint x="70" y="735" />
            </Array>
          </mxGeometry>
        </mxCell>
        <mxCell id="YgVMdeKc9Zs3NBj2xVUg-12" style="edgeStyle=orthogonalEdgeStyle;rounded=0;orthogonalLoop=1;jettySize=auto;html=1;exitX=0.5;exitY=1;exitDx=0;exitDy=0;entryX=0.5;entryY=0;entryDx=0;entryDy=0;" edge="1" parent="1" source="YgVMdeKc9Zs3NBj2xVUg-5" target="YgVMdeKc9Zs3NBj2xVUg-6">
          <mxGeometry relative="1" as="geometry" />
        </mxCell>
        <mxCell id="YgVMdeKc9Zs3NBj2xVUg-5" value="while i&amp;lt;=100" style="rhombus;whiteSpace=wrap;html=1;" vertex="1" parent="1">
          <mxGeometry x="145" y="240" width="100" height="80" as="geometry" />
        </mxCell>
        <mxCell id="YgVMdeKc9Zs3NBj2xVUg-14" style="edgeStyle=orthogonalEdgeStyle;rounded=0;orthogonalLoop=1;jettySize=auto;html=1;exitX=0.5;exitY=1;exitDx=0;exitDy=0;entryX=0.5;entryY=0;entryDx=0;entryDy=0;" edge="1" parent="1" source="YgVMdeKc9Zs3NBj2xVUg-6" target="YgVMdeKc9Zs3NBj2xVUg-13">
          <mxGeometry relative="1" as="geometry" />
        </mxCell>
        <mxCell id="YgVMdeKc9Zs3NBj2xVUg-6" value="r+=1&lt;br&gt;i+=1" style="rounded=0;whiteSpace=wrap;html=1;" vertex="1" parent="1">
          <mxGeometry x="160" y="340" width="70" height="50" as="geometry" />
        </mxCell>
        <mxCell id="YgVMdeKc9Zs3NBj2xVUg-11" value="End" style="text;html=1;align=center;verticalAlign=middle;resizable=0;points=[];autosize=1;strokeColor=none;fillColor=none;" vertex="1" parent="1">
          <mxGeometry x="30" y="440" width="40" height="30" as="geometry" />
        </mxCell>
        <mxCell id="YgVMdeKc9Zs3NBj2xVUg-16" style="edgeStyle=orthogonalEdgeStyle;rounded=0;orthogonalLoop=1;jettySize=auto;html=1;exitX=0.5;exitY=1;exitDx=0;exitDy=0;entryX=0.5;entryY=0;entryDx=0;entryDy=0;" edge="1" parent="1" source="YgVMdeKc9Zs3NBj2xVUg-13" target="YgVMdeKc9Zs3NBj2xVUg-15">
          <mxGeometry relative="1" as="geometry" />
        </mxCell>
        <mxCell id="YgVMdeKc9Zs3NBj2xVUg-19" style="edgeStyle=orthogonalEdgeStyle;rounded=0;orthogonalLoop=1;jettySize=auto;html=1;exitX=0;exitY=0.5;exitDx=0;exitDy=0;entryX=0;entryY=0.5;entryDx=0;entryDy=0;" edge="1" parent="1" source="YgVMdeKc9Zs3NBj2xVUg-13" target="YgVMdeKc9Zs3NBj2xVUg-17">
          <mxGeometry relative="1" as="geometry">
            <Array as="points">
              <mxPoint x="90" y="440" />
              <mxPoint x="90" y="590" />
            </Array>
          </mxGeometry>
        </mxCell>
        <mxCell id="YgVMdeKc9Zs3NBj2xVUg-13" value="if a==i:" style="rhombus;whiteSpace=wrap;html=1;" vertex="1" parent="1">
          <mxGeometry x="155" y="410" width="80" height="60" as="geometry" />
        </mxCell>
        <mxCell id="YgVMdeKc9Zs3NBj2xVUg-18" style="edgeStyle=orthogonalEdgeStyle;rounded=0;orthogonalLoop=1;jettySize=auto;html=1;exitX=0.5;exitY=1;exitDx=0;exitDy=0;entryX=0.5;entryY=0;entryDx=0;entryDy=0;" edge="1" parent="1" source="YgVMdeKc9Zs3NBj2xVUg-15" target="YgVMdeKc9Zs3NBj2xVUg-17">
          <mxGeometry relative="1" as="geometry" />
        </mxCell>
        <mxCell id="YgVMdeKc9Zs3NBj2xVUg-15" value="&lt;span style=&quot;font-size: 12px;&quot;&gt;print(f&quot;{i}-Room {f}F{str(r).zfill(2)}&quot;)&lt;/span&gt;" style="rounded=0;whiteSpace=wrap;html=1;" vertex="1" parent="1">
          <mxGeometry x="95" y="490" width="200" height="50" as="geometry" />
        </mxCell>
        <mxCell id="YgVMdeKc9Zs3NBj2xVUg-23" style="edgeStyle=orthogonalEdgeStyle;rounded=0;orthogonalLoop=1;jettySize=auto;html=1;exitX=0.5;exitY=1;exitDx=0;exitDy=0;entryX=0.5;entryY=0;entryDx=0;entryDy=0;" edge="1" parent="1" source="YgVMdeKc9Zs3NBj2xVUg-17" target="YgVMdeKc9Zs3NBj2xVUg-22">
          <mxGeometry relative="1" as="geometry" />
        </mxCell>
        <mxCell id="YgVMdeKc9Zs3NBj2xVUg-26" style="edgeStyle=orthogonalEdgeStyle;rounded=0;orthogonalLoop=1;jettySize=auto;html=1;exitX=1;exitY=0.5;exitDx=0;exitDy=0;entryX=1;entryY=0.5;entryDx=0;entryDy=0;" edge="1" parent="1" source="YgVMdeKc9Zs3NBj2xVUg-17" target="YgVMdeKc9Zs3NBj2xVUg-5">
          <mxGeometry relative="1" as="geometry">
            <Array as="points">
              <mxPoint x="320" y="590" />
              <mxPoint x="320" y="280" />
            </Array>
          </mxGeometry>
        </mxCell>
        <mxCell id="YgVMdeKc9Zs3NBj2xVUg-17" value="i%10==1" style="rhombus;whiteSpace=wrap;html=1;" vertex="1" parent="1">
          <mxGeometry x="155" y="560" width="80" height="60" as="geometry" />
        </mxCell>
        <mxCell id="YgVMdeKc9Zs3NBj2xVUg-20" value="yes" style="text;html=1;align=center;verticalAlign=middle;resizable=0;points=[];autosize=1;strokeColor=none;fillColor=none;" vertex="1" parent="1">
          <mxGeometry x="195" y="460" width="40" height="30" as="geometry" />
        </mxCell>
        <mxCell id="YgVMdeKc9Zs3NBj2xVUg-21" value="no" style="text;html=1;align=center;verticalAlign=middle;resizable=0;points=[];autosize=1;strokeColor=none;fillColor=none;" vertex="1" parent="1">
          <mxGeometry x="90" y="420" width="40" height="30" as="geometry" />
        </mxCell>
        <mxCell id="YgVMdeKc9Zs3NBj2xVUg-24" style="edgeStyle=orthogonalEdgeStyle;rounded=0;orthogonalLoop=1;jettySize=auto;html=1;exitX=0.5;exitY=1;exitDx=0;exitDy=0;" edge="1" parent="1" source="YgVMdeKc9Zs3NBj2xVUg-22" target="YgVMdeKc9Zs3NBj2xVUg-2">
          <mxGeometry relative="1" as="geometry" />
        </mxCell>
        <mxCell id="YgVMdeKc9Zs3NBj2xVUg-22" value="&lt;span style=&quot;font-size: 12px;&quot;&gt;f+=1&lt;br&gt;r=1&lt;br&gt;&lt;/span&gt;" style="rounded=0;whiteSpace=wrap;html=1;" vertex="1" parent="1">
          <mxGeometry x="167.5" y="640" width="55" height="50" as="geometry" />
        </mxCell>
        <mxCell id="YgVMdeKc9Zs3NBj2xVUg-25" value="yes" style="text;html=1;align=center;verticalAlign=middle;resizable=0;points=[];autosize=1;strokeColor=none;fillColor=none;" vertex="1" parent="1">
          <mxGeometry x="190" y="610" width="40" height="30" as="geometry" />
        </mxCell>
        <mxCell id="YgVMdeKc9Zs3NBj2xVUg-27" value="no" style="text;html=1;align=center;verticalAlign=middle;resizable=0;points=[];autosize=1;strokeColor=none;fillColor=none;" vertex="1" parent="1">
          <mxGeometry x="270" y="560" width="40" height="30" as="geometry" />
        </mxCell>
        <mxCell id="YgVMdeKc9Zs3NBj2xVUg-28" value="yes" style="text;html=1;align=center;verticalAlign=middle;resizable=0;points=[];autosize=1;strokeColor=none;fillColor=none;" vertex="1" parent="1">
          <mxGeometry x="160" y="310" width="40" height="30" as="geometry" />
        </mxCell>
        <mxCell id="YgVMdeKc9Zs3NBj2xVUg-29" value="no" style="text;html=1;align=center;verticalAlign=middle;resizable=0;points=[];autosize=1;strokeColor=none;fillColor=none;" vertex="1" parent="1">
          <mxGeometry x="105" y="260" width="40" height="30" as="geometry" />
        </mxCell>
      </root>
    </mxGraphModel>
  </diagram>
  <diagram id="m2tsGMd79LDar5BiLRFX" name="quiz14">
    <mxGraphModel dx="723" dy="745" grid="1" gridSize="10" guides="1" tooltips="1" connect="1" arrows="1" fold="1" page="1" pageScale="1" pageWidth="850" pageHeight="1100" math="0" shadow="0">
      <root>
        <mxCell id="0" />
        <mxCell id="1" parent="0" />
        <mxCell id="lQgij1wQVsKxvEOX_O8a-6" style="edgeStyle=orthogonalEdgeStyle;rounded=0;orthogonalLoop=1;jettySize=auto;html=1;exitX=0.5;exitY=1;exitDx=0;exitDy=0;" parent="1" source="lQgij1wQVsKxvEOX_O8a-1" target="lQgij1wQVsKxvEOX_O8a-4" edge="1">
          <mxGeometry relative="1" as="geometry" />
        </mxCell>
        <mxCell id="lQgij1wQVsKxvEOX_O8a-1" value="Start" style="ellipse;whiteSpace=wrap;html=1;" parent="1" vertex="1">
          <mxGeometry x="170" y="20" width="60" height="40" as="geometry" />
        </mxCell>
        <mxCell id="lQgij1wQVsKxvEOX_O8a-2" value="End" style="ellipse;whiteSpace=wrap;html=1;" parent="1" vertex="1">
          <mxGeometry x="170" y="330" width="60" height="40" as="geometry" />
        </mxCell>
        <mxCell id="lQgij1wQVsKxvEOX_O8a-10" style="edgeStyle=orthogonalEdgeStyle;rounded=0;orthogonalLoop=1;jettySize=auto;html=1;exitX=0.5;exitY=1;exitDx=0;exitDy=0;entryX=0.5;entryY=0;entryDx=0;entryDy=0;" parent="1" source="lQgij1wQVsKxvEOX_O8a-3" target="lQgij1wQVsKxvEOX_O8a-9" edge="1">
          <mxGeometry relative="1" as="geometry" />
        </mxCell>
        <mxCell id="lQgij1wQVsKxvEOX_O8a-3" value="def mysteryTwo(a:int, b:int)-&amp;gt;int:" style="shape=process;whiteSpace=wrap;html=1;backgroundOutline=1;" parent="1" vertex="1">
          <mxGeometry x="85" y="190" width="230" height="60" as="geometry" />
        </mxCell>
        <mxCell id="lQgij1wQVsKxvEOX_O8a-7" style="edgeStyle=orthogonalEdgeStyle;rounded=0;orthogonalLoop=1;jettySize=auto;html=1;exitX=0.5;exitY=1;exitDx=0;exitDy=0;entryX=0.5;entryY=0;entryDx=0;entryDy=0;" parent="1" source="lQgij1wQVsKxvEOX_O8a-4" target="lQgij1wQVsKxvEOX_O8a-5" edge="1">
          <mxGeometry relative="1" as="geometry" />
        </mxCell>
        <mxCell id="lQgij1wQVsKxvEOX_O8a-4" value="&lt;span style=&quot;font-size: 12px;&quot;&gt;a = int(input(&quot;Enter a number: &quot;))&lt;/span&gt;" style="shape=parallelogram;perimeter=parallelogramPerimeter;whiteSpace=wrap;html=1;fixedSize=1;" parent="1" vertex="1">
          <mxGeometry x="100" y="70" width="200" height="40" as="geometry" />
        </mxCell>
        <mxCell id="lQgij1wQVsKxvEOX_O8a-8" style="edgeStyle=orthogonalEdgeStyle;rounded=0;orthogonalLoop=1;jettySize=auto;html=1;exitX=0.5;exitY=1;exitDx=0;exitDy=0;entryX=0.5;entryY=0;entryDx=0;entryDy=0;" parent="1" source="lQgij1wQVsKxvEOX_O8a-5" target="lQgij1wQVsKxvEOX_O8a-3" edge="1">
          <mxGeometry relative="1" as="geometry" />
        </mxCell>
        <mxCell id="lQgij1wQVsKxvEOX_O8a-5" value="&lt;span style=&quot;font-size: 12px;&quot;&gt;b = int(input(&quot;Enter another number: &quot;))&lt;/span&gt;" style="shape=parallelogram;perimeter=parallelogramPerimeter;whiteSpace=wrap;html=1;fixedSize=1;" parent="1" vertex="1">
          <mxGeometry x="72.5" y="130" width="255" height="40" as="geometry" />
        </mxCell>
        <mxCell id="lQgij1wQVsKxvEOX_O8a-11" style="edgeStyle=orthogonalEdgeStyle;rounded=0;orthogonalLoop=1;jettySize=auto;html=1;exitX=0.5;exitY=1;exitDx=0;exitDy=0;entryX=0.5;entryY=0;entryDx=0;entryDy=0;" parent="1" source="lQgij1wQVsKxvEOX_O8a-9" target="lQgij1wQVsKxvEOX_O8a-2" edge="1">
          <mxGeometry relative="1" as="geometry" />
        </mxCell>
        <mxCell id="lQgij1wQVsKxvEOX_O8a-9" value="return a**2+b" style="rounded=0;whiteSpace=wrap;html=1;" parent="1" vertex="1">
          <mxGeometry x="150" y="270" width="100" height="30" as="geometry" />
        </mxCell>
      </root>
    </mxGraphModel>
  </diagram>
  <diagram id="XTEMFW6ruFaKfwdM7RpU" name="quiz015">
    <mxGraphModel dx="900" dy="2028" grid="1" gridSize="10" guides="1" tooltips="1" connect="1" arrows="1" fold="1" page="1" pageScale="1" pageWidth="850" pageHeight="1100" background="none" math="0" shadow="0">
      <root>
        <mxCell id="0" />
        <mxCell id="1" parent="0" />
        <mxCell id="dAUwJJNKQ6tyeM47-GlW-7" style="edgeStyle=none;curved=1;rounded=0;orthogonalLoop=1;jettySize=auto;html=1;exitX=0.5;exitY=1;exitDx=0;exitDy=0;entryX=0.5;entryY=0;entryDx=0;entryDy=0;endArrow=open;startSize=14;endSize=14;sourcePerimeterSpacing=8;targetPerimeterSpacing=8;" edge="1" parent="1" source="dAUwJJNKQ6tyeM47-GlW-1" target="dAUwJJNKQ6tyeM47-GlW-3">
          <mxGeometry relative="1" as="geometry" />
        </mxCell>
        <mxCell id="dAUwJJNKQ6tyeM47-GlW-1" value="Start" style="ellipse;whiteSpace=wrap;html=1;hachureGap=4;" vertex="1" parent="1">
          <mxGeometry x="89" y="-39" width="70" height="34" as="geometry" />
        </mxCell>
        <mxCell id="dAUwJJNKQ6tyeM47-GlW-2" value="End" style="ellipse;whiteSpace=wrap;html=1;hachureGap=4;" vertex="1" parent="1">
          <mxGeometry x="89" y="450" width="70" height="34" as="geometry" />
        </mxCell>
        <mxCell id="dAUwJJNKQ6tyeM47-GlW-6" style="edgeStyle=none;curved=1;rounded=0;orthogonalLoop=1;jettySize=auto;html=1;exitX=0.5;exitY=1;exitDx=0;exitDy=0;entryX=0.5;entryY=0;entryDx=0;entryDy=0;endArrow=open;startSize=14;endSize=14;sourcePerimeterSpacing=8;targetPerimeterSpacing=8;" edge="1" parent="1" source="dAUwJJNKQ6tyeM47-GlW-3" target="dAUwJJNKQ6tyeM47-GlW-4">
          <mxGeometry relative="1" as="geometry" />
        </mxCell>
        <mxCell id="dAUwJJNKQ6tyeM47-GlW-3" value="def doors(n)" style="shape=process;whiteSpace=wrap;html=1;backgroundOutline=1;hachureGap=4;" vertex="1" parent="1">
          <mxGeometry x="64" y="16" width="120" height="40" as="geometry" />
        </mxCell>
        <mxCell id="dAUwJJNKQ6tyeM47-GlW-8" style="edgeStyle=none;curved=1;rounded=0;orthogonalLoop=1;jettySize=auto;html=1;exitX=0.5;exitY=1;exitDx=0;exitDy=0;entryX=0.5;entryY=0;entryDx=0;entryDy=0;endArrow=open;startSize=14;endSize=14;sourcePerimeterSpacing=8;targetPerimeterSpacing=8;" edge="1" parent="1" source="dAUwJJNKQ6tyeM47-GlW-4" target="dAUwJJNKQ6tyeM47-GlW-5">
          <mxGeometry relative="1" as="geometry" />
        </mxCell>
        <mxCell id="dAUwJJNKQ6tyeM47-GlW-36" style="edgeStyle=none;curved=1;rounded=0;orthogonalLoop=1;jettySize=auto;html=1;exitX=0;exitY=0.5;exitDx=0;exitDy=0;entryX=0;entryY=0.5;entryDx=0;entryDy=0;endArrow=open;startSize=14;endSize=14;sourcePerimeterSpacing=8;targetPerimeterSpacing=8;" edge="1" parent="1" source="dAUwJJNKQ6tyeM47-GlW-4" target="dAUwJJNKQ6tyeM47-GlW-9">
          <mxGeometry relative="1" as="geometry">
            <Array as="points">
              <mxPoint x="40" y="160" />
            </Array>
          </mxGeometry>
        </mxCell>
        <mxCell id="dAUwJJNKQ6tyeM47-GlW-4" value="for a in range(0,n)" style="shape=hexagon;perimeter=hexagonPerimeter2;whiteSpace=wrap;html=1;fixedSize=1;hachureGap=4;" vertex="1" parent="1">
          <mxGeometry x="64" y="78" width="120" height="38" as="geometry" />
        </mxCell>
        <mxCell id="dAUwJJNKQ6tyeM47-GlW-24" style="edgeStyle=none;curved=1;rounded=0;orthogonalLoop=1;jettySize=auto;html=1;exitX=1;exitY=0.5;exitDx=0;exitDy=0;endArrow=open;startSize=14;endSize=14;sourcePerimeterSpacing=8;targetPerimeterSpacing=8;" edge="1" parent="1" source="dAUwJJNKQ6tyeM47-GlW-5">
          <mxGeometry relative="1" as="geometry">
            <mxPoint x="162" y="157.50000000000045" as="targetPoint" />
          </mxGeometry>
        </mxCell>
        <mxCell id="dAUwJJNKQ6tyeM47-GlW-34" style="edgeStyle=none;curved=1;rounded=0;orthogonalLoop=1;jettySize=auto;html=1;entryX=1;entryY=0.5;entryDx=0;entryDy=0;endArrow=open;startSize=14;endSize=14;sourcePerimeterSpacing=8;targetPerimeterSpacing=8;exitX=1;exitY=0.5;exitDx=0;exitDy=0;" edge="1" parent="1" source="dAUwJJNKQ6tyeM47-GlW-5" target="dAUwJJNKQ6tyeM47-GlW-4">
          <mxGeometry relative="1" as="geometry">
            <mxPoint x="210" y="160" as="sourcePoint" />
            <Array as="points">
              <mxPoint x="220" y="160" />
              <mxPoint x="220" y="100" />
              <mxPoint x="200" y="100" />
            </Array>
          </mxGeometry>
        </mxCell>
        <mxCell id="dAUwJJNKQ6tyeM47-GlW-5" value="door.append(False)" style="rounded=0;whiteSpace=wrap;html=1;hachureGap=4;" vertex="1" parent="1">
          <mxGeometry x="64" y="136" width="120" height="43" as="geometry" />
        </mxCell>
        <mxCell id="dAUwJJNKQ6tyeM47-GlW-22" style="edgeStyle=none;curved=1;rounded=0;orthogonalLoop=1;jettySize=auto;html=1;exitX=0.5;exitY=1;exitDx=0;exitDy=0;entryX=0.5;entryY=0;entryDx=0;entryDy=0;endArrow=open;startSize=14;endSize=14;sourcePerimeterSpacing=8;targetPerimeterSpacing=8;" edge="1" parent="1" source="dAUwJJNKQ6tyeM47-GlW-9" target="dAUwJJNKQ6tyeM47-GlW-21">
          <mxGeometry relative="1" as="geometry" />
        </mxCell>
        <mxCell id="dAUwJJNKQ6tyeM47-GlW-44" style="edgeStyle=none;curved=1;rounded=0;orthogonalLoop=1;jettySize=auto;html=1;exitX=0;exitY=0.5;exitDx=0;exitDy=0;entryX=0;entryY=0.5;entryDx=0;entryDy=0;endArrow=open;startSize=14;endSize=14;sourcePerimeterSpacing=8;targetPerimeterSpacing=8;" edge="1" parent="1" source="dAUwJJNKQ6tyeM47-GlW-9" target="dAUwJJNKQ6tyeM47-GlW-43">
          <mxGeometry relative="1" as="geometry">
            <Array as="points">
              <mxPoint x="-40" y="320" />
            </Array>
          </mxGeometry>
        </mxCell>
        <mxCell id="dAUwJJNKQ6tyeM47-GlW-9" value="for a in range(0,n)" style="shape=hexagon;perimeter=hexagonPerimeter2;whiteSpace=wrap;html=1;fixedSize=1;hachureGap=4;" vertex="1" parent="1">
          <mxGeometry x="64" y="210" width="120" height="38" as="geometry" />
        </mxCell>
        <mxCell id="dAUwJJNKQ6tyeM47-GlW-38" style="edgeStyle=none;curved=1;rounded=0;orthogonalLoop=1;jettySize=auto;html=1;exitX=0.5;exitY=1;exitDx=0;exitDy=0;entryX=0.5;entryY=0;entryDx=0;entryDy=0;endArrow=open;startSize=14;endSize=14;sourcePerimeterSpacing=8;targetPerimeterSpacing=8;" edge="1" parent="1" source="dAUwJJNKQ6tyeM47-GlW-21" target="dAUwJJNKQ6tyeM47-GlW-37">
          <mxGeometry relative="1" as="geometry" />
        </mxCell>
        <mxCell id="dAUwJJNKQ6tyeM47-GlW-40" style="edgeStyle=none;curved=1;rounded=0;orthogonalLoop=1;jettySize=auto;html=1;exitX=1;exitY=0.5;exitDx=0;exitDy=0;entryX=1;entryY=0.5;entryDx=0;entryDy=0;endArrow=open;startSize=14;endSize=14;sourcePerimeterSpacing=8;targetPerimeterSpacing=8;" edge="1" parent="1" source="dAUwJJNKQ6tyeM47-GlW-21" target="dAUwJJNKQ6tyeM47-GlW-9">
          <mxGeometry relative="1" as="geometry">
            <Array as="points">
              <mxPoint x="250" y="260" />
            </Array>
          </mxGeometry>
        </mxCell>
        <mxCell id="dAUwJJNKQ6tyeM47-GlW-21" value="for b in range(a, n, a+1)" style="shape=hexagon;perimeter=hexagonPerimeter2;whiteSpace=wrap;html=1;fixedSize=1;hachureGap=4;" vertex="1" parent="1">
          <mxGeometry x="44" y="270" width="160" height="38" as="geometry" />
        </mxCell>
        <mxCell id="dAUwJJNKQ6tyeM47-GlW-39" style="edgeStyle=none;curved=1;rounded=0;orthogonalLoop=1;jettySize=auto;html=1;exitX=1;exitY=0.5;exitDx=0;exitDy=0;entryX=1;entryY=0.5;entryDx=0;entryDy=0;endArrow=open;startSize=14;endSize=14;sourcePerimeterSpacing=8;targetPerimeterSpacing=8;" edge="1" parent="1" source="dAUwJJNKQ6tyeM47-GlW-37" target="dAUwJJNKQ6tyeM47-GlW-21">
          <mxGeometry relative="1" as="geometry">
            <Array as="points">
              <mxPoint x="230" y="350" />
            </Array>
          </mxGeometry>
        </mxCell>
        <mxCell id="dAUwJJNKQ6tyeM47-GlW-37" value="door[b] = not door[b]" style="rounded=0;whiteSpace=wrap;html=1;hachureGap=4;" vertex="1" parent="1">
          <mxGeometry x="54" y="330" width="140" height="32" as="geometry" />
        </mxCell>
        <mxCell id="dAUwJJNKQ6tyeM47-GlW-45" style="edgeStyle=none;curved=1;rounded=0;orthogonalLoop=1;jettySize=auto;html=1;exitX=0.5;exitY=1;exitDx=0;exitDy=0;entryX=0.5;entryY=0;entryDx=0;entryDy=0;endArrow=open;startSize=14;endSize=14;sourcePerimeterSpacing=8;targetPerimeterSpacing=8;" edge="1" parent="1" source="dAUwJJNKQ6tyeM47-GlW-43" target="dAUwJJNKQ6tyeM47-GlW-2">
          <mxGeometry relative="1" as="geometry" />
        </mxCell>
        <mxCell id="dAUwJJNKQ6tyeM47-GlW-43" value="return result" style="rounded=0;whiteSpace=wrap;html=1;hachureGap=4;" vertex="1" parent="1">
          <mxGeometry x="79" y="380" width="90" height="40" as="geometry" />
        </mxCell>
      </root>
    </mxGraphModel>
  </diagram>
  <diagram id="Op4-xjMSSGAjhMo69PVv" name="quiz013">
    <mxGraphModel dx="637" dy="602" grid="0" gridSize="10" guides="1" tooltips="1" connect="1" arrows="1" fold="1" page="0" pageScale="1" pageWidth="850" pageHeight="1100" math="0" shadow="0">
      <root>
        <mxCell id="0" />
        <mxCell id="1" parent="0" />
      </root>
    </mxGraphModel>
  </diagram>
  <diagram id="SYUsUQT7frf2CBEeDkTC" name="quiz009">
    <mxGraphModel dx="1558" dy="1095" grid="0" gridSize="10" guides="1" tooltips="1" connect="1" arrows="1" fold="1" page="0" pageScale="1" pageWidth="850" pageHeight="1100" math="0" shadow="0">
      <root>
        <mxCell id="0" />
        <mxCell id="1" parent="0" />
        <mxCell id="gEHyTXg7Xbf_6CF12abO-7" style="edgeStyle=none;curved=1;rounded=0;orthogonalLoop=1;jettySize=auto;html=1;exitX=0.5;exitY=1;exitDx=0;exitDy=0;entryX=0.5;entryY=0;entryDx=0;entryDy=0;endArrow=open;startSize=14;endSize=14;sourcePerimeterSpacing=8;targetPerimeterSpacing=8;" edge="1" parent="1" source="gEHyTXg7Xbf_6CF12abO-1" target="gEHyTXg7Xbf_6CF12abO-2">
          <mxGeometry relative="1" as="geometry" />
        </mxCell>
        <mxCell id="gEHyTXg7Xbf_6CF12abO-1" value="Start" style="ellipse;whiteSpace=wrap;html=1;hachureGap=4;" vertex="1" parent="1">
          <mxGeometry x="92" y="4" width="68" height="32" as="geometry" />
        </mxCell>
        <mxCell id="gEHyTXg7Xbf_6CF12abO-8" style="edgeStyle=none;curved=1;rounded=0;orthogonalLoop=1;jettySize=auto;html=1;exitX=0.5;exitY=1;exitDx=0;exitDy=0;entryX=0.5;entryY=0;entryDx=0;entryDy=0;endArrow=open;startSize=14;endSize=14;sourcePerimeterSpacing=8;targetPerimeterSpacing=8;" edge="1" parent="1" source="gEHyTXg7Xbf_6CF12abO-2" target="gEHyTXg7Xbf_6CF12abO-3">
          <mxGeometry relative="1" as="geometry" />
        </mxCell>
        <mxCell id="gEHyTXg7Xbf_6CF12abO-2" value="a = str(input(&quot;Input string: &quot;" style="shape=parallelogram;perimeter=parallelogramPerimeter;whiteSpace=wrap;html=1;fixedSize=1;hachureGap=4;" vertex="1" parent="1">
          <mxGeometry x="32" y="56" width="188" height="29" as="geometry" />
        </mxCell>
        <mxCell id="gEHyTXg7Xbf_6CF12abO-9" style="edgeStyle=none;curved=1;rounded=0;orthogonalLoop=1;jettySize=auto;html=1;exitX=0.5;exitY=1;exitDx=0;exitDy=0;entryX=0.5;entryY=0;entryDx=0;entryDy=0;endArrow=open;startSize=14;endSize=14;sourcePerimeterSpacing=8;targetPerimeterSpacing=8;" edge="1" parent="1" source="gEHyTXg7Xbf_6CF12abO-3" target="gEHyTXg7Xbf_6CF12abO-4">
          <mxGeometry relative="1" as="geometry" />
        </mxCell>
        <mxCell id="gEHyTXg7Xbf_6CF12abO-3" value="b = int(input(&quot;Enter shift (integer): &quot;" style="shape=parallelogram;perimeter=parallelogramPerimeter;whiteSpace=wrap;html=1;fixedSize=1;hachureGap=4;" vertex="1" parent="1">
          <mxGeometry x="3.5" y="110" width="245" height="29" as="geometry" />
        </mxCell>
        <mxCell id="gEHyTXg7Xbf_6CF12abO-10" style="edgeStyle=none;curved=1;rounded=0;orthogonalLoop=1;jettySize=auto;html=1;exitX=0.5;exitY=1;exitDx=0;exitDy=0;entryX=0.5;entryY=0;entryDx=0;entryDy=0;endArrow=open;startSize=14;endSize=14;sourcePerimeterSpacing=8;targetPerimeterSpacing=8;" edge="1" parent="1" source="gEHyTXg7Xbf_6CF12abO-4" target="gEHyTXg7Xbf_6CF12abO-5">
          <mxGeometry relative="1" as="geometry" />
        </mxCell>
        <mxCell id="gEHyTXg7Xbf_6CF12abO-4" value="def str_shift(a:str, b:int)-&amp;gt;str:" style="shape=process;whiteSpace=wrap;html=1;backgroundOutline=1;hachureGap=4;" vertex="1" parent="1">
          <mxGeometry x="11.75" y="163" width="228.5" height="38" as="geometry" />
        </mxCell>
        <mxCell id="gEHyTXg7Xbf_6CF12abO-11" style="edgeStyle=none;curved=1;rounded=0;orthogonalLoop=1;jettySize=auto;html=1;exitX=0.5;exitY=1;exitDx=0;exitDy=0;entryX=0.5;entryY=0;entryDx=0;entryDy=0;endArrow=open;startSize=14;endSize=14;sourcePerimeterSpacing=8;targetPerimeterSpacing=8;" edge="1" parent="1" source="gEHyTXg7Xbf_6CF12abO-5" target="gEHyTXg7Xbf_6CF12abO-6">
          <mxGeometry relative="1" as="geometry" />
        </mxCell>
        <mxCell id="gEHyTXg7Xbf_6CF12abO-5" value="temp, ord1 = &quot;&quot;, 0" style="rounded=0;whiteSpace=wrap;html=1;hachureGap=4;" vertex="1" parent="1">
          <mxGeometry x="66.5" y="224" width="119" height="30" as="geometry" />
        </mxCell>
        <mxCell id="gEHyTXg7Xbf_6CF12abO-13" style="edgeStyle=none;curved=1;rounded=0;orthogonalLoop=1;jettySize=auto;html=1;exitX=0.5;exitY=1;exitDx=0;exitDy=0;entryX=0.5;entryY=0;entryDx=0;entryDy=0;endArrow=open;startSize=14;endSize=14;sourcePerimeterSpacing=8;targetPerimeterSpacing=8;" edge="1" parent="1" source="gEHyTXg7Xbf_6CF12abO-6" target="gEHyTXg7Xbf_6CF12abO-12">
          <mxGeometry relative="1" as="geometry" />
        </mxCell>
        <mxCell id="gEHyTXg7Xbf_6CF12abO-6" value="for char in a" style="shape=hexagon;perimeter=hexagonPerimeter2;whiteSpace=wrap;html=1;fixedSize=1;hachureGap=4;" vertex="1" parent="1">
          <mxGeometry x="71" y="274" width="110" height="33" as="geometry" />
        </mxCell>
        <mxCell id="gEHyTXg7Xbf_6CF12abO-15" style="edgeStyle=none;curved=1;rounded=0;orthogonalLoop=1;jettySize=auto;html=1;exitX=0.5;exitY=1;exitDx=0;exitDy=0;entryX=0.5;entryY=0;entryDx=0;entryDy=0;endArrow=open;startSize=14;endSize=14;sourcePerimeterSpacing=8;targetPerimeterSpacing=8;" edge="1" parent="1" source="gEHyTXg7Xbf_6CF12abO-12" target="gEHyTXg7Xbf_6CF12abO-14">
          <mxGeometry relative="1" as="geometry" />
        </mxCell>
        <mxCell id="gEHyTXg7Xbf_6CF12abO-18" style="edgeStyle=none;curved=1;rounded=0;orthogonalLoop=1;jettySize=auto;html=1;exitX=0;exitY=0.5;exitDx=0;exitDy=0;entryX=0;entryY=0.5;entryDx=0;entryDy=0;endArrow=open;startSize=14;endSize=14;sourcePerimeterSpacing=8;targetPerimeterSpacing=8;" edge="1" parent="1" source="gEHyTXg7Xbf_6CF12abO-12" target="gEHyTXg7Xbf_6CF12abO-17">
          <mxGeometry relative="1" as="geometry">
            <Array as="points">
              <mxPoint x="6" y="384" />
              <mxPoint x="22" y="464" />
              <mxPoint x="12" y="570" />
            </Array>
          </mxGeometry>
        </mxCell>
        <mxCell id="gEHyTXg7Xbf_6CF12abO-12" value="ord(char)&amp;gt;-32 and ord(char)&amp;lt;=64" style="rhombus;whiteSpace=wrap;html=1;hachureGap=4;" vertex="1" parent="1">
          <mxGeometry x="62" y="334" width="128" height="121" as="geometry" />
        </mxCell>
        <mxCell id="gEHyTXg7Xbf_6CF12abO-41" style="edgeStyle=none;curved=1;rounded=0;orthogonalLoop=1;jettySize=auto;html=1;exitX=1;exitY=0.5;exitDx=0;exitDy=0;entryX=1;entryY=1;entryDx=0;entryDy=0;endArrow=open;startSize=14;endSize=14;sourcePerimeterSpacing=8;targetPerimeterSpacing=8;" edge="1" parent="1" source="gEHyTXg7Xbf_6CF12abO-14" target="gEHyTXg7Xbf_6CF12abO-30">
          <mxGeometry relative="1" as="geometry">
            <Array as="points">
              <mxPoint x="468" y="760" />
            </Array>
          </mxGeometry>
        </mxCell>
        <mxCell id="gEHyTXg7Xbf_6CF12abO-14" value="ord1 = ord(char)" style="rounded=0;whiteSpace=wrap;html=1;hachureGap=4;" vertex="1" parent="1">
          <mxGeometry x="71" y="475" width="110" height="37" as="geometry" />
        </mxCell>
        <mxCell id="gEHyTXg7Xbf_6CF12abO-16" value="yes" style="text;html=1;align=center;verticalAlign=middle;resizable=0;points=[];autosize=1;strokeColor=none;fillColor=none;hachureGap=4;" vertex="1" parent="1">
          <mxGeometry x="83" y="449" width="37" height="26" as="geometry" />
        </mxCell>
        <mxCell id="gEHyTXg7Xbf_6CF12abO-23" style="edgeStyle=none;curved=1;rounded=0;orthogonalLoop=1;jettySize=auto;html=1;exitX=0.5;exitY=1;exitDx=0;exitDy=0;entryX=0.5;entryY=0;entryDx=0;entryDy=0;endArrow=open;startSize=14;endSize=14;sourcePerimeterSpacing=8;targetPerimeterSpacing=8;" edge="1" parent="1" source="gEHyTXg7Xbf_6CF12abO-17" target="gEHyTXg7Xbf_6CF12abO-20">
          <mxGeometry relative="1" as="geometry" />
        </mxCell>
        <mxCell id="gEHyTXg7Xbf_6CF12abO-17" value="ord1 = ord(char)+b" style="rounded=0;whiteSpace=wrap;html=1;hachureGap=4;" vertex="1" parent="1">
          <mxGeometry x="69" y="535" width="121" height="40" as="geometry" />
        </mxCell>
        <mxCell id="gEHyTXg7Xbf_6CF12abO-19" value="no" style="text;html=1;align=center;verticalAlign=middle;resizable=0;points=[];autosize=1;strokeColor=none;fillColor=none;hachureGap=4;" vertex="1" parent="1">
          <mxGeometry x="32" y="370" width="31" height="26" as="geometry" />
        </mxCell>
        <mxCell id="gEHyTXg7Xbf_6CF12abO-26" style="edgeStyle=none;curved=1;rounded=0;orthogonalLoop=1;jettySize=auto;html=1;exitX=0.5;exitY=1;exitDx=0;exitDy=0;entryX=0.5;entryY=0;entryDx=0;entryDy=0;endArrow=open;startSize=14;endSize=14;sourcePerimeterSpacing=8;targetPerimeterSpacing=8;" edge="1" parent="1" source="gEHyTXg7Xbf_6CF12abO-20" target="gEHyTXg7Xbf_6CF12abO-25">
          <mxGeometry relative="1" as="geometry" />
        </mxCell>
        <mxCell id="gEHyTXg7Xbf_6CF12abO-33" style="edgeStyle=none;curved=1;rounded=0;orthogonalLoop=1;jettySize=auto;html=1;exitX=0;exitY=0.5;exitDx=0;exitDy=0;entryX=0;entryY=0.5;entryDx=0;entryDy=0;endArrow=open;startSize=14;endSize=14;targetPerimeterSpacing=8;startArrow=none;" edge="1" parent="1" source="gEHyTXg7Xbf_6CF12abO-34" target="gEHyTXg7Xbf_6CF12abO-24">
          <mxGeometry relative="1" as="geometry">
            <Array as="points">
              <mxPoint x="-12" y="803" />
            </Array>
          </mxGeometry>
        </mxCell>
        <mxCell id="gEHyTXg7Xbf_6CF12abO-20" value="ord1&amp;gt;122" style="rhombus;whiteSpace=wrap;html=1;hachureGap=4;" vertex="1" parent="1">
          <mxGeometry x="89.5" y="598" width="80" height="80" as="geometry" />
        </mxCell>
        <mxCell id="gEHyTXg7Xbf_6CF12abO-29" style="edgeStyle=none;curved=1;rounded=0;orthogonalLoop=1;jettySize=auto;html=1;exitX=0.5;exitY=1;exitDx=0;exitDy=0;entryX=0.5;entryY=0;entryDx=0;entryDy=0;endArrow=open;startSize=14;endSize=14;sourcePerimeterSpacing=8;targetPerimeterSpacing=8;" edge="1" parent="1" source="gEHyTXg7Xbf_6CF12abO-24" target="gEHyTXg7Xbf_6CF12abO-28">
          <mxGeometry relative="1" as="geometry" />
        </mxCell>
        <mxCell id="gEHyTXg7Xbf_6CF12abO-37" style="edgeStyle=none;curved=1;rounded=0;orthogonalLoop=1;jettySize=auto;html=1;exitX=1;exitY=0.5;exitDx=0;exitDy=0;entryX=1;entryY=0.5;entryDx=0;entryDy=0;endArrow=open;startSize=14;endSize=14;sourcePerimeterSpacing=8;targetPerimeterSpacing=8;" edge="1" parent="1" source="gEHyTXg7Xbf_6CF12abO-24" target="gEHyTXg7Xbf_6CF12abO-30">
          <mxGeometry relative="1" as="geometry">
            <Array as="points">
              <mxPoint x="225" y="870" />
            </Array>
          </mxGeometry>
        </mxCell>
        <mxCell id="gEHyTXg7Xbf_6CF12abO-24" value="ord1&amp;lt;97" style="rhombus;whiteSpace=wrap;html=1;hachureGap=4;" vertex="1" parent="1">
          <mxGeometry x="89.5" y="741" width="80" height="80" as="geometry" />
        </mxCell>
        <mxCell id="gEHyTXg7Xbf_6CF12abO-27" style="edgeStyle=none;curved=1;rounded=0;orthogonalLoop=1;jettySize=auto;html=1;exitX=0.5;exitY=1;exitDx=0;exitDy=0;entryX=0.5;entryY=0;entryDx=0;entryDy=0;endArrow=open;startSize=14;endSize=14;sourcePerimeterSpacing=8;targetPerimeterSpacing=8;" edge="1" parent="1" source="gEHyTXg7Xbf_6CF12abO-25" target="gEHyTXg7Xbf_6CF12abO-24">
          <mxGeometry relative="1" as="geometry" />
        </mxCell>
        <mxCell id="gEHyTXg7Xbf_6CF12abO-25" value="ord1-=26" style="rounded=0;whiteSpace=wrap;html=1;hachureGap=4;" vertex="1" parent="1">
          <mxGeometry x="92.5" y="696" width="74" height="27" as="geometry" />
        </mxCell>
        <mxCell id="gEHyTXg7Xbf_6CF12abO-28" value="ord1+=26" style="rounded=0;whiteSpace=wrap;html=1;hachureGap=4;" vertex="1" parent="1">
          <mxGeometry x="92.5" y="842" width="74" height="27" as="geometry" />
        </mxCell>
        <mxCell id="gEHyTXg7Xbf_6CF12abO-42" style="edgeStyle=none;curved=1;rounded=0;orthogonalLoop=1;jettySize=auto;html=1;exitX=0;exitY=0.5;exitDx=0;exitDy=0;entryX=0;entryY=0.5;entryDx=0;entryDy=0;endArrow=open;startSize=14;endSize=14;sourcePerimeterSpacing=8;targetPerimeterSpacing=8;" edge="1" parent="1" source="gEHyTXg7Xbf_6CF12abO-30" target="gEHyTXg7Xbf_6CF12abO-6">
          <mxGeometry relative="1" as="geometry">
            <Array as="points">
              <mxPoint x="-278" y="650" />
            </Array>
          </mxGeometry>
        </mxCell>
        <mxCell id="gEHyTXg7Xbf_6CF12abO-45" style="edgeStyle=none;curved=1;rounded=0;orthogonalLoop=1;jettySize=auto;html=1;exitX=0.5;exitY=1;exitDx=0;exitDy=0;entryX=0.5;entryY=0;entryDx=0;entryDy=0;endArrow=open;startSize=14;endSize=14;sourcePerimeterSpacing=8;targetPerimeterSpacing=8;" edge="1" parent="1" source="gEHyTXg7Xbf_6CF12abO-30" target="gEHyTXg7Xbf_6CF12abO-44">
          <mxGeometry relative="1" as="geometry" />
        </mxCell>
        <mxCell id="gEHyTXg7Xbf_6CF12abO-30" value="temp+=chr(ord1)" style="whiteSpace=wrap;html=1;hachureGap=4;" vertex="1" parent="1">
          <mxGeometry x="67.5" y="895" width="117" height="37" as="geometry" />
        </mxCell>
        <mxCell id="gEHyTXg7Xbf_6CF12abO-31" value="yes" style="text;html=1;align=center;verticalAlign=middle;resizable=0;points=[];autosize=1;strokeColor=none;fillColor=none;hachureGap=4;" vertex="1" parent="1">
          <mxGeometry x="140" y="667" width="37" height="26" as="geometry" />
        </mxCell>
        <mxCell id="gEHyTXg7Xbf_6CF12abO-32" value="yes" style="text;html=1;align=center;verticalAlign=middle;resizable=0;points=[];autosize=1;strokeColor=none;fillColor=none;hachureGap=4;" vertex="1" parent="1">
          <mxGeometry x="132.5" y="816" width="37" height="26" as="geometry" />
        </mxCell>
        <mxCell id="gEHyTXg7Xbf_6CF12abO-34" value="no" style="text;html=1;align=center;verticalAlign=middle;resizable=0;points=[];autosize=1;strokeColor=none;fillColor=none;hachureGap=4;" vertex="1" parent="1">
          <mxGeometry x="49" y="649" width="31" height="26" as="geometry" />
        </mxCell>
        <mxCell id="gEHyTXg7Xbf_6CF12abO-35" value="" style="edgeStyle=none;curved=1;rounded=0;orthogonalLoop=1;jettySize=auto;html=1;exitX=0;exitY=0.5;exitDx=0;exitDy=0;entryX=0;entryY=0.5;entryDx=0;entryDy=0;endArrow=none;startSize=14;endSize=14;sourcePerimeterSpacing=8;" edge="1" parent="1" source="gEHyTXg7Xbf_6CF12abO-20" target="gEHyTXg7Xbf_6CF12abO-34">
          <mxGeometry relative="1" as="geometry">
            <mxPoint x="89.5" y="638" as="sourcePoint" />
            <mxPoint x="67.50000000000011" y="913.5000000000002" as="targetPoint" />
            <Array as="points" />
          </mxGeometry>
        </mxCell>
        <mxCell id="gEHyTXg7Xbf_6CF12abO-36" value="no" style="text;html=1;align=center;verticalAlign=middle;resizable=0;points=[];autosize=1;strokeColor=none;fillColor=none;hachureGap=4;" vertex="1" parent="1">
          <mxGeometry x="198" y="821" width="31" height="26" as="geometry" />
        </mxCell>
        <mxCell id="gEHyTXg7Xbf_6CF12abO-47" style="edgeStyle=none;curved=1;rounded=0;orthogonalLoop=1;jettySize=auto;html=1;exitX=0.5;exitY=1;exitDx=0;exitDy=0;entryX=0.5;entryY=0;entryDx=0;entryDy=0;endArrow=open;startSize=14;endSize=14;sourcePerimeterSpacing=8;targetPerimeterSpacing=8;" edge="1" parent="1" source="gEHyTXg7Xbf_6CF12abO-44" target="gEHyTXg7Xbf_6CF12abO-46">
          <mxGeometry relative="1" as="geometry" />
        </mxCell>
        <mxCell id="gEHyTXg7Xbf_6CF12abO-44" value="return temp" style="rounded=0;whiteSpace=wrap;html=1;hachureGap=4;" vertex="1" parent="1">
          <mxGeometry x="81.5" y="964" width="89" height="36" as="geometry" />
        </mxCell>
        <mxCell id="gEHyTXg7Xbf_6CF12abO-46" value="END" style="ellipse;whiteSpace=wrap;html=1;hachureGap=4;" vertex="1" parent="1">
          <mxGeometry x="95" y="1032" width="62" height="31" as="geometry" />
        </mxCell>
      </root>
    </mxGraphModel>
  </diagram>
  <diagram id="x_1FnnAC-CNbayY4ZURy" name="quiz 4">
    <mxGraphModel dx="833" dy="786" grid="0" gridSize="10" guides="1" tooltips="1" connect="1" arrows="1" fold="1" page="0" pageScale="1" pageWidth="850" pageHeight="1100" math="0" shadow="0">
      <root>
        <mxCell id="0" />
        <mxCell id="1" parent="0" />
        <mxCell id="VzBInzHIwPkmpGI2mC1H-1" value="End" style="ellipse;whiteSpace=wrap;html=1;hachureGap=4;" vertex="1" parent="1">
          <mxGeometry x="107" y="467" width="90" height="37" as="geometry" />
        </mxCell>
        <mxCell id="VzBInzHIwPkmpGI2mC1H-9" style="edgeStyle=none;curved=1;rounded=0;orthogonalLoop=1;jettySize=auto;html=1;exitX=0.5;exitY=1;exitDx=0;exitDy=0;entryX=0.5;entryY=0;entryDx=0;entryDy=0;endArrow=open;startSize=14;endSize=14;sourcePerimeterSpacing=8;targetPerimeterSpacing=8;" edge="1" parent="1" source="VzBInzHIwPkmpGI2mC1H-2" target="VzBInzHIwPkmpGI2mC1H-3">
          <mxGeometry relative="1" as="geometry" />
        </mxCell>
        <mxCell id="VzBInzHIwPkmpGI2mC1H-2" value="Start" style="ellipse;whiteSpace=wrap;html=1;hachureGap=4;" vertex="1" parent="1">
          <mxGeometry x="125" y="35" width="90" height="37" as="geometry" />
        </mxCell>
        <mxCell id="VzBInzHIwPkmpGI2mC1H-10" style="edgeStyle=none;curved=1;rounded=0;orthogonalLoop=1;jettySize=auto;html=1;exitX=0.5;exitY=1;exitDx=0;exitDy=0;entryX=0.5;entryY=0;entryDx=0;entryDy=0;endArrow=open;startSize=14;endSize=14;sourcePerimeterSpacing=8;targetPerimeterSpacing=8;" edge="1" parent="1" source="VzBInzHIwPkmpGI2mC1H-3" target="VzBInzHIwPkmpGI2mC1H-5">
          <mxGeometry relative="1" as="geometry" />
        </mxCell>
        <mxCell id="VzBInzHIwPkmpGI2mC1H-3" value="num_1 = int(input(&quot;Please enter an integer: &quot;))" style="shape=parallelogram;perimeter=parallelogramPerimeter;whiteSpace=wrap;html=1;fixedSize=1;hachureGap=4;" vertex="1" parent="1">
          <mxGeometry x="24.5" y="93" width="291" height="35" as="geometry" />
        </mxCell>
        <mxCell id="VzBInzHIwPkmpGI2mC1H-11" style="edgeStyle=none;curved=1;rounded=0;orthogonalLoop=1;jettySize=auto;html=1;exitX=0.5;exitY=1;exitDx=0;exitDy=0;entryX=0.5;entryY=0;entryDx=0;entryDy=0;endArrow=open;startSize=14;endSize=14;sourcePerimeterSpacing=8;targetPerimeterSpacing=8;" edge="1" parent="1" source="VzBInzHIwPkmpGI2mC1H-5" target="VzBInzHIwPkmpGI2mC1H-6">
          <mxGeometry relative="1" as="geometry" />
        </mxCell>
        <mxCell id="VzBInzHIwPkmpGI2mC1H-5" value="d_1 = num_1%10&lt;br&gt;num_2 = int(num_1/10)&lt;br&gt;d_2 = num_2%10" style="rounded=0;whiteSpace=wrap;html=1;hachureGap=4;" vertex="1" parent="1">
          <mxGeometry x="92.5" y="152" width="155" height="60" as="geometry" />
        </mxCell>
        <mxCell id="VzBInzHIwPkmpGI2mC1H-12" style="edgeStyle=none;curved=1;rounded=0;orthogonalLoop=1;jettySize=auto;html=1;exitX=0.5;exitY=1;exitDx=0;exitDy=0;entryX=0.5;entryY=0;entryDx=0;entryDy=0;endArrow=open;startSize=14;endSize=14;sourcePerimeterSpacing=8;targetPerimeterSpacing=8;" edge="1" parent="1" source="VzBInzHIwPkmpGI2mC1H-6" target="VzBInzHIwPkmpGI2mC1H-7">
          <mxGeometry relative="1" as="geometry" />
        </mxCell>
        <mxCell id="VzBInzHIwPkmpGI2mC1H-13" style="edgeStyle=none;curved=1;rounded=0;orthogonalLoop=1;jettySize=auto;html=1;exitX=0;exitY=0.5;exitDx=0;exitDy=0;entryX=0;entryY=0.5;entryDx=0;entryDy=0;endArrow=open;startSize=14;endSize=14;sourcePerimeterSpacing=8;targetPerimeterSpacing=8;" edge="1" parent="1" source="VzBInzHIwPkmpGI2mC1H-6" target="VzBInzHIwPkmpGI2mC1H-8">
          <mxGeometry relative="1" as="geometry">
            <Array as="points">
              <mxPoint x="42" y="337" />
            </Array>
          </mxGeometry>
        </mxCell>
        <mxCell id="VzBInzHIwPkmpGI2mC1H-6" value="num_1 != d_1 + d_2" style="rhombus;whiteSpace=wrap;html=1;hachureGap=4;" vertex="1" parent="1">
          <mxGeometry x="96.5" y="233" width="147" height="80" as="geometry" />
        </mxCell>
        <mxCell id="VzBInzHIwPkmpGI2mC1H-18" style="edgeStyle=none;curved=1;rounded=0;orthogonalLoop=1;jettySize=auto;html=1;exitX=1;exitY=0.5;exitDx=0;exitDy=0;entryX=1;entryY=0;entryDx=0;entryDy=0;endArrow=open;startSize=14;endSize=14;sourcePerimeterSpacing=8;targetPerimeterSpacing=8;" edge="1" parent="1" source="VzBInzHIwPkmpGI2mC1H-7" target="VzBInzHIwPkmpGI2mC1H-1">
          <mxGeometry relative="1" as="geometry">
            <Array as="points">
              <mxPoint x="295" y="422" />
            </Array>
          </mxGeometry>
        </mxCell>
        <mxCell id="VzBInzHIwPkmpGI2mC1H-7" value="print(&quot;Perfect&quot;)" style="shape=parallelogram;perimeter=parallelogramPerimeter;whiteSpace=wrap;html=1;fixedSize=1;hachureGap=4;" vertex="1" parent="1">
          <mxGeometry x="110" y="334" width="120" height="38" as="geometry" />
        </mxCell>
        <mxCell id="VzBInzHIwPkmpGI2mC1H-17" style="edgeStyle=none;curved=1;rounded=0;orthogonalLoop=1;jettySize=auto;html=1;exitX=0.5;exitY=1;exitDx=0;exitDy=0;entryX=0.5;entryY=0;entryDx=0;entryDy=0;endArrow=open;startSize=14;endSize=14;sourcePerimeterSpacing=8;targetPerimeterSpacing=8;" edge="1" parent="1" source="VzBInzHIwPkmpGI2mC1H-8" target="VzBInzHIwPkmpGI2mC1H-1">
          <mxGeometry relative="1" as="geometry" />
        </mxCell>
        <mxCell id="VzBInzHIwPkmpGI2mC1H-8" value="print(&quot;Not Perfect&quot;)" style="shape=parallelogram;perimeter=parallelogramPerimeter;whiteSpace=wrap;html=1;fixedSize=1;hachureGap=4;" vertex="1" parent="1">
          <mxGeometry x="110" y="391" width="120" height="38" as="geometry" />
        </mxCell>
        <mxCell id="VzBInzHIwPkmpGI2mC1H-14" value="yes" style="text;html=1;align=center;verticalAlign=middle;resizable=0;points=[];autosize=1;strokeColor=none;fillColor=none;hachureGap=4;" vertex="1" parent="1">
          <mxGeometry x="176" y="308" width="37" height="26" as="geometry" />
        </mxCell>
        <mxCell id="VzBInzHIwPkmpGI2mC1H-15" value="no" style="text;html=1;align=center;verticalAlign=middle;resizable=0;points=[];autosize=1;strokeColor=none;fillColor=none;hachureGap=4;" vertex="1" parent="1">
          <mxGeometry x="76" y="305" width="31" height="26" as="geometry" />
        </mxCell>
      </root>
    </mxGraphModel>
  </diagram>
  <diagram id="r3ZawOBDonISdl_5sFLe" name="quiz 011">
    <mxGraphModel dx="1943" dy="1833" grid="0" gridSize="10" guides="1" tooltips="1" connect="1" arrows="1" fold="1" page="0" pageScale="1" pageWidth="850" pageHeight="1100" math="0" shadow="0">
      <root>
        <mxCell id="0" />
        <mxCell id="1" parent="0" />
        <mxCell id="3b3L-QqUGlrsMesXc-mm-11" style="edgeStyle=none;curved=1;rounded=0;orthogonalLoop=1;jettySize=auto;html=1;exitX=0.5;exitY=1;exitDx=0;exitDy=0;entryX=0.5;entryY=0;entryDx=0;entryDy=0;endArrow=open;startSize=14;endSize=14;sourcePerimeterSpacing=8;targetPerimeterSpacing=8;" edge="1" parent="1" source="3b3L-QqUGlrsMesXc-mm-1" target="3b3L-QqUGlrsMesXc-mm-3">
          <mxGeometry relative="1" as="geometry" />
        </mxCell>
        <mxCell id="3b3L-QqUGlrsMesXc-mm-1" value="def bestMonth(mm)-&amp;gt;str:" style="shape=process;whiteSpace=wrap;html=1;backgroundOutline=1;hachureGap=4;" vertex="1" parent="1">
          <mxGeometry x="137" y="112" width="179" height="41" as="geometry" />
        </mxCell>
        <mxCell id="3b3L-QqUGlrsMesXc-mm-10" style="edgeStyle=none;curved=1;rounded=0;orthogonalLoop=1;jettySize=auto;html=1;exitX=0.5;exitY=1;exitDx=0;exitDy=0;entryX=0.5;entryY=0;entryDx=0;entryDy=0;endArrow=open;startSize=14;endSize=14;sourcePerimeterSpacing=8;targetPerimeterSpacing=8;" edge="1" parent="1" source="3b3L-QqUGlrsMesXc-mm-2" target="3b3L-QqUGlrsMesXc-mm-1">
          <mxGeometry relative="1" as="geometry" />
        </mxCell>
        <mxCell id="3b3L-QqUGlrsMesXc-mm-2" value="Start" style="ellipse;whiteSpace=wrap;html=1;hachureGap=4;" vertex="1" parent="1">
          <mxGeometry x="186.5" y="53" width="80" height="38.54" as="geometry" />
        </mxCell>
        <mxCell id="3b3L-QqUGlrsMesXc-mm-9" style="edgeStyle=none;curved=1;rounded=0;orthogonalLoop=1;jettySize=auto;html=1;exitX=0.5;exitY=1;exitDx=0;exitDy=0;entryX=0.5;entryY=0;entryDx=0;entryDy=0;endArrow=open;startSize=14;endSize=14;sourcePerimeterSpacing=8;targetPerimeterSpacing=8;" edge="1" parent="1" source="3b3L-QqUGlrsMesXc-mm-3" target="3b3L-QqUGlrsMesXc-mm-4">
          <mxGeometry relative="1" as="geometry" />
        </mxCell>
        <mxCell id="3b3L-QqUGlrsMesXc-mm-3" value="&lt;div&gt;output,day=&#39;&#39;,2021 % 400&lt;/div&gt;&lt;div&gt;&amp;nbsp; &amp;nbsp; day = (day // 100) * 5 + ((day % 100) - (day % 100) // 4) + ((day % 100) // 4) * 2&lt;/div&gt;&lt;div&gt;&amp;nbsp; &amp;nbsp; day = day % 7&lt;/div&gt;&lt;div&gt;&amp;nbsp; &amp;nbsp; month = {1: &#39;January&#39;, 2: &#39;February&#39;, 3: &#39;March&#39;,&lt;/div&gt;&lt;div&gt;&amp;nbsp; &amp;nbsp; &amp;nbsp; &amp;nbsp; &amp;nbsp; &amp;nbsp; &amp;nbsp;4: &#39;April&#39;, 5: &#39;May&#39;, 6: &#39;June&#39;, 7: &#39;July&#39;,&lt;/div&gt;&lt;div&gt;&amp;nbsp; &amp;nbsp; &amp;nbsp; &amp;nbsp; &amp;nbsp; &amp;nbsp; &amp;nbsp;8: &#39;August&#39;, 9: &#39;September&#39;, 10: &#39;October&#39;,&lt;/div&gt;&lt;div&gt;&amp;nbsp; &amp;nbsp; &amp;nbsp; &amp;nbsp; &amp;nbsp; &amp;nbsp; &amp;nbsp;11: &#39;November&#39;, 12: &#39;December&#39;}&lt;/div&gt;&lt;div&gt;&lt;br&gt;&lt;/div&gt;&lt;div&gt;&amp;nbsp; &amp;nbsp; days = [31, 28, 31, 30, 31, 30,&lt;/div&gt;&lt;div&gt;&amp;nbsp; &amp;nbsp; &amp;nbsp; &amp;nbsp;31, 31, 30, 31, 30, 31]&lt;/div&gt;&lt;div&gt;&amp;nbsp; &amp;nbsp; s = 0&lt;/div&gt;" style="rounded=0;whiteSpace=wrap;html=1;hachureGap=4;" vertex="1" parent="1">
          <mxGeometry x="7" y="185" width="439" height="186" as="geometry" />
        </mxCell>
        <mxCell id="3b3L-QqUGlrsMesXc-mm-7" style="edgeStyle=none;curved=1;rounded=0;orthogonalLoop=1;jettySize=auto;html=1;exitX=0.5;exitY=1;exitDx=0;exitDy=0;entryX=0.5;entryY=0;entryDx=0;entryDy=0;endArrow=open;startSize=14;endSize=14;sourcePerimeterSpacing=8;targetPerimeterSpacing=8;" edge="1" parent="1" source="3b3L-QqUGlrsMesXc-mm-4" target="3b3L-QqUGlrsMesXc-mm-6">
          <mxGeometry relative="1" as="geometry" />
        </mxCell>
        <mxCell id="3b3L-QqUGlrsMesXc-mm-4" value="for i in range(mm-1)" style="shape=hexagon;perimeter=hexagonPerimeter2;whiteSpace=wrap;html=1;fixedSize=1;hachureGap=4;" vertex="1" parent="1">
          <mxGeometry x="166.5" y="399" width="120" height="48" as="geometry" />
        </mxCell>
        <mxCell id="3b3L-QqUGlrsMesXc-mm-8" style="edgeStyle=none;curved=1;rounded=0;orthogonalLoop=1;jettySize=auto;html=1;exitX=1;exitY=0.5;exitDx=0;exitDy=0;entryX=1;entryY=0.5;entryDx=0;entryDy=0;endArrow=open;startSize=14;endSize=14;sourcePerimeterSpacing=8;targetPerimeterSpacing=8;" edge="1" parent="1" source="3b3L-QqUGlrsMesXc-mm-6" target="3b3L-QqUGlrsMesXc-mm-4">
          <mxGeometry relative="1" as="geometry">
            <Array as="points">
              <mxPoint x="299" y="466" />
            </Array>
          </mxGeometry>
        </mxCell>
        <mxCell id="3b3L-QqUGlrsMesXc-mm-13" style="edgeStyle=none;curved=1;rounded=0;orthogonalLoop=1;jettySize=auto;html=1;exitX=0.5;exitY=1;exitDx=0;exitDy=0;entryX=0.5;entryY=0;entryDx=0;entryDy=0;endArrow=open;startSize=14;endSize=14;sourcePerimeterSpacing=8;targetPerimeterSpacing=8;" edge="1" parent="1" source="3b3L-QqUGlrsMesXc-mm-6" target="3b3L-QqUGlrsMesXc-mm-12">
          <mxGeometry relative="1" as="geometry" />
        </mxCell>
        <mxCell id="3b3L-QqUGlrsMesXc-mm-6" value="s+=days[i]" style="rounded=0;whiteSpace=wrap;html=1;hachureGap=4;" vertex="1" parent="1">
          <mxGeometry x="181.5" y="465" width="90" height="30" as="geometry" />
        </mxCell>
        <mxCell id="3b3L-QqUGlrsMesXc-mm-15" style="edgeStyle=none;curved=1;rounded=0;orthogonalLoop=1;jettySize=auto;html=1;exitX=0.5;exitY=1;exitDx=0;exitDy=0;entryX=0.5;entryY=0;entryDx=0;entryDy=0;endArrow=open;startSize=14;endSize=14;sourcePerimeterSpacing=8;targetPerimeterSpacing=8;" edge="1" parent="1" source="3b3L-QqUGlrsMesXc-mm-12" target="3b3L-QqUGlrsMesXc-mm-14">
          <mxGeometry relative="1" as="geometry" />
        </mxCell>
        <mxCell id="3b3L-QqUGlrsMesXc-mm-12" value="&lt;div&gt;day += s % 7&lt;/div&gt;&lt;div&gt;&amp;nbsp; &amp;nbsp; day = day % 7&lt;/div&gt;&lt;div&gt;&lt;br&gt;&lt;/div&gt;&lt;div&gt;&amp;nbsp; &amp;nbsp; space = &#39;&#39;&lt;/div&gt;&lt;div&gt;&amp;nbsp; &amp;nbsp; space = space.rjust(2, &#39; &#39;)&lt;/div&gt;&lt;div&gt;&lt;br&gt;&lt;/div&gt;&lt;div&gt;&amp;nbsp; &amp;nbsp; output += f&quot;\33[0;31m&amp;nbsp; &amp;nbsp; &quot;+str(month[mm])+ &quot; 2022\n&quot;&lt;/div&gt;&lt;div&gt;&amp;nbsp; &amp;nbsp; output +=&#39;Su&amp;nbsp; &#39;+ &#39;Mo&amp;nbsp; &#39;+ &#39;Tu&amp;nbsp; &#39;+ &#39;We&amp;nbsp; &#39;+ &#39;Th&amp;nbsp; &#39;+ &#39;Fr&amp;nbsp; &#39;+ &#39;Sa&amp;nbsp; &#39;+ &#39;\n&#39;&lt;/div&gt;" style="rounded=0;whiteSpace=wrap;html=1;hachureGap=4;" vertex="1" parent="1">
          <mxGeometry x="42" y="524" width="369" height="128" as="geometry" />
        </mxCell>
        <mxCell id="3b3L-QqUGlrsMesXc-mm-17" style="edgeStyle=none;curved=1;rounded=0;orthogonalLoop=1;jettySize=auto;html=1;exitX=0.5;exitY=1;exitDx=0;exitDy=0;entryX=0.5;entryY=0;entryDx=0;entryDy=0;endArrow=open;startSize=14;endSize=14;sourcePerimeterSpacing=8;targetPerimeterSpacing=8;" edge="1" parent="1" source="3b3L-QqUGlrsMesXc-mm-14" target="3b3L-QqUGlrsMesXc-mm-16">
          <mxGeometry relative="1" as="geometry" />
        </mxCell>
        <mxCell id="3b3L-QqUGlrsMesXc-mm-31" style="edgeStyle=none;curved=1;rounded=0;orthogonalLoop=1;jettySize=auto;html=1;exitX=1;exitY=0.5;exitDx=0;exitDy=0;entryX=0;entryY=0.5;entryDx=0;entryDy=0;endArrow=open;startSize=14;endSize=14;sourcePerimeterSpacing=8;targetPerimeterSpacing=8;" edge="1" parent="1" source="3b3L-QqUGlrsMesXc-mm-14" target="3b3L-QqUGlrsMesXc-mm-30">
          <mxGeometry relative="1" as="geometry" />
        </mxCell>
        <mxCell id="3b3L-QqUGlrsMesXc-mm-14" value="mm=9 or mm=4 or mm=6 or mm=11" style="rhombus;whiteSpace=wrap;html=1;hachureGap=4;" vertex="1" parent="1">
          <mxGeometry x="97.25" y="681" width="258.5" height="59" as="geometry" />
        </mxCell>
        <mxCell id="3b3L-QqUGlrsMesXc-mm-20" style="edgeStyle=none;curved=1;rounded=0;orthogonalLoop=1;jettySize=auto;html=1;exitX=0.5;exitY=1;exitDx=0;exitDy=0;entryX=0.5;entryY=0;entryDx=0;entryDy=0;endArrow=open;startSize=14;endSize=14;sourcePerimeterSpacing=8;targetPerimeterSpacing=8;" edge="1" parent="1" source="3b3L-QqUGlrsMesXc-mm-16" target="3b3L-QqUGlrsMesXc-mm-18">
          <mxGeometry relative="1" as="geometry" />
        </mxCell>
        <mxCell id="3b3L-QqUGlrsMesXc-mm-16" value="for i in range(31+day)" style="shape=hexagon;perimeter=hexagonPerimeter2;whiteSpace=wrap;html=1;fixedSize=1;hachureGap=4;" vertex="1" parent="1">
          <mxGeometry x="158.25" y="764" width="136.5" height="36" as="geometry" />
        </mxCell>
        <mxCell id="3b3L-QqUGlrsMesXc-mm-21" style="edgeStyle=none;curved=1;rounded=0;orthogonalLoop=1;jettySize=auto;html=1;exitX=0.5;exitY=1;exitDx=0;exitDy=0;entryX=0.5;entryY=0;entryDx=0;entryDy=0;endArrow=open;startSize=14;endSize=14;sourcePerimeterSpacing=8;targetPerimeterSpacing=8;" edge="1" parent="1" source="3b3L-QqUGlrsMesXc-mm-18" target="3b3L-QqUGlrsMesXc-mm-19">
          <mxGeometry relative="1" as="geometry" />
        </mxCell>
        <mxCell id="3b3L-QqUGlrsMesXc-mm-23" style="edgeStyle=none;curved=1;rounded=0;orthogonalLoop=1;jettySize=auto;html=1;exitX=0;exitY=0.5;exitDx=0;exitDy=0;entryX=0;entryY=0.5;entryDx=0;entryDy=0;endArrow=open;startSize=14;endSize=14;sourcePerimeterSpacing=8;targetPerimeterSpacing=8;" edge="1" parent="1" source="3b3L-QqUGlrsMesXc-mm-18" target="3b3L-QqUGlrsMesXc-mm-22">
          <mxGeometry relative="1" as="geometry">
            <Array as="points">
              <mxPoint x="50" y="969" />
            </Array>
          </mxGeometry>
        </mxCell>
        <mxCell id="3b3L-QqUGlrsMesXc-mm-18" value="if i&amp;lt;= day" style="rhombus;whiteSpace=wrap;html=1;hachureGap=4;" vertex="1" parent="1">
          <mxGeometry x="186.5" y="829" width="80" height="80" as="geometry" />
        </mxCell>
        <mxCell id="3b3L-QqUGlrsMesXc-mm-28" style="edgeStyle=none;curved=1;rounded=0;orthogonalLoop=1;jettySize=auto;html=1;exitX=1;exitY=0.5;exitDx=0;exitDy=0;entryX=1;entryY=0.5;entryDx=0;entryDy=0;endArrow=open;startSize=14;endSize=14;sourcePerimeterSpacing=8;targetPerimeterSpacing=8;" edge="1" parent="1" source="3b3L-QqUGlrsMesXc-mm-19" target="3b3L-QqUGlrsMesXc-mm-16">
          <mxGeometry relative="1" as="geometry">
            <Array as="points">
              <mxPoint x="310" y="896" />
            </Array>
          </mxGeometry>
        </mxCell>
        <mxCell id="3b3L-QqUGlrsMesXc-mm-19" value="output+=space" style="rounded=0;whiteSpace=wrap;html=1;hachureGap=4;" vertex="1" parent="1">
          <mxGeometry x="171" y="928" width="111" height="41" as="geometry" />
        </mxCell>
        <mxCell id="3b3L-QqUGlrsMesXc-mm-25" style="edgeStyle=none;curved=1;rounded=0;orthogonalLoop=1;jettySize=auto;html=1;exitX=0.5;exitY=1;exitDx=0;exitDy=0;entryX=0.5;entryY=0;entryDx=0;entryDy=0;endArrow=open;startSize=14;endSize=14;sourcePerimeterSpacing=8;targetPerimeterSpacing=8;" edge="1" parent="1" source="3b3L-QqUGlrsMesXc-mm-22" target="3b3L-QqUGlrsMesXc-mm-24">
          <mxGeometry relative="1" as="geometry" />
        </mxCell>
        <mxCell id="3b3L-QqUGlrsMesXc-mm-22" value="output+=str(&quot;{:02d}&quot;.format(i - day))" style="rounded=0;whiteSpace=wrap;html=1;hachureGap=4;" vertex="1" parent="1">
          <mxGeometry x="122.25" y="985" width="208.5" height="32" as="geometry" />
        </mxCell>
        <mxCell id="3b3L-QqUGlrsMesXc-mm-27" style="edgeStyle=none;curved=1;rounded=0;orthogonalLoop=1;jettySize=auto;html=1;exitX=0.5;exitY=1;exitDx=0;exitDy=0;entryX=0.5;entryY=0;entryDx=0;entryDy=0;endArrow=open;startSize=14;endSize=14;sourcePerimeterSpacing=8;targetPerimeterSpacing=8;" edge="1" parent="1" source="3b3L-QqUGlrsMesXc-mm-24" target="3b3L-QqUGlrsMesXc-mm-26">
          <mxGeometry relative="1" as="geometry" />
        </mxCell>
        <mxCell id="3b3L-QqUGlrsMesXc-mm-24" value="(i+1)%7 ==0" style="rhombus;whiteSpace=wrap;html=1;hachureGap=4;" vertex="1" parent="1">
          <mxGeometry x="186.5" y="1039" width="80" height="80" as="geometry" />
        </mxCell>
        <mxCell id="3b3L-QqUGlrsMesXc-mm-29" style="edgeStyle=none;curved=1;rounded=0;orthogonalLoop=1;jettySize=auto;html=1;exitX=1;exitY=0.5;exitDx=0;exitDy=0;entryX=1;entryY=0.25;entryDx=0;entryDy=0;endArrow=open;startSize=14;endSize=14;sourcePerimeterSpacing=8;targetPerimeterSpacing=8;" edge="1" parent="1" source="3b3L-QqUGlrsMesXc-mm-26" target="3b3L-QqUGlrsMesXc-mm-16">
          <mxGeometry relative="1" as="geometry">
            <Array as="points">
              <mxPoint x="465" y="832" />
            </Array>
          </mxGeometry>
        </mxCell>
        <mxCell id="3b3L-QqUGlrsMesXc-mm-79" style="edgeStyle=none;curved=1;rounded=0;orthogonalLoop=1;jettySize=auto;html=1;exitX=0.5;exitY=1;exitDx=0;exitDy=0;entryX=0.5;entryY=0;entryDx=0;entryDy=0;endArrow=open;startSize=14;endSize=14;sourcePerimeterSpacing=8;targetPerimeterSpacing=8;" edge="1" parent="1" source="3b3L-QqUGlrsMesXc-mm-26" target="3b3L-QqUGlrsMesXc-mm-78">
          <mxGeometry relative="1" as="geometry" />
        </mxCell>
        <mxCell id="3b3L-QqUGlrsMesXc-mm-26" value="output+=&quot;\n&quot;" style="rounded=0;whiteSpace=wrap;html=1;hachureGap=4;" vertex="1" parent="1">
          <mxGeometry x="170.13" y="1141" width="112.75" height="32" as="geometry" />
        </mxCell>
        <mxCell id="3b3L-QqUGlrsMesXc-mm-38" style="edgeStyle=none;curved=1;rounded=0;orthogonalLoop=1;jettySize=auto;html=1;exitX=0.5;exitY=1;exitDx=0;exitDy=0;entryX=0.5;entryY=0;entryDx=0;entryDy=0;endArrow=open;startSize=14;endSize=14;sourcePerimeterSpacing=8;targetPerimeterSpacing=8;" edge="1" parent="1" source="3b3L-QqUGlrsMesXc-mm-30" target="3b3L-QqUGlrsMesXc-mm-34">
          <mxGeometry relative="1" as="geometry" />
        </mxCell>
        <mxCell id="3b3L-QqUGlrsMesXc-mm-55" style="edgeStyle=none;curved=1;rounded=0;orthogonalLoop=1;jettySize=auto;html=1;exitX=1;exitY=0.5;exitDx=0;exitDy=0;endArrow=open;startSize=14;endSize=14;sourcePerimeterSpacing=8;targetPerimeterSpacing=8;entryX=0;entryY=0.5;entryDx=0;entryDy=0;" edge="1" parent="1" source="3b3L-QqUGlrsMesXc-mm-30" target="3b3L-QqUGlrsMesXc-mm-54">
          <mxGeometry relative="1" as="geometry" />
        </mxCell>
        <mxCell id="3b3L-QqUGlrsMesXc-mm-30" value="mm=2" style="rhombus;whiteSpace=wrap;html=1;hachureGap=4;" vertex="1" parent="1">
          <mxGeometry x="551.5" y="676.5" width="80" height="61.5" as="geometry" />
        </mxCell>
        <mxCell id="3b3L-QqUGlrsMesXc-mm-32" value="yes" style="text;html=1;align=center;verticalAlign=middle;resizable=0;points=[];autosize=1;strokeColor=none;fillColor=none;hachureGap=4;" vertex="1" parent="1">
          <mxGeometry x="245" y="738" width="37" height="26" as="geometry" />
        </mxCell>
        <mxCell id="3b3L-QqUGlrsMesXc-mm-33" value="no" style="text;html=1;align=center;verticalAlign=middle;resizable=0;points=[];autosize=1;strokeColor=none;fillColor=none;hachureGap=4;" vertex="1" parent="1">
          <mxGeometry x="353" y="681" width="31" height="26" as="geometry" />
        </mxCell>
        <mxCell id="3b3L-QqUGlrsMesXc-mm-40" style="edgeStyle=none;curved=1;rounded=0;orthogonalLoop=1;jettySize=auto;html=1;exitX=0.5;exitY=1;exitDx=0;exitDy=0;entryX=0.5;entryY=0;entryDx=0;entryDy=0;endArrow=open;startSize=14;endSize=14;sourcePerimeterSpacing=8;targetPerimeterSpacing=8;" edge="1" parent="1" source="3b3L-QqUGlrsMesXc-mm-34" target="3b3L-QqUGlrsMesXc-mm-35">
          <mxGeometry relative="1" as="geometry" />
        </mxCell>
        <mxCell id="3b3L-QqUGlrsMesXc-mm-34" value="p=29" style="rounded=0;whiteSpace=wrap;html=1;hachureGap=4;" vertex="1" parent="1">
          <mxGeometry x="551.5" y="774" width="81" height="39" as="geometry" />
        </mxCell>
        <mxCell id="3b3L-QqUGlrsMesXc-mm-41" style="edgeStyle=none;curved=1;rounded=0;orthogonalLoop=1;jettySize=auto;html=1;exitX=0.5;exitY=1;exitDx=0;exitDy=0;entryX=0.5;entryY=0;entryDx=0;entryDy=0;endArrow=open;startSize=14;endSize=14;sourcePerimeterSpacing=8;targetPerimeterSpacing=8;" edge="1" parent="1" source="3b3L-QqUGlrsMesXc-mm-35" target="3b3L-QqUGlrsMesXc-mm-36">
          <mxGeometry relative="1" as="geometry" />
        </mxCell>
        <mxCell id="3b3L-QqUGlrsMesXc-mm-35" value="for i in range(p+day)" style="shape=hexagon;perimeter=hexagonPerimeter2;whiteSpace=wrap;html=1;fixedSize=1;hachureGap=4;" vertex="1" parent="1">
          <mxGeometry x="532" y="829" width="120" height="39" as="geometry" />
        </mxCell>
        <mxCell id="3b3L-QqUGlrsMesXc-mm-42" style="edgeStyle=none;curved=1;rounded=0;orthogonalLoop=1;jettySize=auto;html=1;exitX=0.5;exitY=1;exitDx=0;exitDy=0;entryX=0.5;entryY=0;entryDx=0;entryDy=0;endArrow=open;startSize=14;endSize=14;sourcePerimeterSpacing=8;targetPerimeterSpacing=8;" edge="1" parent="1" source="3b3L-QqUGlrsMesXc-mm-36" target="3b3L-QqUGlrsMesXc-mm-37">
          <mxGeometry relative="1" as="geometry" />
        </mxCell>
        <mxCell id="3b3L-QqUGlrsMesXc-mm-48" style="edgeStyle=none;curved=1;rounded=0;orthogonalLoop=1;jettySize=auto;html=1;exitX=0;exitY=0.5;exitDx=0;exitDy=0;entryX=0.25;entryY=0;entryDx=0;entryDy=0;endArrow=open;startSize=14;endSize=14;sourcePerimeterSpacing=8;targetPerimeterSpacing=8;" edge="1" parent="1" source="3b3L-QqUGlrsMesXc-mm-36" target="3b3L-QqUGlrsMesXc-mm-46">
          <mxGeometry relative="1" as="geometry" />
        </mxCell>
        <mxCell id="3b3L-QqUGlrsMesXc-mm-36" value="i&amp;lt;=day" style="rhombus;whiteSpace=wrap;html=1;hachureGap=4;" vertex="1" parent="1">
          <mxGeometry x="553.5" y="886" width="77" height="59" as="geometry" />
        </mxCell>
        <mxCell id="3b3L-QqUGlrsMesXc-mm-37" value="output+=space" style="rounded=0;whiteSpace=wrap;html=1;hachureGap=4;" vertex="1" parent="1">
          <mxGeometry x="553.5" y="960" width="81" height="39" as="geometry" />
        </mxCell>
        <mxCell id="3b3L-QqUGlrsMesXc-mm-39" value="yes" style="text;html=1;align=center;verticalAlign=middle;resizable=0;points=[];autosize=1;strokeColor=none;fillColor=none;hachureGap=4;" vertex="1" parent="1">
          <mxGeometry x="553.5" y="738" width="37" height="26" as="geometry" />
        </mxCell>
        <mxCell id="3b3L-QqUGlrsMesXc-mm-44" value="" style="shape=stencil(fZbdcgIhDIWfZm8zQAg/17Z9j85U606tdqz9e/tmZ0c0uJ47xP0I5JwEBl59bp8/1kNwn6fj4W39M76ctgM/DCGM++36OJ50NPDjwKvN4bh+PR6+9i/z74/n6ctp9H74nlb4nbmSKZeJCu5vngmZ6jzzNAO7cX8FVKEsBuBKrgKg9oAE8gkCbLeUhEoEQKSUDZDLeWYRKIl8MEDRmHwfyBrBG6Amyu4+kDxxMoB3jhwgYu7TVAsVkFcWCs4CTBEoF4RctKeOxHIf8IXYpikHikAIf+MNUW94AGSSaoAoFIE3AlOyeWU+p2E5S9yfQZcQILVuQOwZdJNoS9Ls3wA5u2XZTIHECqeJ9kDpSaauRiNVcAY1QhdBzeLBli5WazpkSsBLV25uRaqWRyFawTQzRRIQYirJzq5atkBqLfouwqUxLBepthWb10vrWZY6UOAeyKCCtDV625mm9gmUC4Wc3VLJMMIE1BsA2FW9JraVlQB7n3c9oMKhCLEvIM1zBPZ25/umNQ1tVEC2G+fFCC8g398O2hNQuQlVu752DBfA+q0ptnqO5JFmeuIuo9DY7KjY71UxdJV4EntifPWorW++R/dC4t7V3DlIB5cHx2bc7eb3yvX//QNFp+bHDT/+Aw==);lineShape=1;sketch=0;hachureGap=4;" vertex="1" parent="1">
          <mxGeometry x="644.7126510101721" y="1054.8445042424498" width="4.918462918016016" height="4.910774964586572" as="geometry" />
        </mxCell>
        <mxCell id="3b3L-QqUGlrsMesXc-mm-52" style="edgeStyle=none;curved=1;rounded=0;orthogonalLoop=1;jettySize=auto;html=1;exitX=0.5;exitY=1;exitDx=0;exitDy=0;entryX=0.5;entryY=0;entryDx=0;entryDy=0;endArrow=open;startSize=14;endSize=14;sourcePerimeterSpacing=8;targetPerimeterSpacing=8;" edge="1" parent="1" source="3b3L-QqUGlrsMesXc-mm-45" target="3b3L-QqUGlrsMesXc-mm-47">
          <mxGeometry relative="1" as="geometry" />
        </mxCell>
        <mxCell id="3b3L-QqUGlrsMesXc-mm-45" value="(i+1)%7==0" style="rhombus;whiteSpace=wrap;html=1;hachureGap=4;" vertex="1" parent="1">
          <mxGeometry x="553.5" y="1075" width="77" height="57" as="geometry" />
        </mxCell>
        <mxCell id="3b3L-QqUGlrsMesXc-mm-51" style="edgeStyle=none;curved=1;rounded=0;orthogonalLoop=1;jettySize=auto;html=1;exitX=0.5;exitY=1;exitDx=0;exitDy=0;entryX=0.5;entryY=0;entryDx=0;entryDy=0;endArrow=open;startSize=14;endSize=14;sourcePerimeterSpacing=8;targetPerimeterSpacing=8;" edge="1" parent="1" source="3b3L-QqUGlrsMesXc-mm-46" target="3b3L-QqUGlrsMesXc-mm-45">
          <mxGeometry relative="1" as="geometry" />
        </mxCell>
        <mxCell id="3b3L-QqUGlrsMesXc-mm-46" value="output+=str(&quot;{:02d}&quot;.format(i - day))+ space" style="rounded=0;whiteSpace=wrap;html=1;hachureGap=4;" vertex="1" parent="1">
          <mxGeometry x="465.85" y="1015.8399999999999" width="251.29" height="39" as="geometry" />
        </mxCell>
        <mxCell id="3b3L-QqUGlrsMesXc-mm-53" style="edgeStyle=none;curved=1;rounded=0;orthogonalLoop=1;jettySize=auto;html=1;exitX=1;exitY=0.5;exitDx=0;exitDy=0;entryX=1;entryY=0.5;entryDx=0;entryDy=0;endArrow=open;startSize=14;endSize=14;sourcePerimeterSpacing=8;targetPerimeterSpacing=8;" edge="1" parent="1" source="3b3L-QqUGlrsMesXc-mm-47" target="3b3L-QqUGlrsMesXc-mm-35">
          <mxGeometry relative="1" as="geometry">
            <Array as="points">
              <mxPoint x="828" y="1033" />
            </Array>
          </mxGeometry>
        </mxCell>
        <mxCell id="3b3L-QqUGlrsMesXc-mm-82" style="edgeStyle=none;curved=1;rounded=0;orthogonalLoop=1;jettySize=auto;html=1;exitX=0.5;exitY=1;exitDx=0;exitDy=0;entryX=0.5;entryY=0;entryDx=0;entryDy=0;endArrow=open;startSize=14;endSize=14;sourcePerimeterSpacing=8;targetPerimeterSpacing=8;" edge="1" parent="1" source="3b3L-QqUGlrsMesXc-mm-47" target="3b3L-QqUGlrsMesXc-mm-78">
          <mxGeometry relative="1" as="geometry" />
        </mxCell>
        <mxCell id="3b3L-QqUGlrsMesXc-mm-47" value="output+=&quot;\n&quot;" style="rounded=0;whiteSpace=wrap;html=1;hachureGap=4;" vertex="1" parent="1">
          <mxGeometry x="539.9200000000001" y="1152" width="103.15" height="39" as="geometry" />
        </mxCell>
        <mxCell id="3b3L-QqUGlrsMesXc-mm-49" value="yes" style="text;html=1;align=center;verticalAlign=middle;resizable=0;points=[];autosize=1;strokeColor=none;fillColor=none;hachureGap=4;" vertex="1" parent="1">
          <mxGeometry x="597.5" y="935.5" width="37" height="26" as="geometry" />
        </mxCell>
        <mxCell id="3b3L-QqUGlrsMesXc-mm-50" value="no" style="text;html=1;align=center;verticalAlign=middle;resizable=0;points=[];autosize=1;strokeColor=none;fillColor=none;hachureGap=4;" vertex="1" parent="1">
          <mxGeometry x="517" y="928" width="31" height="26" as="geometry" />
        </mxCell>
        <mxCell id="3b3L-QqUGlrsMesXc-mm-60" style="edgeStyle=none;curved=1;rounded=0;orthogonalLoop=1;jettySize=auto;html=1;exitX=0.5;exitY=1;exitDx=0;exitDy=0;entryX=0.5;entryY=0;entryDx=0;entryDy=0;endArrow=open;startSize=14;endSize=14;sourcePerimeterSpacing=8;targetPerimeterSpacing=8;" edge="1" parent="1" source="3b3L-QqUGlrsMesXc-mm-54" target="3b3L-QqUGlrsMesXc-mm-57">
          <mxGeometry relative="1" as="geometry" />
        </mxCell>
        <mxCell id="3b3L-QqUGlrsMesXc-mm-54" value="mm=2" style="rhombus;whiteSpace=wrap;html=1;hachureGap=4;" vertex="1" parent="1">
          <mxGeometry x="876" y="676.5" width="80" height="61.5" as="geometry" />
        </mxCell>
        <mxCell id="3b3L-QqUGlrsMesXc-mm-56" value="no" style="text;html=1;align=center;verticalAlign=middle;resizable=0;points=[];autosize=1;strokeColor=none;fillColor=none;hachureGap=4;" vertex="1" parent="1">
          <mxGeometry x="678" y="685" width="31" height="26" as="geometry" />
        </mxCell>
        <mxCell id="3b3L-QqUGlrsMesXc-mm-62" style="edgeStyle=none;curved=1;rounded=0;orthogonalLoop=1;jettySize=auto;html=1;exitX=0.5;exitY=1;exitDx=0;exitDy=0;entryX=0.5;entryY=0;entryDx=0;entryDy=0;endArrow=open;startSize=14;endSize=14;sourcePerimeterSpacing=8;targetPerimeterSpacing=8;" edge="1" parent="1" source="3b3L-QqUGlrsMesXc-mm-57" target="3b3L-QqUGlrsMesXc-mm-61">
          <mxGeometry relative="1" as="geometry" />
        </mxCell>
        <mxCell id="3b3L-QqUGlrsMesXc-mm-57" value="for i in range(32+day)" style="shape=hexagon;perimeter=hexagonPerimeter2;whiteSpace=wrap;html=1;fixedSize=1;hachureGap=4;" vertex="1" parent="1">
          <mxGeometry x="841" y="755" width="150" height="39" as="geometry" />
        </mxCell>
        <mxCell id="3b3L-QqUGlrsMesXc-mm-64" style="edgeStyle=none;curved=1;rounded=0;orthogonalLoop=1;jettySize=auto;html=1;exitX=0.5;exitY=1;exitDx=0;exitDy=0;entryX=0.5;entryY=0;entryDx=0;entryDy=0;endArrow=open;startSize=14;endSize=14;sourcePerimeterSpacing=8;targetPerimeterSpacing=8;" edge="1" parent="1" source="3b3L-QqUGlrsMesXc-mm-61" target="3b3L-QqUGlrsMesXc-mm-63">
          <mxGeometry relative="1" as="geometry" />
        </mxCell>
        <mxCell id="3b3L-QqUGlrsMesXc-mm-66" style="edgeStyle=none;curved=1;rounded=0;orthogonalLoop=1;jettySize=auto;html=1;exitX=0;exitY=0.5;exitDx=0;exitDy=0;entryX=0.153;entryY=-0.003;entryDx=0;entryDy=0;entryPerimeter=0;endArrow=open;startSize=14;endSize=14;sourcePerimeterSpacing=8;targetPerimeterSpacing=8;" edge="1" parent="1" source="3b3L-QqUGlrsMesXc-mm-61" target="3b3L-QqUGlrsMesXc-mm-65">
          <mxGeometry relative="1" as="geometry" />
        </mxCell>
        <mxCell id="3b3L-QqUGlrsMesXc-mm-61" value="i&amp;lt;=day" style="rhombus;whiteSpace=wrap;html=1;hachureGap=4;" vertex="1" parent="1">
          <mxGeometry x="876" y="813" width="80" height="61.5" as="geometry" />
        </mxCell>
        <mxCell id="3b3L-QqUGlrsMesXc-mm-63" value="output+=space" style="rounded=0;whiteSpace=wrap;html=1;hachureGap=4;" vertex="1" parent="1">
          <mxGeometry x="872" y="889" width="88" height="39" as="geometry" />
        </mxCell>
        <mxCell id="3b3L-QqUGlrsMesXc-mm-70" style="edgeStyle=none;curved=1;rounded=0;orthogonalLoop=1;jettySize=auto;html=1;exitX=0.5;exitY=1;exitDx=0;exitDy=0;entryX=0.5;entryY=0;entryDx=0;entryDy=0;endArrow=open;startSize=14;endSize=14;sourcePerimeterSpacing=8;targetPerimeterSpacing=8;" edge="1" parent="1" source="3b3L-QqUGlrsMesXc-mm-65" target="3b3L-QqUGlrsMesXc-mm-69">
          <mxGeometry relative="1" as="geometry" />
        </mxCell>
        <mxCell id="3b3L-QqUGlrsMesXc-mm-65" value="output+=str(&quot;{:02d}&quot;.format(i - day))" style="rounded=0;whiteSpace=wrap;html=1;hachureGap=4;" vertex="1" parent="1">
          <mxGeometry x="821" y="957" width="204" height="39" as="geometry" />
        </mxCell>
        <mxCell id="3b3L-QqUGlrsMesXc-mm-67" value="yes" style="text;html=1;align=center;verticalAlign=middle;resizable=0;points=[];autosize=1;strokeColor=none;fillColor=none;hachureGap=4;" vertex="1" parent="1">
          <mxGeometry x="925" y="863" width="37" height="26" as="geometry" />
        </mxCell>
        <mxCell id="3b3L-QqUGlrsMesXc-mm-68" value="no" style="text;html=1;align=center;verticalAlign=middle;resizable=0;points=[];autosize=1;strokeColor=none;fillColor=none;hachureGap=4;" vertex="1" parent="1">
          <mxGeometry x="845" y="848.5" width="31" height="26" as="geometry" />
        </mxCell>
        <mxCell id="3b3L-QqUGlrsMesXc-mm-72" style="edgeStyle=none;curved=1;rounded=0;orthogonalLoop=1;jettySize=auto;html=1;exitX=0.5;exitY=1;exitDx=0;exitDy=0;entryX=0.5;entryY=0;entryDx=0;entryDy=0;endArrow=open;startSize=14;endSize=14;sourcePerimeterSpacing=8;targetPerimeterSpacing=8;" edge="1" parent="1" source="3b3L-QqUGlrsMesXc-mm-69" target="3b3L-QqUGlrsMesXc-mm-71">
          <mxGeometry relative="1" as="geometry" />
        </mxCell>
        <mxCell id="3b3L-QqUGlrsMesXc-mm-69" value="(i+1)%7==0" style="rhombus;whiteSpace=wrap;html=1;hachureGap=4;" vertex="1" parent="1">
          <mxGeometry x="883" y="1015.84" width="80" height="61.5" as="geometry" />
        </mxCell>
        <mxCell id="3b3L-QqUGlrsMesXc-mm-83" style="edgeStyle=none;curved=1;rounded=0;orthogonalLoop=1;jettySize=auto;html=1;exitX=0.5;exitY=1;exitDx=0;exitDy=0;entryX=0.5;entryY=0;entryDx=0;entryDy=0;endArrow=open;startSize=14;endSize=14;sourcePerimeterSpacing=8;targetPerimeterSpacing=8;" edge="1" parent="1" source="3b3L-QqUGlrsMesXc-mm-71" target="3b3L-QqUGlrsMesXc-mm-78">
          <mxGeometry relative="1" as="geometry" />
        </mxCell>
        <mxCell id="3b3L-QqUGlrsMesXc-mm-71" value="output+=&quot;\n&quot;" style="rounded=0;whiteSpace=wrap;html=1;hachureGap=4;" vertex="1" parent="1">
          <mxGeometry x="863.5" y="1102" width="119" height="39" as="geometry" />
        </mxCell>
        <mxCell id="3b3L-QqUGlrsMesXc-mm-78" value="return output" style="ellipse;whiteSpace=wrap;html=1;hachureGap=4;" vertex="1" parent="1">
          <mxGeometry x="527.0699999999999" y="1286" width="116" height="60" as="geometry" />
        </mxCell>
      </root>
    </mxGraphModel>
  </diagram>
  <diagram id="lX4MR8GOWO72O2aVYp_o" name="quiz16">
    <mxGraphModel dx="1372" dy="917" grid="0" gridSize="10" guides="1" tooltips="1" connect="1" arrows="1" fold="1" page="0" pageScale="1" pageWidth="850" pageHeight="1100" math="0" shadow="0">
      <root>
        <mxCell id="0" />
        <mxCell id="1" parent="0" />
        <mxCell id="KCEp3FVSbS9CLQMAzxaV-1" value="End" style="ellipse;whiteSpace=wrap;html=1;hachureGap=4;" vertex="1" parent="1">
          <mxGeometry x="156" y="648" width="71" height="36" as="geometry" />
        </mxCell>
        <mxCell id="KCEp3FVSbS9CLQMAzxaV-4" style="edgeStyle=none;curved=1;rounded=0;orthogonalLoop=1;jettySize=auto;html=1;exitX=0.5;exitY=1;exitDx=0;exitDy=0;entryX=0.5;entryY=0;entryDx=0;entryDy=0;endArrow=open;startSize=14;endSize=14;sourcePerimeterSpacing=8;targetPerimeterSpacing=8;" edge="1" parent="1" source="KCEp3FVSbS9CLQMAzxaV-2" target="KCEp3FVSbS9CLQMAzxaV-3">
          <mxGeometry relative="1" as="geometry" />
        </mxCell>
        <mxCell id="KCEp3FVSbS9CLQMAzxaV-2" value="Start" style="ellipse;whiteSpace=wrap;html=1;hachureGap=4;" vertex="1" parent="1">
          <mxGeometry x="125" y="40" width="71" height="36" as="geometry" />
        </mxCell>
        <mxCell id="KCEp3FVSbS9CLQMAzxaV-9" style="edgeStyle=none;curved=1;rounded=0;orthogonalLoop=1;jettySize=auto;html=1;exitX=0.5;exitY=1;exitDx=0;exitDy=0;entryX=0.5;entryY=0;entryDx=0;entryDy=0;endArrow=open;startSize=14;endSize=14;sourcePerimeterSpacing=8;targetPerimeterSpacing=8;" edge="1" parent="1" source="KCEp3FVSbS9CLQMAzxaV-3" target="KCEp3FVSbS9CLQMAzxaV-5">
          <mxGeometry relative="1" as="geometry" />
        </mxCell>
        <mxCell id="KCEp3FVSbS9CLQMAzxaV-3" value="def blackBoxThree(a:str)-&amp;gt; str:" style="shape=process;whiteSpace=wrap;html=1;backgroundOutline=1;hachureGap=4;" vertex="1" parent="1">
          <mxGeometry x="47" y="98" width="227" height="45" as="geometry" />
        </mxCell>
        <mxCell id="KCEp3FVSbS9CLQMAzxaV-10" style="edgeStyle=none;curved=1;rounded=0;orthogonalLoop=1;jettySize=auto;html=1;exitX=0.5;exitY=1;exitDx=0;exitDy=0;entryX=0.5;entryY=0;entryDx=0;entryDy=0;endArrow=open;startSize=14;endSize=14;sourcePerimeterSpacing=8;targetPerimeterSpacing=8;" edge="1" parent="1" source="KCEp3FVSbS9CLQMAzxaV-5" target="KCEp3FVSbS9CLQMAzxaV-6">
          <mxGeometry relative="1" as="geometry" />
        </mxCell>
        <mxCell id="KCEp3FVSbS9CLQMAzxaV-5" value="counter, temp = &quot;&quot;,&quot;&quot;" style="rounded=0;whiteSpace=wrap;html=1;hachureGap=4;" vertex="1" parent="1">
          <mxGeometry x="99" y="162" width="123" height="32" as="geometry" />
        </mxCell>
        <mxCell id="KCEp3FVSbS9CLQMAzxaV-11" style="edgeStyle=none;curved=1;rounded=0;orthogonalLoop=1;jettySize=auto;html=1;exitX=0.5;exitY=1;exitDx=0;exitDy=0;entryX=0.5;entryY=0;entryDx=0;entryDy=0;endArrow=open;startSize=14;endSize=14;sourcePerimeterSpacing=8;targetPerimeterSpacing=8;" edge="1" parent="1" source="KCEp3FVSbS9CLQMAzxaV-6" target="KCEp3FVSbS9CLQMAzxaV-7">
          <mxGeometry relative="1" as="geometry" />
        </mxCell>
        <mxCell id="KCEp3FVSbS9CLQMAzxaV-6" value="for char in a" style="shape=hexagon;perimeter=hexagonPerimeter2;whiteSpace=wrap;html=1;fixedSize=1;hachureGap=4;" vertex="1" parent="1">
          <mxGeometry x="107.5" y="213" width="106" height="37" as="geometry" />
        </mxCell>
        <mxCell id="KCEp3FVSbS9CLQMAzxaV-13" style="edgeStyle=none;curved=1;rounded=0;orthogonalLoop=1;jettySize=auto;html=1;exitX=0;exitY=0.5;exitDx=0;exitDy=0;entryX=0.5;entryY=0;entryDx=0;entryDy=0;endArrow=open;startSize=14;endSize=14;sourcePerimeterSpacing=8;targetPerimeterSpacing=8;" edge="1" parent="1" source="KCEp3FVSbS9CLQMAzxaV-7" target="KCEp3FVSbS9CLQMAzxaV-8">
          <mxGeometry relative="1" as="geometry">
            <Array as="points">
              <mxPoint x="48" y="309" />
              <mxPoint x="4" y="301" />
            </Array>
          </mxGeometry>
        </mxCell>
        <mxCell id="KCEp3FVSbS9CLQMAzxaV-7" value="&lt;div&gt;char=char.upper()&lt;/div&gt;&lt;div&gt;&lt;span style=&quot;background-color: initial;&quot;&gt;counter2 = 1&lt;/span&gt;&lt;/div&gt;&lt;div&gt;&lt;span style=&quot;background-color: initial;&quot;&gt;temp+=char&lt;/span&gt;&lt;/div&gt;" style="rounded=0;whiteSpace=wrap;html=1;hachureGap=4;" vertex="1" parent="1">
          <mxGeometry x="91.5" y="273" width="138" height="64" as="geometry" />
        </mxCell>
        <mxCell id="KCEp3FVSbS9CLQMAzxaV-15" style="edgeStyle=none;curved=1;rounded=0;orthogonalLoop=1;jettySize=auto;html=1;exitX=0.5;exitY=1;exitDx=0;exitDy=0;entryX=0.5;entryY=0;entryDx=0;entryDy=0;endArrow=open;startSize=14;endSize=14;sourcePerimeterSpacing=8;targetPerimeterSpacing=8;" edge="1" parent="1" source="KCEp3FVSbS9CLQMAzxaV-8" target="KCEp3FVSbS9CLQMAzxaV-14">
          <mxGeometry relative="1" as="geometry" />
        </mxCell>
        <mxCell id="KCEp3FVSbS9CLQMAzxaV-18" style="edgeStyle=none;curved=1;rounded=0;orthogonalLoop=1;jettySize=auto;html=1;exitX=1;exitY=0.5;exitDx=0;exitDy=0;entryX=0;entryY=0.5;entryDx=0;entryDy=0;endArrow=open;startSize=14;endSize=14;sourcePerimeterSpacing=8;targetPerimeterSpacing=8;" edge="1" parent="1" source="KCEp3FVSbS9CLQMAzxaV-8" target="KCEp3FVSbS9CLQMAzxaV-17">
          <mxGeometry relative="1" as="geometry" />
        </mxCell>
        <mxCell id="KCEp3FVSbS9CLQMAzxaV-8" value="char==&quot;&quot; or char==&quot;&#39;&quot;" style="rhombus;whiteSpace=wrap;html=1;hachureGap=4;" vertex="1" parent="1">
          <mxGeometry x="-27" y="359" width="80" height="80" as="geometry" />
        </mxCell>
        <mxCell id="KCEp3FVSbS9CLQMAzxaV-28" style="edgeStyle=none;curved=1;rounded=0;orthogonalLoop=1;jettySize=auto;html=1;exitX=0.5;exitY=1;exitDx=0;exitDy=0;entryX=0;entryY=0.75;entryDx=0;entryDy=0;endArrow=open;startSize=14;endSize=14;sourcePerimeterSpacing=8;targetPerimeterSpacing=8;" edge="1" parent="1" source="KCEp3FVSbS9CLQMAzxaV-14" target="KCEp3FVSbS9CLQMAzxaV-26">
          <mxGeometry relative="1" as="geometry" />
        </mxCell>
        <mxCell id="KCEp3FVSbS9CLQMAzxaV-14" value="counter+=char" style="rounded=0;whiteSpace=wrap;html=1;hachureGap=4;" vertex="1" parent="1">
          <mxGeometry x="-36" y="461" width="98" height="47" as="geometry" />
        </mxCell>
        <mxCell id="KCEp3FVSbS9CLQMAzxaV-16" value="yes" style="text;html=1;align=center;verticalAlign=middle;resizable=0;points=[];autosize=1;strokeColor=none;fillColor=none;hachureGap=4;" vertex="1" parent="1">
          <mxGeometry x="-29" y="435" width="37" height="26" as="geometry" />
        </mxCell>
        <mxCell id="KCEp3FVSbS9CLQMAzxaV-21" style="edgeStyle=none;curved=1;rounded=0;orthogonalLoop=1;jettySize=auto;html=1;exitX=0.5;exitY=1;exitDx=0;exitDy=0;entryX=0.5;entryY=0;entryDx=0;entryDy=0;endArrow=open;startSize=14;endSize=14;sourcePerimeterSpacing=8;targetPerimeterSpacing=8;" edge="1" parent="1" source="KCEp3FVSbS9CLQMAzxaV-17" target="KCEp3FVSbS9CLQMAzxaV-20">
          <mxGeometry relative="1" as="geometry" />
        </mxCell>
        <mxCell id="KCEp3FVSbS9CLQMAzxaV-24" style="edgeStyle=none;curved=1;rounded=0;orthogonalLoop=1;jettySize=auto;html=1;exitX=1;exitY=0.5;exitDx=0;exitDy=0;entryX=0.5;entryY=0;entryDx=0;entryDy=0;endArrow=open;startSize=14;endSize=14;sourcePerimeterSpacing=8;targetPerimeterSpacing=8;" edge="1" parent="1" source="KCEp3FVSbS9CLQMAzxaV-17" target="KCEp3FVSbS9CLQMAzxaV-23">
          <mxGeometry relative="1" as="geometry">
            <Array as="points">
              <mxPoint x="408" y="383" />
            </Array>
          </mxGeometry>
        </mxCell>
        <mxCell id="KCEp3FVSbS9CLQMAzxaV-17" value="char in temp" style="rhombus;whiteSpace=wrap;html=1;hachureGap=4;" vertex="1" parent="1">
          <mxGeometry x="151.5" y="359" width="80" height="80" as="geometry" />
        </mxCell>
        <mxCell id="KCEp3FVSbS9CLQMAzxaV-19" value="no" style="text;html=1;align=center;verticalAlign=middle;resizable=0;points=[];autosize=1;strokeColor=none;fillColor=none;hachureGap=4;" vertex="1" parent="1">
          <mxGeometry x="80" y="372" width="31" height="26" as="geometry" />
        </mxCell>
        <mxCell id="KCEp3FVSbS9CLQMAzxaV-31" style="edgeStyle=none;curved=1;rounded=0;orthogonalLoop=1;jettySize=auto;html=1;exitX=0.5;exitY=1;exitDx=0;exitDy=0;entryX=0.5;entryY=0;entryDx=0;entryDy=0;endArrow=open;startSize=14;endSize=14;sourcePerimeterSpacing=8;targetPerimeterSpacing=8;" edge="1" parent="1" source="KCEp3FVSbS9CLQMAzxaV-20" target="KCEp3FVSbS9CLQMAzxaV-26">
          <mxGeometry relative="1" as="geometry" />
        </mxCell>
        <mxCell id="KCEp3FVSbS9CLQMAzxaV-20" value="counter+=str(temp.count(char))" style="rounded=0;whiteSpace=wrap;html=1;hachureGap=4;" vertex="1" parent="1">
          <mxGeometry x="103" y="461" width="177" height="47" as="geometry" />
        </mxCell>
        <mxCell id="KCEp3FVSbS9CLQMAzxaV-22" value="yes" style="text;html=1;align=center;verticalAlign=middle;resizable=0;points=[];autosize=1;strokeColor=none;fillColor=none;hachureGap=4;" vertex="1" parent="1">
          <mxGeometry x="146" y="432" width="37" height="26" as="geometry" />
        </mxCell>
        <mxCell id="KCEp3FVSbS9CLQMAzxaV-32" style="edgeStyle=none;curved=1;rounded=0;orthogonalLoop=1;jettySize=auto;html=1;exitX=0.5;exitY=1;exitDx=0;exitDy=0;entryX=1;entryY=0.5;entryDx=0;entryDy=0;endArrow=open;startSize=14;endSize=14;sourcePerimeterSpacing=8;targetPerimeterSpacing=8;" edge="1" parent="1" source="KCEp3FVSbS9CLQMAzxaV-23" target="KCEp3FVSbS9CLQMAzxaV-26">
          <mxGeometry relative="1" as="geometry">
            <Array as="points">
              <mxPoint x="383" y="560" />
            </Array>
          </mxGeometry>
        </mxCell>
        <mxCell id="KCEp3FVSbS9CLQMAzxaV-23" value="counter+=str(counter2)" style="rounded=0;whiteSpace=wrap;html=1;hachureGap=4;" vertex="1" parent="1">
          <mxGeometry x="310" y="461" width="177" height="47" as="geometry" />
        </mxCell>
        <mxCell id="KCEp3FVSbS9CLQMAzxaV-25" value="no" style="text;html=1;align=center;verticalAlign=middle;resizable=0;points=[];autosize=1;strokeColor=none;fillColor=none;hachureGap=4;" vertex="1" parent="1">
          <mxGeometry x="356" y="384" width="31" height="26" as="geometry" />
        </mxCell>
        <mxCell id="KCEp3FVSbS9CLQMAzxaV-33" style="edgeStyle=none;curved=1;rounded=0;orthogonalLoop=1;jettySize=auto;html=1;exitX=0.5;exitY=1;exitDx=0;exitDy=0;entryX=0.5;entryY=0;entryDx=0;entryDy=0;endArrow=open;startSize=14;endSize=14;sourcePerimeterSpacing=8;targetPerimeterSpacing=8;" edge="1" parent="1" source="KCEp3FVSbS9CLQMAzxaV-26" target="KCEp3FVSbS9CLQMAzxaV-27">
          <mxGeometry relative="1" as="geometry" />
        </mxCell>
        <mxCell id="KCEp3FVSbS9CLQMAzxaV-35" style="edgeStyle=none;curved=1;rounded=0;orthogonalLoop=1;jettySize=auto;html=1;exitX=1;exitY=1;exitDx=0;exitDy=0;entryX=1;entryY=0.5;entryDx=0;entryDy=0;endArrow=open;startSize=14;endSize=14;sourcePerimeterSpacing=8;targetPerimeterSpacing=8;" edge="1" parent="1" source="KCEp3FVSbS9CLQMAzxaV-26" target="KCEp3FVSbS9CLQMAzxaV-6">
          <mxGeometry relative="1" as="geometry">
            <Array as="points">
              <mxPoint x="627" y="609" />
              <mxPoint x="563" y="454" />
              <mxPoint x="563" y="350" />
              <mxPoint x="527" y="217" />
            </Array>
          </mxGeometry>
        </mxCell>
        <mxCell id="KCEp3FVSbS9CLQMAzxaV-26" value="counter2=0" style="rounded=0;whiteSpace=wrap;html=1;hachureGap=4;" vertex="1" parent="1">
          <mxGeometry x="148" y="537" width="87" height="27" as="geometry" />
        </mxCell>
        <mxCell id="KCEp3FVSbS9CLQMAzxaV-34" style="edgeStyle=none;curved=1;rounded=0;orthogonalLoop=1;jettySize=auto;html=1;exitX=0.5;exitY=1;exitDx=0;exitDy=0;entryX=0.5;entryY=0;entryDx=0;entryDy=0;endArrow=open;startSize=14;endSize=14;sourcePerimeterSpacing=8;targetPerimeterSpacing=8;" edge="1" parent="1" source="KCEp3FVSbS9CLQMAzxaV-27" target="KCEp3FVSbS9CLQMAzxaV-1">
          <mxGeometry relative="1" as="geometry" />
        </mxCell>
        <mxCell id="KCEp3FVSbS9CLQMAzxaV-27" value="return counter+&quot;\n&quot;" style="rounded=0;whiteSpace=wrap;html=1;hachureGap=4;" vertex="1" parent="1">
          <mxGeometry x="127.5" y="595" width="128" height="27" as="geometry" />
        </mxCell>
      </root>
    </mxGraphModel>
  </diagram>
  <diagram id="v7ggfZ80ORuDA94Uoi4u" name="quiz010">
    <mxGraphModel dx="2525" dy="1448" grid="0" gridSize="10" guides="1" tooltips="1" connect="1" arrows="1" fold="1" page="0" pageScale="1" pageWidth="850" pageHeight="1100" math="0" shadow="0">
      <root>
        <mxCell id="0" />
        <mxCell id="1" parent="0" />
        <mxCell id="lEwGL89HYUAAZ7hQMwBz-3" style="edgeStyle=none;curved=1;rounded=0;orthogonalLoop=1;jettySize=auto;html=1;exitX=0.5;exitY=1;exitDx=0;exitDy=0;entryX=0.5;entryY=0;entryDx=0;entryDy=0;endArrow=open;startSize=14;endSize=14;sourcePerimeterSpacing=8;targetPerimeterSpacing=8;" edge="1" parent="1" source="lEwGL89HYUAAZ7hQMwBz-1" target="lEwGL89HYUAAZ7hQMwBz-2">
          <mxGeometry relative="1" as="geometry" />
        </mxCell>
        <mxCell id="lEwGL89HYUAAZ7hQMwBz-1" value="start" style="ellipse;whiteSpace=wrap;html=1;hachureGap=4;" vertex="1" parent="1">
          <mxGeometry x="-57" y="-128" width="70.36" height="26.09" as="geometry" />
        </mxCell>
        <mxCell id="lEwGL89HYUAAZ7hQMwBz-5" style="edgeStyle=none;curved=1;rounded=0;orthogonalLoop=1;jettySize=auto;html=1;exitX=0.5;exitY=1;exitDx=0;exitDy=0;entryX=0.5;entryY=0;entryDx=0;entryDy=0;endArrow=open;startSize=14;endSize=14;sourcePerimeterSpacing=8;targetPerimeterSpacing=8;" edge="1" parent="1" source="lEwGL89HYUAAZ7hQMwBz-2" target="lEwGL89HYUAAZ7hQMwBz-4">
          <mxGeometry relative="1" as="geometry" />
        </mxCell>
        <mxCell id="lEwGL89HYUAAZ7hQMwBz-2" value="def powersTen(quantity:int)-&amp;gt; str:" style="shape=process;whiteSpace=wrap;html=1;backgroundOutline=1;hachureGap=4;" vertex="1" parent="1">
          <mxGeometry x="-137.32" y="-70" width="231" height="41" as="geometry" />
        </mxCell>
        <mxCell id="lEwGL89HYUAAZ7hQMwBz-8" style="edgeStyle=none;curved=1;rounded=0;orthogonalLoop=1;jettySize=auto;html=1;exitX=0.5;exitY=1;exitDx=0;exitDy=0;entryX=0.5;entryY=0;entryDx=0;entryDy=0;endArrow=open;startSize=14;endSize=14;sourcePerimeterSpacing=8;targetPerimeterSpacing=8;" edge="1" parent="1" source="lEwGL89HYUAAZ7hQMwBz-4" target="lEwGL89HYUAAZ7hQMwBz-6">
          <mxGeometry relative="1" as="geometry" />
        </mxCell>
        <mxCell id="lEwGL89HYUAAZ7hQMwBz-4" value="&lt;div&gt;out = &quot;&quot;&lt;/div&gt;&lt;div&gt;&amp;nbsp; &amp;nbsp; sufix = [&quot;unit&quot;, &quot;kilo&quot;, &quot;mega&quot;, &quot;giga&quot;, &quot;tera&quot;]&lt;/div&gt;&lt;div&gt;&amp;nbsp; &amp;nbsp; quantity=quantity.split(&quot; &quot;)&lt;/div&gt;" style="rounded=0;whiteSpace=wrap;html=1;hachureGap=4;" vertex="1" parent="1">
          <mxGeometry x="-147.32" y="-5" width="251" height="50" as="geometry" />
        </mxCell>
        <mxCell id="lEwGL89HYUAAZ7hQMwBz-15" style="edgeStyle=none;curved=1;rounded=0;orthogonalLoop=1;jettySize=auto;html=1;exitX=0.5;exitY=1;exitDx=0;exitDy=0;entryX=0.5;entryY=0;entryDx=0;entryDy=0;endArrow=open;startSize=14;endSize=14;sourcePerimeterSpacing=8;targetPerimeterSpacing=8;" edge="1" parent="1" source="lEwGL89HYUAAZ7hQMwBz-6" target="lEwGL89HYUAAZ7hQMwBz-10">
          <mxGeometry relative="1" as="geometry" />
        </mxCell>
        <mxCell id="lEwGL89HYUAAZ7hQMwBz-6" value="for power in range(4, -1, -1)" style="shape=hexagon;perimeter=hexagonPerimeter2;whiteSpace=wrap;html=1;fixedSize=1;hachureGap=4;" vertex="1" parent="1">
          <mxGeometry x="-108.82" y="69" width="174" height="36" as="geometry" />
        </mxCell>
        <mxCell id="lEwGL89HYUAAZ7hQMwBz-21" style="edgeStyle=none;curved=1;rounded=0;orthogonalLoop=1;jettySize=auto;html=1;exitX=0.5;exitY=1;exitDx=0;exitDy=0;entryX=0.5;entryY=0;entryDx=0;entryDy=0;endArrow=open;startSize=14;endSize=14;sourcePerimeterSpacing=8;targetPerimeterSpacing=8;" edge="1" parent="1" source="lEwGL89HYUAAZ7hQMwBz-9" target="lEwGL89HYUAAZ7hQMwBz-20">
          <mxGeometry relative="1" as="geometry" />
        </mxCell>
        <mxCell id="lEwGL89HYUAAZ7hQMwBz-9" value="for power in range(4)" style="shape=hexagon;perimeter=hexagonPerimeter2;whiteSpace=wrap;html=1;fixedSize=1;hachureGap=4;" vertex="1" parent="1">
          <mxGeometry x="-108.82" y="294" width="174" height="36" as="geometry" />
        </mxCell>
        <mxCell id="lEwGL89HYUAAZ7hQMwBz-16" style="edgeStyle=none;curved=1;rounded=0;orthogonalLoop=1;jettySize=auto;html=1;exitX=1;exitY=0.5;exitDx=0;exitDy=0;entryX=1;entryY=0.5;entryDx=0;entryDy=0;endArrow=open;startSize=14;endSize=14;sourcePerimeterSpacing=8;targetPerimeterSpacing=8;" edge="1" parent="1" source="lEwGL89HYUAAZ7hQMwBz-10" target="lEwGL89HYUAAZ7hQMwBz-6">
          <mxGeometry relative="1" as="geometry">
            <Array as="points">
              <mxPoint x="170" y="99" />
            </Array>
          </mxGeometry>
        </mxCell>
        <mxCell id="lEwGL89HYUAAZ7hQMwBz-18" style="edgeStyle=none;curved=1;rounded=0;orthogonalLoop=1;jettySize=auto;html=1;exitX=0.5;exitY=1;exitDx=0;exitDy=0;entryX=0.5;entryY=0;entryDx=0;entryDy=0;endArrow=open;startSize=14;endSize=14;sourcePerimeterSpacing=8;targetPerimeterSpacing=8;" edge="1" parent="1" source="lEwGL89HYUAAZ7hQMwBz-10" target="lEwGL89HYUAAZ7hQMwBz-17">
          <mxGeometry relative="1" as="geometry" />
        </mxCell>
        <mxCell id="lEwGL89HYUAAZ7hQMwBz-10" value="&lt;div&gt;zeros = &quot;0&quot; * (3 * power)&lt;/div&gt;&lt;div&gt;&amp;nbsp; &amp;nbsp; &amp;nbsp; &amp;nbsp; value = f&quot;{int(quantity[0])}{zeros}&quot;.ljust(25) + sufix[power]+quantity[1]&lt;/div&gt;&lt;div&gt;&amp;nbsp; &amp;nbsp; &amp;nbsp; &amp;nbsp; out += value + &quot;\n&quot;&lt;/div&gt;" style="rounded=0;whiteSpace=wrap;html=1;hachureGap=4;" vertex="1" parent="1">
          <mxGeometry x="-155.32" y="132" width="267" height="80" as="geometry" />
        </mxCell>
        <mxCell id="lEwGL89HYUAAZ7hQMwBz-19" style="edgeStyle=none;curved=1;rounded=0;orthogonalLoop=1;jettySize=auto;html=1;exitX=0.5;exitY=1;exitDx=0;exitDy=0;entryX=0.5;entryY=0;entryDx=0;entryDy=0;endArrow=open;startSize=14;endSize=14;sourcePerimeterSpacing=8;targetPerimeterSpacing=8;" edge="1" parent="1" source="lEwGL89HYUAAZ7hQMwBz-17" target="lEwGL89HYUAAZ7hQMwBz-9">
          <mxGeometry relative="1" as="geometry" />
        </mxCell>
        <mxCell id="lEwGL89HYUAAZ7hQMwBz-17" value="sufix = [&quot;mili&quot;, &quot;micro&quot;, &quot;nano&quot;, &quot;pico&quot;]" style="rounded=0;whiteSpace=wrap;html=1;hachureGap=4;" vertex="1" parent="1">
          <mxGeometry x="-127.82" y="234" width="212" height="38" as="geometry" />
        </mxCell>
        <mxCell id="lEwGL89HYUAAZ7hQMwBz-22" style="edgeStyle=none;curved=1;rounded=0;orthogonalLoop=1;jettySize=auto;html=1;exitX=1;exitY=0.5;exitDx=0;exitDy=0;entryX=1;entryY=0.5;entryDx=0;entryDy=0;endArrow=open;startSize=14;endSize=14;sourcePerimeterSpacing=8;targetPerimeterSpacing=8;" edge="1" parent="1" source="lEwGL89HYUAAZ7hQMwBz-20" target="lEwGL89HYUAAZ7hQMwBz-9">
          <mxGeometry relative="1" as="geometry">
            <Array as="points">
              <mxPoint x="159" y="330" />
            </Array>
          </mxGeometry>
        </mxCell>
        <mxCell id="lEwGL89HYUAAZ7hQMwBz-24" style="edgeStyle=none;curved=1;rounded=0;orthogonalLoop=1;jettySize=auto;html=1;exitX=0.5;exitY=1;exitDx=0;exitDy=0;entryX=0.5;entryY=0;entryDx=0;entryDy=0;endArrow=open;startSize=14;endSize=14;sourcePerimeterSpacing=8;targetPerimeterSpacing=8;" edge="1" parent="1" source="lEwGL89HYUAAZ7hQMwBz-20" target="lEwGL89HYUAAZ7hQMwBz-23">
          <mxGeometry relative="1" as="geometry" />
        </mxCell>
        <mxCell id="lEwGL89HYUAAZ7hQMwBz-20" value="&lt;div&gt;zeros = &quot;0&quot; * (3 * power)&lt;/div&gt;&lt;div&gt;&amp;nbsp; &amp;nbsp; &amp;nbsp; &amp;nbsp; value = f&quot;0.00{zeros}{quantity[0]}&quot;.ljust(25) + sufix[power]+quantity[1]&lt;/div&gt;&lt;div&gt;&amp;nbsp; &amp;nbsp; &amp;nbsp; &amp;nbsp; out += value + &quot;\n&quot;&lt;/div&gt;" style="rounded=0;whiteSpace=wrap;html=1;hachureGap=4;" vertex="1" parent="1">
          <mxGeometry x="-153.98" y="352" width="264.32" height="80" as="geometry" />
        </mxCell>
        <mxCell id="lEwGL89HYUAAZ7hQMwBz-23" value="return out" style="rounded=0;whiteSpace=wrap;html=1;hachureGap=4;" vertex="1" parent="1">
          <mxGeometry x="-66.72999999999999" y="454" width="89.82" height="38" as="geometry" />
        </mxCell>
      </root>
    </mxGraphModel>
  </diagram>
  <diagram id="SXDLpEsE1It8HcPCrpox" name="task2">
    <mxGraphModel dx="5070" dy="2168" grid="1" gridSize="10" guides="1" tooltips="1" connect="1" arrows="1" fold="1" page="1" pageScale="1" pageWidth="850" pageHeight="1100" math="0" shadow="0">
      <root>
        <mxCell id="0" />
        <mxCell id="1" parent="0" />
        <mxCell id="TPEd0sCXjm4WYtSa4gCv-5" style="edgeStyle=orthogonalEdgeStyle;rounded=0;orthogonalLoop=1;jettySize=auto;html=1;exitX=0.5;exitY=1;exitDx=0;exitDy=0;entryX=0.5;entryY=0;entryDx=0;entryDy=0;" edge="1" parent="1" source="TPEd0sCXjm4WYtSa4gCv-1" target="TPEd0sCXjm4WYtSa4gCv-4">
          <mxGeometry relative="1" as="geometry" />
        </mxCell>
        <mxCell id="TPEd0sCXjm4WYtSa4gCv-1" value="Start" style="ellipse;whiteSpace=wrap;html=1;" vertex="1" parent="1">
          <mxGeometry x="550" y="30" width="60" height="30" as="geometry" />
        </mxCell>
        <mxCell id="TPEd0sCXjm4WYtSa4gCv-2" value="&lt;div&gt;print(f&quot;{colors[3]}{welcome_msg}{end_code}&quot;)&lt;/div&gt;&lt;div&gt;print(&quot;Options&quot;.center(50))&lt;/div&gt;&lt;div&gt;&lt;br&gt;&lt;/div&gt;&lt;div&gt;print(menu)&lt;br&gt;&lt;/div&gt;" style="shape=parallelogram;perimeter=parallelogramPerimeter;whiteSpace=wrap;html=1;fixedSize=1;" vertex="1" parent="1">
          <mxGeometry x="435" y="220" width="290" height="70" as="geometry" />
        </mxCell>
        <mxCell id="TPEd0sCXjm4WYtSa4gCv-6" style="edgeStyle=orthogonalEdgeStyle;rounded=0;orthogonalLoop=1;jettySize=auto;html=1;exitX=0.5;exitY=1;exitDx=0;exitDy=0;entryX=0.5;entryY=0;entryDx=0;entryDy=0;" edge="1" parent="1" source="TPEd0sCXjm4WYtSa4gCv-4" target="TPEd0sCXjm4WYtSa4gCv-2">
          <mxGeometry relative="1" as="geometry" />
        </mxCell>
        <mxCell id="TPEd0sCXjm4WYtSa4gCv-4" value="&lt;div&gt;welcome_msg = &quot; Welcome to the EV Calculator! &quot;.center(50, &quot;-&quot;)&lt;/div&gt;&lt;div&gt;prompt_msg = &quot;Please enter an option [1-4]: &quot;&lt;/div&gt;&lt;div&gt;&lt;br&gt;&lt;/div&gt;&lt;div&gt;&lt;div&gt;menu = &quot;&quot;&quot;1. Average time per kWh&lt;/div&gt;&lt;div&gt;2. Total kWh&lt;/div&gt;&lt;div&gt;3. Total charge time&lt;/div&gt;&lt;div&gt;4.Show all data&lt;/div&gt;&lt;div&gt;&quot;&quot;&quot;&lt;/div&gt;&lt;/div&gt;" style="rounded=0;whiteSpace=wrap;html=1;" vertex="1" parent="1">
          <mxGeometry x="400" y="80" width="360" height="120" as="geometry" />
        </mxCell>
        <mxCell id="TPEd0sCXjm4WYtSa4gCv-7" value="def calculator():" style="shape=process;whiteSpace=wrap;html=1;backgroundOutline=1;" vertex="1" parent="1">
          <mxGeometry x="520" y="310" width="120" height="30" as="geometry" />
        </mxCell>
        <mxCell id="TPEd0sCXjm4WYtSa4gCv-13" style="edgeStyle=orthogonalEdgeStyle;rounded=0;orthogonalLoop=1;jettySize=auto;html=1;exitX=0.5;exitY=1;exitDx=0;exitDy=0;entryX=0.5;entryY=0;entryDx=0;entryDy=0;" edge="1" parent="1" source="TPEd0sCXjm4WYtSa4gCv-9" target="TPEd0sCXjm4WYtSa4gCv-10">
          <mxGeometry relative="1" as="geometry" />
        </mxCell>
        <mxCell id="TPEd0sCXjm4WYtSa4gCv-9" value="option = validate_int_input(prompt_msg)" style="rounded=0;whiteSpace=wrap;html=1;" vertex="1" parent="1">
          <mxGeometry x="460" y="360" width="240" height="40" as="geometry" />
        </mxCell>
        <mxCell id="TPEd0sCXjm4WYtSa4gCv-14" style="edgeStyle=orthogonalEdgeStyle;rounded=0;orthogonalLoop=1;jettySize=auto;html=1;exitX=0.5;exitY=1;exitDx=0;exitDy=0;entryX=0.5;entryY=0;entryDx=0;entryDy=0;" edge="1" parent="1" source="TPEd0sCXjm4WYtSa4gCv-10" target="TPEd0sCXjm4WYtSa4gCv-11">
          <mxGeometry relative="1" as="geometry" />
        </mxCell>
        <mxCell id="TPEd0sCXjm4WYtSa4gCv-10" value="while option&amp;gt;4&amp;nbsp; or option&amp;lt;1" style="rhombus;whiteSpace=wrap;html=1;" vertex="1" parent="1">
          <mxGeometry x="540" y="420" width="80" height="80" as="geometry" />
        </mxCell>
        <mxCell id="TPEd0sCXjm4WYtSa4gCv-15" style="edgeStyle=orthogonalEdgeStyle;rounded=0;orthogonalLoop=1;jettySize=auto;html=1;exitX=1;exitY=0.5;exitDx=0;exitDy=0;entryX=1;entryY=0.5;entryDx=0;entryDy=0;" edge="1" parent="1" source="TPEd0sCXjm4WYtSa4gCv-11" target="TPEd0sCXjm4WYtSa4gCv-10">
          <mxGeometry relative="1" as="geometry" />
        </mxCell>
        <mxCell id="TPEd0sCXjm4WYtSa4gCv-18" style="edgeStyle=orthogonalEdgeStyle;rounded=0;orthogonalLoop=1;jettySize=auto;html=1;exitX=0.5;exitY=1;exitDx=0;exitDy=0;entryX=0.5;entryY=0;entryDx=0;entryDy=0;" edge="1" parent="1" source="TPEd0sCXjm4WYtSa4gCv-11" target="TPEd0sCXjm4WYtSa4gCv-16">
          <mxGeometry relative="1" as="geometry" />
        </mxCell>
        <mxCell id="TPEd0sCXjm4WYtSa4gCv-33" style="edgeStyle=orthogonalEdgeStyle;rounded=0;orthogonalLoop=1;jettySize=auto;html=1;exitX=0.5;exitY=1;exitDx=0;exitDy=0;" edge="1" parent="1" source="TPEd0sCXjm4WYtSa4gCv-11" target="TPEd0sCXjm4WYtSa4gCv-32">
          <mxGeometry relative="1" as="geometry" />
        </mxCell>
        <mxCell id="TPEd0sCXjm4WYtSa4gCv-49" style="edgeStyle=orthogonalEdgeStyle;rounded=0;orthogonalLoop=1;jettySize=auto;html=1;exitX=0.5;exitY=1;exitDx=0;exitDy=0;entryX=0.5;entryY=0;entryDx=0;entryDy=0;" edge="1" parent="1" source="TPEd0sCXjm4WYtSa4gCv-11" target="TPEd0sCXjm4WYtSa4gCv-48">
          <mxGeometry relative="1" as="geometry" />
        </mxCell>
        <mxCell id="TPEd0sCXjm4WYtSa4gCv-80" style="edgeStyle=orthogonalEdgeStyle;rounded=0;orthogonalLoop=1;jettySize=auto;html=1;exitX=0.5;exitY=1;exitDx=0;exitDy=0;entryX=0.5;entryY=0;entryDx=0;entryDy=0;" edge="1" parent="1" source="TPEd0sCXjm4WYtSa4gCv-11" target="TPEd0sCXjm4WYtSa4gCv-79">
          <mxGeometry relative="1" as="geometry" />
        </mxCell>
        <mxCell id="TPEd0sCXjm4WYtSa4gCv-11" value="option = validate_int_input(f&quot;{colors[1]}Invalid option. {prompt_msg}{end_code}&quot;)" style="rounded=0;whiteSpace=wrap;html=1;" vertex="1" parent="1">
          <mxGeometry x="430" y="520" width="300" height="60" as="geometry" />
        </mxCell>
        <mxCell id="TPEd0sCXjm4WYtSa4gCv-19" style="edgeStyle=orthogonalEdgeStyle;rounded=0;orthogonalLoop=1;jettySize=auto;html=1;exitX=0.5;exitY=1;exitDx=0;exitDy=0;entryX=0.5;entryY=0;entryDx=0;entryDy=0;" edge="1" parent="1" source="TPEd0sCXjm4WYtSa4gCv-16" target="TPEd0sCXjm4WYtSa4gCv-17">
          <mxGeometry relative="1" as="geometry" />
        </mxCell>
        <mxCell id="TPEd0sCXjm4WYtSa4gCv-73" style="edgeStyle=orthogonalEdgeStyle;rounded=0;orthogonalLoop=1;jettySize=auto;html=1;exitX=1;exitY=0.5;exitDx=0;exitDy=0;entryX=0;entryY=0.5;entryDx=0;entryDy=0;" edge="1" parent="1" source="TPEd0sCXjm4WYtSa4gCv-16" target="TPEd0sCXjm4WYtSa4gCv-32">
          <mxGeometry relative="1" as="geometry" />
        </mxCell>
        <mxCell id="TPEd0sCXjm4WYtSa4gCv-16" value="option==1" style="rhombus;whiteSpace=wrap;html=1;" vertex="1" parent="1">
          <mxGeometry x="60" y="620" width="80" height="50" as="geometry" />
        </mxCell>
        <mxCell id="TPEd0sCXjm4WYtSa4gCv-21" style="edgeStyle=orthogonalEdgeStyle;rounded=0;orthogonalLoop=1;jettySize=auto;html=1;exitX=0.5;exitY=1;exitDx=0;exitDy=0;entryX=0.5;entryY=0;entryDx=0;entryDy=0;" edge="1" parent="1" source="TPEd0sCXjm4WYtSa4gCv-17" target="TPEd0sCXjm4WYtSa4gCv-20">
          <mxGeometry relative="1" as="geometry" />
        </mxCell>
        <mxCell id="TPEd0sCXjm4WYtSa4gCv-17" value="&lt;div&gt;total_time = 0&lt;/div&gt;&lt;div&gt;&amp;nbsp;total_kwh = 0&lt;/div&gt;&lt;div&gt;&lt;span style=&quot;background-color: initial;&quot;&gt;i = 0&lt;/span&gt;&lt;/div&gt;" style="rounded=0;whiteSpace=wrap;html=1;" vertex="1" parent="1">
          <mxGeometry x="57.5" y="700" width="85" height="60" as="geometry" />
        </mxCell>
        <mxCell id="TPEd0sCXjm4WYtSa4gCv-24" style="edgeStyle=orthogonalEdgeStyle;rounded=0;orthogonalLoop=1;jettySize=auto;html=1;exitX=0.5;exitY=1;exitDx=0;exitDy=0;entryX=0.5;entryY=0;entryDx=0;entryDy=0;" edge="1" parent="1" source="TPEd0sCXjm4WYtSa4gCv-20" target="TPEd0sCXjm4WYtSa4gCv-22">
          <mxGeometry relative="1" as="geometry" />
        </mxCell>
        <mxCell id="TPEd0sCXjm4WYtSa4gCv-20" value="for line in ev_logs" style="shape=hexagon;perimeter=hexagonPerimeter2;whiteSpace=wrap;html=1;fixedSize=1;" vertex="1" parent="1">
          <mxGeometry x="40" y="790" width="120" height="30" as="geometry" />
        </mxCell>
        <mxCell id="TPEd0sCXjm4WYtSa4gCv-25" style="edgeStyle=orthogonalEdgeStyle;rounded=0;orthogonalLoop=1;jettySize=auto;html=1;exitX=0.5;exitY=1;exitDx=0;exitDy=0;entryX=0.5;entryY=0;entryDx=0;entryDy=0;" edge="1" parent="1" source="TPEd0sCXjm4WYtSa4gCv-22" target="TPEd0sCXjm4WYtSa4gCv-23">
          <mxGeometry relative="1" as="geometry" />
        </mxCell>
        <mxCell id="TPEd0sCXjm4WYtSa4gCv-65" style="edgeStyle=orthogonalEdgeStyle;rounded=0;orthogonalLoop=1;jettySize=auto;html=1;exitX=0;exitY=0.5;exitDx=0;exitDy=0;entryX=0;entryY=0.5;entryDx=0;entryDy=0;" edge="1" parent="1" source="TPEd0sCXjm4WYtSa4gCv-22" target="TPEd0sCXjm4WYtSa4gCv-27">
          <mxGeometry relative="1" as="geometry">
            <Array as="points">
              <mxPoint x="-10" y="865" />
              <mxPoint x="-10" y="1175" />
            </Array>
          </mxGeometry>
        </mxCell>
        <mxCell id="TPEd0sCXjm4WYtSa4gCv-22" value="i &amp;gt; 0:" style="rhombus;whiteSpace=wrap;html=1;" vertex="1" parent="1">
          <mxGeometry x="70" y="840" width="60" height="50" as="geometry" />
        </mxCell>
        <mxCell id="TPEd0sCXjm4WYtSa4gCv-28" style="edgeStyle=orthogonalEdgeStyle;rounded=0;orthogonalLoop=1;jettySize=auto;html=1;exitX=0.5;exitY=1;exitDx=0;exitDy=0;entryX=0.5;entryY=0;entryDx=0;entryDy=0;" edge="1" parent="1" source="TPEd0sCXjm4WYtSa4gCv-23" target="TPEd0sCXjm4WYtSa4gCv-27">
          <mxGeometry relative="1" as="geometry" />
        </mxCell>
        <mxCell id="TPEd0sCXjm4WYtSa4gCv-23" value="&lt;div&gt;data = line.split(&quot;,&quot;)&lt;/div&gt;&lt;div&gt;&amp;nbsp; &amp;nbsp; &amp;nbsp; &amp;nbsp; &amp;nbsp; &amp;nbsp; &amp;nbsp; &amp;nbsp; # print(data)&lt;/div&gt;&lt;div&gt;&amp;nbsp; &amp;nbsp; &amp;nbsp; &amp;nbsp; &amp;nbsp; &amp;nbsp; &amp;nbsp; &amp;nbsp; temp_time = data[2]&lt;/div&gt;&lt;div&gt;&amp;nbsp; &amp;nbsp; &amp;nbsp; &amp;nbsp; &amp;nbsp; &amp;nbsp; &amp;nbsp; &amp;nbsp; temp_time = temp_time.split(&quot;:&quot;)&lt;/div&gt;&lt;div&gt;&amp;nbsp; &amp;nbsp; &amp;nbsp; &amp;nbsp; &amp;nbsp; &amp;nbsp; &amp;nbsp; &amp;nbsp; temp_time = int(temp_time[0]) * 60 + int(temp_time[1])&lt;/div&gt;&lt;div&gt;&amp;nbsp; &amp;nbsp; &amp;nbsp; &amp;nbsp; &amp;nbsp; &amp;nbsp; &amp;nbsp; &amp;nbsp; total_time += temp_time&lt;/div&gt;&lt;div&gt;&amp;nbsp; &amp;nbsp; &amp;nbsp; &amp;nbsp; &amp;nbsp; &amp;nbsp; &amp;nbsp; &amp;nbsp; kWh = data[1]&lt;/div&gt;&lt;div&gt;&amp;nbsp; &amp;nbsp; &amp;nbsp; &amp;nbsp; &amp;nbsp; &amp;nbsp; &amp;nbsp; &amp;nbsp; total_kwh = float(kWh[0:5])&lt;/div&gt;" style="rounded=0;whiteSpace=wrap;html=1;" vertex="1" parent="1">
          <mxGeometry x="20" y="910" width="160" height="230" as="geometry" />
        </mxCell>
        <mxCell id="TPEd0sCXjm4WYtSa4gCv-29" style="edgeStyle=orthogonalEdgeStyle;rounded=0;orthogonalLoop=1;jettySize=auto;html=1;exitX=1;exitY=0.5;exitDx=0;exitDy=0;entryX=1;entryY=0.5;entryDx=0;entryDy=0;" edge="1" parent="1" source="TPEd0sCXjm4WYtSa4gCv-27" target="TPEd0sCXjm4WYtSa4gCv-20">
          <mxGeometry relative="1" as="geometry">
            <Array as="points">
              <mxPoint x="220" y="1175" />
              <mxPoint x="220" y="805" />
            </Array>
          </mxGeometry>
        </mxCell>
        <mxCell id="TPEd0sCXjm4WYtSa4gCv-31" style="edgeStyle=orthogonalEdgeStyle;rounded=0;orthogonalLoop=1;jettySize=auto;html=1;exitX=0.5;exitY=1;exitDx=0;exitDy=0;entryX=0.5;entryY=0;entryDx=0;entryDy=0;" edge="1" parent="1" source="TPEd0sCXjm4WYtSa4gCv-27" target="TPEd0sCXjm4WYtSa4gCv-30">
          <mxGeometry relative="1" as="geometry" />
        </mxCell>
        <mxCell id="TPEd0sCXjm4WYtSa4gCv-27" value="i+=1" style="rounded=0;whiteSpace=wrap;html=1;" vertex="1" parent="1">
          <mxGeometry x="80" y="1160" width="40" height="30" as="geometry" />
        </mxCell>
        <mxCell id="TPEd0sCXjm4WYtSa4gCv-107" style="edgeStyle=orthogonalEdgeStyle;rounded=0;orthogonalLoop=1;jettySize=auto;html=1;exitX=0.5;exitY=1;exitDx=0;exitDy=0;entryX=0.5;entryY=0;entryDx=0;entryDy=0;" edge="1" parent="1" source="TPEd0sCXjm4WYtSa4gCv-30" target="TPEd0sCXjm4WYtSa4gCv-63">
          <mxGeometry relative="1" as="geometry" />
        </mxCell>
        <mxCell id="TPEd0sCXjm4WYtSa4gCv-30" value="print(f&quot;{bold_green}Average time per kWh: {end_code}&lt;br&gt;{colors[3]}{int(total_time / total_kwh)} minutes{end_code}&quot;)" style="shape=parallelogram;perimeter=parallelogramPerimeter;whiteSpace=wrap;html=1;fixedSize=1;" vertex="1" parent="1">
          <mxGeometry x="-70" y="1210" width="340" height="60" as="geometry" />
        </mxCell>
        <mxCell id="TPEd0sCXjm4WYtSa4gCv-35" style="edgeStyle=orthogonalEdgeStyle;rounded=0;orthogonalLoop=1;jettySize=auto;html=1;exitX=0.5;exitY=1;exitDx=0;exitDy=0;entryX=0.5;entryY=0;entryDx=0;entryDy=0;" edge="1" parent="1" source="TPEd0sCXjm4WYtSa4gCv-32" target="TPEd0sCXjm4WYtSa4gCv-34">
          <mxGeometry relative="1" as="geometry" />
        </mxCell>
        <mxCell id="TPEd0sCXjm4WYtSa4gCv-81" style="edgeStyle=orthogonalEdgeStyle;rounded=0;orthogonalLoop=1;jettySize=auto;html=1;exitX=1;exitY=0.5;exitDx=0;exitDy=0;entryX=0;entryY=0.5;entryDx=0;entryDy=0;" edge="1" parent="1" source="TPEd0sCXjm4WYtSa4gCv-32" target="TPEd0sCXjm4WYtSa4gCv-79">
          <mxGeometry relative="1" as="geometry" />
        </mxCell>
        <mxCell id="TPEd0sCXjm4WYtSa4gCv-32" value="option==2" style="rhombus;whiteSpace=wrap;html=1;" vertex="1" parent="1">
          <mxGeometry x="365" y="620" width="80" height="50" as="geometry" />
        </mxCell>
        <mxCell id="TPEd0sCXjm4WYtSa4gCv-38" style="edgeStyle=orthogonalEdgeStyle;rounded=0;orthogonalLoop=1;jettySize=auto;html=1;exitX=0.5;exitY=1;exitDx=0;exitDy=0;entryX=0.5;entryY=0;entryDx=0;entryDy=0;" edge="1" parent="1" source="TPEd0sCXjm4WYtSa4gCv-34" target="TPEd0sCXjm4WYtSa4gCv-36">
          <mxGeometry relative="1" as="geometry" />
        </mxCell>
        <mxCell id="TPEd0sCXjm4WYtSa4gCv-34" value="&lt;div&gt;index = 0&lt;/div&gt;&lt;div&gt;&lt;span style=&quot;background-color: initial;&quot;&gt;total_energy = 0&lt;/span&gt;&lt;/div&gt;" style="rounded=0;whiteSpace=wrap;html=1;" vertex="1" parent="1">
          <mxGeometry x="345" y="700" width="120" height="60" as="geometry" />
        </mxCell>
        <mxCell id="TPEd0sCXjm4WYtSa4gCv-40" style="edgeStyle=orthogonalEdgeStyle;rounded=0;orthogonalLoop=1;jettySize=auto;html=1;exitX=0.5;exitY=1;exitDx=0;exitDy=0;entryX=0.5;entryY=0;entryDx=0;entryDy=0;" edge="1" parent="1" source="TPEd0sCXjm4WYtSa4gCv-36" target="TPEd0sCXjm4WYtSa4gCv-39">
          <mxGeometry relative="1" as="geometry" />
        </mxCell>
        <mxCell id="TPEd0sCXjm4WYtSa4gCv-36" value="for line in ev_logs" style="shape=hexagon;perimeter=hexagonPerimeter2;whiteSpace=wrap;html=1;fixedSize=1;" vertex="1" parent="1">
          <mxGeometry x="345" y="790" width="120" height="30" as="geometry" />
        </mxCell>
        <mxCell id="TPEd0sCXjm4WYtSa4gCv-42" style="edgeStyle=orthogonalEdgeStyle;rounded=0;orthogonalLoop=1;jettySize=auto;html=1;exitX=0.5;exitY=1;exitDx=0;exitDy=0;" edge="1" parent="1" source="TPEd0sCXjm4WYtSa4gCv-39" target="TPEd0sCXjm4WYtSa4gCv-41">
          <mxGeometry relative="1" as="geometry" />
        </mxCell>
        <mxCell id="TPEd0sCXjm4WYtSa4gCv-71" style="edgeStyle=orthogonalEdgeStyle;rounded=0;orthogonalLoop=1;jettySize=auto;html=1;exitX=0;exitY=0.5;exitDx=0;exitDy=0;entryX=0;entryY=0.5;entryDx=0;entryDy=0;" edge="1" parent="1" source="TPEd0sCXjm4WYtSa4gCv-39" target="TPEd0sCXjm4WYtSa4gCv-43">
          <mxGeometry relative="1" as="geometry">
            <Array as="points">
              <mxPoint x="310" y="865" />
              <mxPoint x="310" y="1085" />
            </Array>
          </mxGeometry>
        </mxCell>
        <mxCell id="TPEd0sCXjm4WYtSa4gCv-39" value="index &amp;gt; 0:" style="rhombus;whiteSpace=wrap;html=1;" vertex="1" parent="1">
          <mxGeometry x="375" y="840" width="60" height="50" as="geometry" />
        </mxCell>
        <mxCell id="TPEd0sCXjm4WYtSa4gCv-44" style="edgeStyle=orthogonalEdgeStyle;rounded=0;orthogonalLoop=1;jettySize=auto;html=1;exitX=0.5;exitY=1;exitDx=0;exitDy=0;entryX=0.5;entryY=0;entryDx=0;entryDy=0;" edge="1" parent="1" source="TPEd0sCXjm4WYtSa4gCv-41" target="TPEd0sCXjm4WYtSa4gCv-43">
          <mxGeometry relative="1" as="geometry" />
        </mxCell>
        <mxCell id="TPEd0sCXjm4WYtSa4gCv-41" value="&lt;div&gt;data = line.split(&quot;,&quot;)&lt;/div&gt;&lt;div&gt;&amp;nbsp; &amp;nbsp; &amp;nbsp; &amp;nbsp; &amp;nbsp; &amp;nbsp; &amp;nbsp; &amp;nbsp; time = data[2]&lt;/div&gt;&lt;div&gt;&amp;nbsp; &amp;nbsp; &amp;nbsp; &amp;nbsp; &amp;nbsp; &amp;nbsp; &amp;nbsp; &amp;nbsp; time = time.split(&quot;:&quot;)&lt;/div&gt;&lt;div&gt;&amp;nbsp; &amp;nbsp; &amp;nbsp; &amp;nbsp; &amp;nbsp; &amp;nbsp; &amp;nbsp; &amp;nbsp; time = int(time[0]) * 60 + int(time[1])&lt;/div&gt;&lt;div&gt;&amp;nbsp; &amp;nbsp; &amp;nbsp; &amp;nbsp; &amp;nbsp; &amp;nbsp; &amp;nbsp; &amp;nbsp; total_time += time&lt;/div&gt;" style="rounded=0;whiteSpace=wrap;html=1;" vertex="1" parent="1">
          <mxGeometry x="337.5" y="910" width="135" height="150" as="geometry" />
        </mxCell>
        <mxCell id="TPEd0sCXjm4WYtSa4gCv-45" style="edgeStyle=orthogonalEdgeStyle;rounded=0;orthogonalLoop=1;jettySize=auto;html=1;exitX=1;exitY=0.5;exitDx=0;exitDy=0;entryX=1;entryY=0.5;entryDx=0;entryDy=0;" edge="1" parent="1" source="TPEd0sCXjm4WYtSa4gCv-43" target="TPEd0sCXjm4WYtSa4gCv-36">
          <mxGeometry relative="1" as="geometry">
            <Array as="points">
              <mxPoint x="500" y="1085" />
              <mxPoint x="500" y="805" />
            </Array>
          </mxGeometry>
        </mxCell>
        <mxCell id="TPEd0sCXjm4WYtSa4gCv-47" style="edgeStyle=orthogonalEdgeStyle;rounded=0;orthogonalLoop=1;jettySize=auto;html=1;exitX=0.5;exitY=1;exitDx=0;exitDy=0;entryX=0.5;entryY=0;entryDx=0;entryDy=0;" edge="1" parent="1" source="TPEd0sCXjm4WYtSa4gCv-43" target="TPEd0sCXjm4WYtSa4gCv-46">
          <mxGeometry relative="1" as="geometry" />
        </mxCell>
        <mxCell id="TPEd0sCXjm4WYtSa4gCv-43" value="index+=1" style="rounded=0;whiteSpace=wrap;html=1;" vertex="1" parent="1">
          <mxGeometry x="375" y="1070" width="62.5" height="30" as="geometry" />
        </mxCell>
        <mxCell id="TPEd0sCXjm4WYtSa4gCv-108" style="edgeStyle=orthogonalEdgeStyle;rounded=0;orthogonalLoop=1;jettySize=auto;html=1;exitX=0.5;exitY=1;exitDx=0;exitDy=0;entryX=0.5;entryY=0;entryDx=0;entryDy=0;" edge="1" parent="1" source="TPEd0sCXjm4WYtSa4gCv-46" target="TPEd0sCXjm4WYtSa4gCv-63">
          <mxGeometry relative="1" as="geometry">
            <mxPoint x="530" y="1340" as="targetPoint" />
            <Array as="points">
              <mxPoint x="406" y="1280" />
              <mxPoint x="535" y="1280" />
            </Array>
          </mxGeometry>
        </mxCell>
        <mxCell id="TPEd0sCXjm4WYtSa4gCv-46" value="print(f&quot;{colors[3]}Total charge time:{total_time // 60} hour(s) {total_time % 60} minutes{end_code}&quot;)" style="shape=parallelogram;perimeter=parallelogramPerimeter;whiteSpace=wrap;html=1;fixedSize=1;" vertex="1" parent="1">
          <mxGeometry x="311.25" y="1130" width="190" height="90" as="geometry" />
        </mxCell>
        <mxCell id="TPEd0sCXjm4WYtSa4gCv-51" style="edgeStyle=orthogonalEdgeStyle;rounded=0;orthogonalLoop=1;jettySize=auto;html=1;exitX=0.5;exitY=1;exitDx=0;exitDy=0;" edge="1" parent="1" source="TPEd0sCXjm4WYtSa4gCv-48">
          <mxGeometry relative="1" as="geometry">
            <mxPoint x="882.5" y="680" as="targetPoint" />
          </mxGeometry>
        </mxCell>
        <mxCell id="TPEd0sCXjm4WYtSa4gCv-48" value="option==4" style="rhombus;whiteSpace=wrap;html=1;" vertex="1" parent="1">
          <mxGeometry x="842.5" y="620" width="80" height="50" as="geometry" />
        </mxCell>
        <mxCell id="TPEd0sCXjm4WYtSa4gCv-53" style="edgeStyle=orthogonalEdgeStyle;rounded=0;orthogonalLoop=1;jettySize=auto;html=1;exitX=0.5;exitY=1;exitDx=0;exitDy=0;entryX=0.5;entryY=0;entryDx=0;entryDy=0;" edge="1" parent="1" target="TPEd0sCXjm4WYtSa4gCv-52">
          <mxGeometry relative="1" as="geometry">
            <mxPoint x="882.5" y="740" as="sourcePoint" />
          </mxGeometry>
        </mxCell>
        <mxCell id="TPEd0sCXjm4WYtSa4gCv-50" value="print(f&quot;{bold_green}4. Showing all data: {end_code}&quot;)" style="shape=parallelogram;perimeter=parallelogramPerimeter;whiteSpace=wrap;html=1;fixedSize=1;" vertex="1" parent="1">
          <mxGeometry x="805" y="680" width="150" height="60" as="geometry" />
        </mxCell>
        <mxCell id="TPEd0sCXjm4WYtSa4gCv-55" style="edgeStyle=orthogonalEdgeStyle;rounded=0;orthogonalLoop=1;jettySize=auto;html=1;exitX=0.5;exitY=1;exitDx=0;exitDy=0;entryX=0.5;entryY=0;entryDx=0;entryDy=0;" edge="1" parent="1" source="TPEd0sCXjm4WYtSa4gCv-52" target="TPEd0sCXjm4WYtSa4gCv-54">
          <mxGeometry relative="1" as="geometry" />
        </mxCell>
        <mxCell id="TPEd0sCXjm4WYtSa4gCv-52" value="&lt;div&gt;index = 0&lt;/div&gt;" style="rounded=0;whiteSpace=wrap;html=1;" vertex="1" parent="1">
          <mxGeometry x="842.5" y="750" width="75" height="30" as="geometry" />
        </mxCell>
        <mxCell id="TPEd0sCXjm4WYtSa4gCv-58" style="edgeStyle=orthogonalEdgeStyle;rounded=0;orthogonalLoop=1;jettySize=auto;html=1;exitX=0.5;exitY=1;exitDx=0;exitDy=0;entryX=0.5;entryY=0;entryDx=0;entryDy=0;" edge="1" parent="1" source="TPEd0sCXjm4WYtSa4gCv-54" target="TPEd0sCXjm4WYtSa4gCv-57">
          <mxGeometry relative="1" as="geometry" />
        </mxCell>
        <mxCell id="TPEd0sCXjm4WYtSa4gCv-54" value="for log in ev_logs" style="shape=hexagon;perimeter=hexagonPerimeter2;whiteSpace=wrap;html=1;fixedSize=1;" vertex="1" parent="1">
          <mxGeometry x="820" y="790" width="120" height="30" as="geometry" />
        </mxCell>
        <mxCell id="TPEd0sCXjm4WYtSa4gCv-60" style="edgeStyle=orthogonalEdgeStyle;rounded=0;orthogonalLoop=1;jettySize=auto;html=1;exitX=0.5;exitY=1;exitDx=0;exitDy=0;entryX=0.5;entryY=0;entryDx=0;entryDy=0;" edge="1" parent="1" source="TPEd0sCXjm4WYtSa4gCv-57" target="TPEd0sCXjm4WYtSa4gCv-59">
          <mxGeometry relative="1" as="geometry" />
        </mxCell>
        <mxCell id="TPEd0sCXjm4WYtSa4gCv-100" style="edgeStyle=orthogonalEdgeStyle;rounded=0;orthogonalLoop=1;jettySize=auto;html=1;exitX=0;exitY=0.5;exitDx=0;exitDy=0;entryX=0;entryY=0.5;entryDx=0;entryDy=0;" edge="1" parent="1" source="TPEd0sCXjm4WYtSa4gCv-57" target="TPEd0sCXjm4WYtSa4gCv-61">
          <mxGeometry relative="1" as="geometry">
            <Array as="points">
              <mxPoint x="800" y="865" />
              <mxPoint x="800" y="995" />
            </Array>
          </mxGeometry>
        </mxCell>
        <mxCell id="TPEd0sCXjm4WYtSa4gCv-57" value="index &amp;gt; 0:" style="rhombus;whiteSpace=wrap;html=1;" vertex="1" parent="1">
          <mxGeometry x="850" y="840" width="60" height="50" as="geometry" />
        </mxCell>
        <mxCell id="TPEd0sCXjm4WYtSa4gCv-62" style="edgeStyle=orthogonalEdgeStyle;rounded=0;orthogonalLoop=1;jettySize=auto;html=1;exitX=0.5;exitY=1;exitDx=0;exitDy=0;entryX=0.5;entryY=0;entryDx=0;entryDy=0;" edge="1" parent="1" source="TPEd0sCXjm4WYtSa4gCv-59" target="TPEd0sCXjm4WYtSa4gCv-61">
          <mxGeometry relative="1" as="geometry" />
        </mxCell>
        <mxCell id="TPEd0sCXjm4WYtSa4gCv-59" value="print(f&quot;No.{index}: {log}&quot;, end=&quot;&quot;)" style="shape=parallelogram;perimeter=parallelogramPerimeter;whiteSpace=wrap;html=1;fixedSize=1;" vertex="1" parent="1">
          <mxGeometry x="820" y="910" width="120" height="60" as="geometry" />
        </mxCell>
        <mxCell id="TPEd0sCXjm4WYtSa4gCv-104" style="edgeStyle=orthogonalEdgeStyle;rounded=0;orthogonalLoop=1;jettySize=auto;html=1;exitX=1;exitY=0.5;exitDx=0;exitDy=0;entryX=1;entryY=0.5;entryDx=0;entryDy=0;" edge="1" parent="1" source="TPEd0sCXjm4WYtSa4gCv-61" target="TPEd0sCXjm4WYtSa4gCv-54">
          <mxGeometry relative="1" as="geometry">
            <Array as="points">
              <mxPoint x="960" y="995" />
              <mxPoint x="960" y="805" />
            </Array>
          </mxGeometry>
        </mxCell>
        <mxCell id="TPEd0sCXjm4WYtSa4gCv-110" style="edgeStyle=orthogonalEdgeStyle;rounded=0;orthogonalLoop=1;jettySize=auto;html=1;exitX=0.5;exitY=1;exitDx=0;exitDy=0;entryX=0.5;entryY=0;entryDx=0;entryDy=0;" edge="1" parent="1" source="TPEd0sCXjm4WYtSa4gCv-61" target="TPEd0sCXjm4WYtSa4gCv-63">
          <mxGeometry relative="1" as="geometry" />
        </mxCell>
        <mxCell id="TPEd0sCXjm4WYtSa4gCv-61" value="index+=1" style="rounded=0;whiteSpace=wrap;html=1;" vertex="1" parent="1">
          <mxGeometry x="847.5" y="980" width="70" height="30" as="geometry" />
        </mxCell>
        <mxCell id="TPEd0sCXjm4WYtSa4gCv-111" style="edgeStyle=orthogonalEdgeStyle;rounded=0;orthogonalLoop=1;jettySize=auto;html=1;exitX=0.5;exitY=1;exitDx=0;exitDy=0;entryX=0.5;entryY=0;entryDx=0;entryDy=0;" edge="1" parent="1" source="TPEd0sCXjm4WYtSa4gCv-63" target="TPEd0sCXjm4WYtSa4gCv-105">
          <mxGeometry relative="1" as="geometry" />
        </mxCell>
        <mxCell id="TPEd0sCXjm4WYtSa4gCv-63" value="state = input(f&quot;\n Do you want to view the option menu? (YES/NO): &quot;)" style="shape=parallelogram;perimeter=parallelogramPerimeter;whiteSpace=wrap;html=1;fixedSize=1;" vertex="1" parent="1">
          <mxGeometry x="472.5" y="1340" width="125" height="60" as="geometry" />
        </mxCell>
        <mxCell id="TPEd0sCXjm4WYtSa4gCv-66" value="yes" style="text;html=1;align=center;verticalAlign=middle;resizable=0;points=[];autosize=1;strokeColor=none;fillColor=none;" vertex="1" parent="1">
          <mxGeometry x="100" y="880" width="40" height="30" as="geometry" />
        </mxCell>
        <mxCell id="TPEd0sCXjm4WYtSa4gCv-67" value="no" style="text;html=1;align=center;verticalAlign=middle;resizable=0;points=[];autosize=1;strokeColor=none;fillColor=none;" vertex="1" parent="1">
          <mxGeometry x="20" y="840" width="40" height="30" as="geometry" />
        </mxCell>
        <mxCell id="TPEd0sCXjm4WYtSa4gCv-69" value="yes" style="text;html=1;align=center;verticalAlign=middle;resizable=0;points=[];autosize=1;strokeColor=none;fillColor=none;" vertex="1" parent="1">
          <mxGeometry x="400" y="880" width="40" height="30" as="geometry" />
        </mxCell>
        <mxCell id="TPEd0sCXjm4WYtSa4gCv-70" value="no" style="text;html=1;align=center;verticalAlign=middle;resizable=0;points=[];autosize=1;strokeColor=none;fillColor=none;" vertex="1" parent="1">
          <mxGeometry x="320" y="840" width="40" height="30" as="geometry" />
        </mxCell>
        <mxCell id="TPEd0sCXjm4WYtSa4gCv-72" value="yes" style="text;html=1;align=center;verticalAlign=middle;resizable=0;points=[];autosize=1;strokeColor=none;fillColor=none;" vertex="1" parent="1">
          <mxGeometry x="102.5" y="670" width="40" height="30" as="geometry" />
        </mxCell>
        <mxCell id="TPEd0sCXjm4WYtSa4gCv-74" value="no" style="text;html=1;align=center;verticalAlign=middle;resizable=0;points=[];autosize=1;strokeColor=none;fillColor=none;" vertex="1" parent="1">
          <mxGeometry x="210" y="620" width="40" height="30" as="geometry" />
        </mxCell>
        <mxCell id="TPEd0sCXjm4WYtSa4gCv-75" value="yes" style="text;html=1;align=center;verticalAlign=middle;resizable=0;points=[];autosize=1;strokeColor=none;fillColor=none;" vertex="1" parent="1">
          <mxGeometry x="405" y="670" width="40" height="30" as="geometry" />
        </mxCell>
        <mxCell id="TPEd0sCXjm4WYtSa4gCv-76" value="no" style="text;html=1;align=center;verticalAlign=middle;resizable=0;points=[];autosize=1;strokeColor=none;fillColor=none;" vertex="1" parent="1">
          <mxGeometry x="480" y="620" width="40" height="30" as="geometry" />
        </mxCell>
        <mxCell id="TPEd0sCXjm4WYtSa4gCv-78" value="yes" style="text;html=1;align=center;verticalAlign=middle;resizable=0;points=[];autosize=1;strokeColor=none;fillColor=none;" vertex="1" parent="1">
          <mxGeometry x="887.5" y="650" width="40" height="30" as="geometry" />
        </mxCell>
        <mxCell id="TPEd0sCXjm4WYtSa4gCv-84" style="edgeStyle=orthogonalEdgeStyle;rounded=0;orthogonalLoop=1;jettySize=auto;html=1;exitX=0.5;exitY=1;exitDx=0;exitDy=0;" edge="1" parent="1" source="TPEd0sCXjm4WYtSa4gCv-79" target="TPEd0sCXjm4WYtSa4gCv-82">
          <mxGeometry relative="1" as="geometry" />
        </mxCell>
        <mxCell id="TPEd0sCXjm4WYtSa4gCv-88" style="edgeStyle=orthogonalEdgeStyle;rounded=0;orthogonalLoop=1;jettySize=auto;html=1;exitX=1;exitY=0.5;exitDx=0;exitDy=0;entryX=0;entryY=0.5;entryDx=0;entryDy=0;" edge="1" parent="1" source="TPEd0sCXjm4WYtSa4gCv-79" target="TPEd0sCXjm4WYtSa4gCv-48">
          <mxGeometry relative="1" as="geometry" />
        </mxCell>
        <mxCell id="TPEd0sCXjm4WYtSa4gCv-79" value="option==3" style="rhombus;whiteSpace=wrap;html=1;" vertex="1" parent="1">
          <mxGeometry x="630" y="620" width="80" height="50" as="geometry" />
        </mxCell>
        <mxCell id="TPEd0sCXjm4WYtSa4gCv-85" style="edgeStyle=orthogonalEdgeStyle;rounded=0;orthogonalLoop=1;jettySize=auto;html=1;exitX=0.5;exitY=1;exitDx=0;exitDy=0;entryX=0.5;entryY=0;entryDx=0;entryDy=0;" edge="1" parent="1" source="TPEd0sCXjm4WYtSa4gCv-82" target="TPEd0sCXjm4WYtSa4gCv-83">
          <mxGeometry relative="1" as="geometry" />
        </mxCell>
        <mxCell id="TPEd0sCXjm4WYtSa4gCv-82" value="&lt;div&gt;total_time = 0&lt;/div&gt;&lt;div&gt;&amp;nbsp; &amp;nbsp; &amp;nbsp; &amp;nbsp; index = 0&lt;/div&gt;" style="rounded=0;whiteSpace=wrap;html=1;" vertex="1" parent="1">
          <mxGeometry x="622.5" y="690" width="95" height="40" as="geometry" />
        </mxCell>
        <mxCell id="TPEd0sCXjm4WYtSa4gCv-90" style="edgeStyle=orthogonalEdgeStyle;rounded=0;orthogonalLoop=1;jettySize=auto;html=1;exitX=0.5;exitY=1;exitDx=0;exitDy=0;entryX=0.5;entryY=0;entryDx=0;entryDy=0;" edge="1" parent="1" source="TPEd0sCXjm4WYtSa4gCv-83" target="TPEd0sCXjm4WYtSa4gCv-89">
          <mxGeometry relative="1" as="geometry" />
        </mxCell>
        <mxCell id="TPEd0sCXjm4WYtSa4gCv-83" value="for line in ev_logs" style="shape=hexagon;perimeter=hexagonPerimeter2;whiteSpace=wrap;html=1;fixedSize=1;" vertex="1" parent="1">
          <mxGeometry x="615" y="760" width="110" height="40" as="geometry" />
        </mxCell>
        <mxCell id="TPEd0sCXjm4WYtSa4gCv-86" value="yes" style="text;html=1;align=center;verticalAlign=middle;resizable=0;points=[];autosize=1;strokeColor=none;fillColor=none;" vertex="1" parent="1">
          <mxGeometry x="630" y="660" width="40" height="30" as="geometry" />
        </mxCell>
        <mxCell id="TPEd0sCXjm4WYtSa4gCv-87" value="no" style="text;html=1;align=center;verticalAlign=middle;resizable=0;points=[];autosize=1;strokeColor=none;fillColor=none;" vertex="1" parent="1">
          <mxGeometry x="750" y="620" width="40" height="30" as="geometry" />
        </mxCell>
        <mxCell id="TPEd0sCXjm4WYtSa4gCv-92" style="edgeStyle=orthogonalEdgeStyle;rounded=0;orthogonalLoop=1;jettySize=auto;html=1;exitX=0.5;exitY=1;exitDx=0;exitDy=0;entryX=0.5;entryY=0;entryDx=0;entryDy=0;" edge="1" parent="1" source="TPEd0sCXjm4WYtSa4gCv-89" target="TPEd0sCXjm4WYtSa4gCv-91">
          <mxGeometry relative="1" as="geometry" />
        </mxCell>
        <mxCell id="TPEd0sCXjm4WYtSa4gCv-96" style="edgeStyle=orthogonalEdgeStyle;rounded=0;orthogonalLoop=1;jettySize=auto;html=1;exitX=0;exitY=0.5;exitDx=0;exitDy=0;entryX=0;entryY=0.5;entryDx=0;entryDy=0;" edge="1" parent="1" source="TPEd0sCXjm4WYtSa4gCv-89" target="TPEd0sCXjm4WYtSa4gCv-94">
          <mxGeometry relative="1" as="geometry">
            <Array as="points">
              <mxPoint x="580" y="845" />
              <mxPoint x="580" y="1035" />
            </Array>
          </mxGeometry>
        </mxCell>
        <mxCell id="TPEd0sCXjm4WYtSa4gCv-89" value="index&amp;gt;0" style="rhombus;whiteSpace=wrap;html=1;" vertex="1" parent="1">
          <mxGeometry x="630" y="820" width="80" height="50" as="geometry" />
        </mxCell>
        <mxCell id="TPEd0sCXjm4WYtSa4gCv-95" style="edgeStyle=orthogonalEdgeStyle;rounded=0;orthogonalLoop=1;jettySize=auto;html=1;exitX=0.5;exitY=1;exitDx=0;exitDy=0;entryX=0.5;entryY=0;entryDx=0;entryDy=0;" edge="1" parent="1" source="TPEd0sCXjm4WYtSa4gCv-91" target="TPEd0sCXjm4WYtSa4gCv-94">
          <mxGeometry relative="1" as="geometry" />
        </mxCell>
        <mxCell id="TPEd0sCXjm4WYtSa4gCv-91" value="&lt;div&gt;&amp;nbsp; &amp;nbsp; &amp;nbsp; &amp;nbsp;data = line.split(&quot;,&quot;)&lt;/div&gt;&lt;div&gt;&lt;span style=&quot;background-color: initial;&quot;&gt;time = data[2]&lt;/span&gt;&lt;/div&gt;&lt;div&gt;&amp;nbsp; &amp;nbsp; &amp;nbsp; &amp;nbsp; &amp;nbsp;time = time.split(&quot;:&quot;)&lt;/div&gt;&lt;div&gt;&amp;nbsp; &amp;nbsp; &amp;nbsp; &amp;nbsp; &amp;nbsp; &amp;nbsp;time = int(time[0]) * 60 + int(time[1])&lt;/div&gt;&lt;div&gt;&amp;nbsp; &amp;nbsp; &amp;nbsp; total_time += tie&lt;/div&gt;" style="rounded=0;whiteSpace=wrap;html=1;" vertex="1" parent="1">
          <mxGeometry x="595" y="890" width="150" height="115" as="geometry" />
        </mxCell>
        <mxCell id="TPEd0sCXjm4WYtSa4gCv-93" value="yes" style="text;html=1;align=center;verticalAlign=middle;resizable=0;points=[];autosize=1;strokeColor=none;fillColor=none;" vertex="1" parent="1">
          <mxGeometry x="670" y="860" width="40" height="30" as="geometry" />
        </mxCell>
        <mxCell id="TPEd0sCXjm4WYtSa4gCv-99" style="edgeStyle=orthogonalEdgeStyle;rounded=0;orthogonalLoop=1;jettySize=auto;html=1;exitX=0.5;exitY=1;exitDx=0;exitDy=0;entryX=0.5;entryY=0;entryDx=0;entryDy=0;" edge="1" parent="1" source="TPEd0sCXjm4WYtSa4gCv-94" target="TPEd0sCXjm4WYtSa4gCv-98">
          <mxGeometry relative="1" as="geometry" />
        </mxCell>
        <mxCell id="TPEd0sCXjm4WYtSa4gCv-103" style="edgeStyle=orthogonalEdgeStyle;rounded=0;orthogonalLoop=1;jettySize=auto;html=1;exitX=1;exitY=0.5;exitDx=0;exitDy=0;entryX=1;entryY=0.5;entryDx=0;entryDy=0;" edge="1" parent="1" source="TPEd0sCXjm4WYtSa4gCv-94" target="TPEd0sCXjm4WYtSa4gCv-83">
          <mxGeometry relative="1" as="geometry">
            <Array as="points">
              <mxPoint x="760" y="1035" />
              <mxPoint x="760" y="780" />
            </Array>
          </mxGeometry>
        </mxCell>
        <mxCell id="TPEd0sCXjm4WYtSa4gCv-94" value="index+=1" style="whiteSpace=wrap;html=1;" vertex="1" parent="1">
          <mxGeometry x="640" y="1020" width="70" height="30" as="geometry" />
        </mxCell>
        <mxCell id="TPEd0sCXjm4WYtSa4gCv-97" value="no" style="text;html=1;align=center;verticalAlign=middle;resizable=0;points=[];autosize=1;strokeColor=none;fillColor=none;" vertex="1" parent="1">
          <mxGeometry x="595" y="820" width="40" height="30" as="geometry" />
        </mxCell>
        <mxCell id="TPEd0sCXjm4WYtSa4gCv-109" style="edgeStyle=orthogonalEdgeStyle;rounded=0;orthogonalLoop=1;jettySize=auto;html=1;exitX=0.5;exitY=1;exitDx=0;exitDy=0;entryX=0.5;entryY=0;entryDx=0;entryDy=0;" edge="1" parent="1" source="TPEd0sCXjm4WYtSa4gCv-98" target="TPEd0sCXjm4WYtSa4gCv-63">
          <mxGeometry relative="1" as="geometry" />
        </mxCell>
        <mxCell id="TPEd0sCXjm4WYtSa4gCv-98" value="print(f&quot;{colors[3]}Total charge time:{total_time // 60} hour(s) {total_time % 60} minutes{end_code}&quot;)" style="shape=parallelogram;perimeter=parallelogramPerimeter;whiteSpace=wrap;html=1;fixedSize=1;" vertex="1" parent="1">
          <mxGeometry x="555" y="1080" width="240" height="80" as="geometry" />
        </mxCell>
        <mxCell id="TPEd0sCXjm4WYtSa4gCv-101" value="no" style="text;html=1;align=center;verticalAlign=middle;resizable=0;points=[];autosize=1;strokeColor=none;fillColor=none;" vertex="1" parent="1">
          <mxGeometry x="790" y="900" width="40" height="30" as="geometry" />
        </mxCell>
        <mxCell id="TPEd0sCXjm4WYtSa4gCv-102" value="yes" style="text;html=1;align=center;verticalAlign=middle;resizable=0;points=[];autosize=1;strokeColor=none;fillColor=none;" vertex="1" parent="1">
          <mxGeometry x="877.5" y="880" width="40" height="30" as="geometry" />
        </mxCell>
        <mxCell id="TPEd0sCXjm4WYtSa4gCv-112" style="edgeStyle=orthogonalEdgeStyle;rounded=0;orthogonalLoop=1;jettySize=auto;html=1;exitX=0.5;exitY=1;exitDx=0;exitDy=0;entryX=0.5;entryY=0;entryDx=0;entryDy=0;" edge="1" parent="1" source="TPEd0sCXjm4WYtSa4gCv-105" target="TPEd0sCXjm4WYtSa4gCv-106">
          <mxGeometry relative="1" as="geometry" />
        </mxCell>
        <mxCell id="TPEd0sCXjm4WYtSa4gCv-116" style="edgeStyle=orthogonalEdgeStyle;rounded=0;orthogonalLoop=1;jettySize=auto;html=1;exitX=0;exitY=0.5;exitDx=0;exitDy=0;entryX=0;entryY=0.5;entryDx=0;entryDy=0;" edge="1" parent="1" source="TPEd0sCXjm4WYtSa4gCv-105" target="TPEd0sCXjm4WYtSa4gCv-115">
          <mxGeometry relative="1" as="geometry">
            <Array as="points">
              <mxPoint x="410" y="1470" />
              <mxPoint x="410" y="1660" />
            </Array>
          </mxGeometry>
        </mxCell>
        <mxCell id="TPEd0sCXjm4WYtSa4gCv-105" value="while not&amp;nbsp;state.lower() in [&quot;yes&quot;, &quot;no&quot;]:" style="rhombus;whiteSpace=wrap;html=1;" vertex="1" parent="1">
          <mxGeometry x="465" y="1420" width="140" height="100" as="geometry" />
        </mxCell>
        <mxCell id="TPEd0sCXjm4WYtSa4gCv-113" style="edgeStyle=orthogonalEdgeStyle;rounded=0;orthogonalLoop=1;jettySize=auto;html=1;exitX=1;exitY=0.5;exitDx=0;exitDy=0;entryX=1;entryY=0.5;entryDx=0;entryDy=0;" edge="1" parent="1" source="TPEd0sCXjm4WYtSa4gCv-106" target="TPEd0sCXjm4WYtSa4gCv-105">
          <mxGeometry relative="1" as="geometry" />
        </mxCell>
        <mxCell id="TPEd0sCXjm4WYtSa4gCv-114" style="edgeStyle=orthogonalEdgeStyle;rounded=0;orthogonalLoop=1;jettySize=auto;html=1;exitX=0.5;exitY=1;exitDx=0;exitDy=0;" edge="1" parent="1" source="TPEd0sCXjm4WYtSa4gCv-106">
          <mxGeometry relative="1" as="geometry">
            <mxPoint x="534.9230769230767" y="1619.9999999999998" as="targetPoint" />
          </mxGeometry>
        </mxCell>
        <mxCell id="TPEd0sCXjm4WYtSa4gCv-106" value="state = input(f&quot;{state} is invalid. Do you want to view the option menu? (YES/NO): &quot;)" style="rounded=0;whiteSpace=wrap;html=1;" vertex="1" parent="1">
          <mxGeometry x="425" y="1540" width="220" height="60" as="geometry" />
        </mxCell>
        <mxCell id="TPEd0sCXjm4WYtSa4gCv-118" style="edgeStyle=orthogonalEdgeStyle;rounded=0;orthogonalLoop=1;jettySize=auto;html=1;exitX=0.5;exitY=1;exitDx=0;exitDy=0;entryX=0.444;entryY=0;entryDx=0;entryDy=0;entryPerimeter=0;" edge="1" parent="1" source="TPEd0sCXjm4WYtSa4gCv-115" target="TPEd0sCXjm4WYtSa4gCv-117">
          <mxGeometry relative="1" as="geometry" />
        </mxCell>
        <mxCell id="TPEd0sCXjm4WYtSa4gCv-121" style="edgeStyle=orthogonalEdgeStyle;rounded=0;orthogonalLoop=1;jettySize=auto;html=1;exitX=1;exitY=0.5;exitDx=0;exitDy=0;entryX=0;entryY=0.5;entryDx=0;entryDy=0;" edge="1" parent="1" source="TPEd0sCXjm4WYtSa4gCv-115" target="TPEd0sCXjm4WYtSa4gCv-120">
          <mxGeometry relative="1" as="geometry" />
        </mxCell>
        <mxCell id="TPEd0sCXjm4WYtSa4gCv-115" value="state.lower() == &quot;yes&quot;:" style="rhombus;whiteSpace=wrap;html=1;" vertex="1" parent="1">
          <mxGeometry x="495" y="1620" width="80" height="80" as="geometry" />
        </mxCell>
        <mxCell id="TPEd0sCXjm4WYtSa4gCv-117" value="calculator()" style="rounded=0;whiteSpace=wrap;html=1;" vertex="1" parent="1">
          <mxGeometry x="495" y="1720" width="90" height="40" as="geometry" />
        </mxCell>
        <mxCell id="TPEd0sCXjm4WYtSa4gCv-119" value="yes" style="text;html=1;align=center;verticalAlign=middle;resizable=0;points=[];autosize=1;strokeColor=none;fillColor=none;" vertex="1" parent="1">
          <mxGeometry x="495" y="1690" width="40" height="30" as="geometry" />
        </mxCell>
        <mxCell id="TPEd0sCXjm4WYtSa4gCv-124" style="edgeStyle=orthogonalEdgeStyle;rounded=0;orthogonalLoop=1;jettySize=auto;html=1;exitX=0.5;exitY=1;exitDx=0;exitDy=0;entryX=0.5;entryY=0;entryDx=0;entryDy=0;" edge="1" parent="1" source="TPEd0sCXjm4WYtSa4gCv-120" target="TPEd0sCXjm4WYtSa4gCv-123">
          <mxGeometry relative="1" as="geometry" />
        </mxCell>
        <mxCell id="TPEd0sCXjm4WYtSa4gCv-120" value="goodbye = &quot; Thank you for using EV calculator! &quot;.center(50, &quot;-&quot;)" style="whiteSpace=wrap;html=1;" vertex="1" parent="1">
          <mxGeometry x="640" y="1630" width="120" height="60" as="geometry" />
        </mxCell>
        <mxCell id="TPEd0sCXjm4WYtSa4gCv-122" value="&amp;nbsp;no" style="text;html=1;align=center;verticalAlign=middle;resizable=0;points=[];autosize=1;strokeColor=none;fillColor=none;" vertex="1" parent="1">
          <mxGeometry x="575" y="1635" width="40" height="30" as="geometry" />
        </mxCell>
        <mxCell id="TPEd0sCXjm4WYtSa4gCv-126" value="" style="edgeStyle=orthogonalEdgeStyle;rounded=0;orthogonalLoop=1;jettySize=auto;html=1;" edge="1" parent="1" source="TPEd0sCXjm4WYtSa4gCv-123" target="TPEd0sCXjm4WYtSa4gCv-125">
          <mxGeometry relative="1" as="geometry" />
        </mxCell>
        <mxCell id="TPEd0sCXjm4WYtSa4gCv-123" value="print(f&quot;{colors[3]}{goodbye}{end_code}&quot;)" style="shape=parallelogram;perimeter=parallelogramPerimeter;whiteSpace=wrap;html=1;fixedSize=1;" vertex="1" parent="1">
          <mxGeometry x="640" y="1710" width="120" height="60" as="geometry" />
        </mxCell>
        <mxCell id="TPEd0sCXjm4WYtSa4gCv-128" style="edgeStyle=orthogonalEdgeStyle;rounded=0;orthogonalLoop=1;jettySize=auto;html=1;exitX=0.5;exitY=1;exitDx=0;exitDy=0;entryX=1;entryY=0.5;entryDx=0;entryDy=0;" edge="1" parent="1" source="TPEd0sCXjm4WYtSa4gCv-125" target="TPEd0sCXjm4WYtSa4gCv-127">
          <mxGeometry relative="1" as="geometry">
            <Array as="points">
              <mxPoint x="700" y="1840" />
              <mxPoint x="585" y="1840" />
            </Array>
          </mxGeometry>
        </mxCell>
        <mxCell id="TPEd0sCXjm4WYtSa4gCv-125" value="exit()" style="rounded=0;whiteSpace=wrap;html=1;" vertex="1" parent="1">
          <mxGeometry x="672.5" y="1790" width="55" height="30" as="geometry" />
        </mxCell>
        <mxCell id="TPEd0sCXjm4WYtSa4gCv-127" value="End" style="ellipse;whiteSpace=wrap;html=1;aspect=fixed;" vertex="1" parent="1">
          <mxGeometry x="545" y="1820" width="40" height="40" as="geometry" />
        </mxCell>
      </root>
    </mxGraphModel>
  </diagram>
</mxfile>
